<?xml version="1.0" encoding="UTF-8" standalone="no"?>
<!-- Created with Inkscape (http://www.inkscape.org/) -->

<svg
    xmlns:dc="http://purl.org/dc/elements/1.1/"
    xmlns:cc="http://creativecommons.org/ns#"
    xmlns:rdf="http://www.w3.org/1999/02/22-rdf-syntax-ns#"
    xmlns:svg="http://www.w3.org/2000/svg"
    xmlns="http://www.w3.org/2000/svg"
    xmlns:xlink="http://www.w3.org/1999/xlink"
    version="1.1"
    width="512"
    height="512"
    id="svg3107">
    <defs
        id="defs3109">
        <linearGradient
            x1="259.80084"
            y1="359.31183"
            x2="139.09666"
            y2="43.995682"
            id="linearGradient3980"
            xlink:href="#linearGradient3974"
            gradientUnits="userSpaceOnUse"
            gradientTransform="matrix(1.0471468,0.1487928,-0.1487928,1.0471468,21.271543,-39.30774)" />
        <linearGradient
            id="linearGradient3974">
            <stop
                id="stop3976"
                style="stop-color:#5d1f0e;stop-opacity:1"
                offset="0" />
            <stop
                id="stop3978"
                style="stop-color:#d09737;stop-opacity:1"
                offset="1" />
        </linearGradient>
        <clipPath
            id="clipPath5009">
            <path
                d="m 159.40625,15.75 -1.96875,0.28125 c -1.09991,0.158073 -2.53983,0.567047 -3.25,0.9375 -0.70022,0.365313 -2.32551,0.882429 -3.625,1.125 -1.29949,0.242571 -3.11969,0.77933 -4.0625,1.1875 -0.94281,0.408129 -2.38974,0.80408 -3.1875,0.90625 -0.79777,0.102221 -2.26592,0.525147 -3.28125,0.9375 -1.01533,0.412313 -2.67813,0.927433 -3.6875,1.15625 -2.85445,0.647088 -3.1122,1.059155 -3.5625,5.71875 -0.14893,1.541107 -0.54599,4.033405 -0.90625,5.53125 -0.36026,1.497861 -0.8582,4.674766 -1.09375,7.0625 -0.23556,2.387751 -0.71873,5.487259 -1.0625,6.90625 -0.3438,1.418972 -0.79641,4.552862 -1.03125,6.96875 -0.23484,2.415875 -0.66708,5.289656 -0.9375,6.375 -0.27044,1.085345 -0.61465,2.746866 -0.78125,3.6875 -0.0658,0.371577 -0.13691,0.693092 -0.21875,1 C 119.83434,69.268628 113.23958,73.545207 107,78.25 106.73193,78.16775 106.46879,78.078961 106.15625,77.9375 105.51399,77.646802 103.90377,77.225558 102.59375,77 101.28373,76.774458 99.67272,76.308869 99,75.96875 c -0.672739,-0.340112 -2.23579,-0.785284 -3.46875,-1 C 94.29828,74.754032 92.60607,74.291859 91.75,73.9375 90.2688,73.324385 88.729498,72.911065 86.5625,72.5625 86.023944,72.47585 84.947514,72.111411 84.15625,71.75 c -0.791267,-0.361412 -2.453758,-0.847641 -3.6875,-1.0625 -1.233743,-0.214848 -2.883713,-0.681349 -3.65625,-1.03125 -0.772535,-0.34989 -2.440412,-0.826059 -3.71875,-1.0625 -1.278338,-0.236468 -3.071372,-0.76397 -3.96875,-1.1875 -2.3986,-1.132128 -2.875171,-1.045769 -4.625,0.75 -2.38005,2.442488 -6.129806,6.69636 -10.78125,12.21875 -0.769841,0.91399 -1.83941,2.178052 -2.375,2.8125 -0.535591,0.634449 -1.364286,1.517862 -1.8125,1.96875 -0.448224,0.450892 -0.87708,1.026606 -0.96875,1.28125 -0.269736,0.74909 0.285954,2.986005 1,4.0625 0.363707,0.548326 0.820294,1.581886 1.03125,2.28125 0.210968,0.699363 0.698762,1.701626 1.0625,2.25 0.363737,0.548332 0.832617,1.648499 1.0625,2.4375 0.229871,0.788864 0.706811,1.831563 1.0625,2.3125 0.355688,0.48095 0.832618,1.5235 1.0625,2.3125 0.229872,0.789 0.712074,1.87799 1.0625,2.40625 0.350435,0.52811 0.820292,1.51927 1.03125,2.21875 0.210968,0.69926 0.667513,1.73289 1.03125,2.28125 0.363737,0.54827 0.878619,1.6857 1.125,2.53125 0.246382,0.84541 0.710798,1.96968 1.0625,2.5 0.351701,0.53021 0.800562,1.58932 1,2.34375 0.199449,0.75439 0.691916,1.81044 1.0625,2.34375 0.370584,0.53364 0.838535,1.56014 1.0625,2.3125 0.223964,0.75232 0.783874,2.00143 1.25,2.75 0.478636,0.76904 0.690186,1.20042 0.78125,1.875 -4.008308,7.06668 -7.462534,14.46165 -10.3125,22.15625 -0.683748,0.29596 -1.552685,0.50501 -3,0.78125 -1.118577,0.21352 -2.607378,0.67464 -3.3125,1.03125 -0.705122,0.35629 -2.094565,0.80023 -3.09375,0.96875 -0.999184,0.16893 -2.626001,0.64442 -3.59375,1.0625 -0.967748,0.41801 -2.660539,0.91709 -3.75,1.125 -1.089452,0.20809 -2.603768,0.67277 -3.375,1.03125 -0.771222,0.35849 -2.392093,0.84811 -3.625,1.09375 -1.232906,0.24562 -2.805105,0.72755 -3.46875,1.0625 -0.663643,0.33498 -2.184273,0.79991 -3.40625,1.03125 -1.221978,0.23131 -2.787511,0.70716 -3.46875,1.0625 -0.681229,0.35536 -2.089137,0.79788 -3.125,0.96875 -2.645682,0.43578 -2.810889,0.63016 -3.40625,3.90625 -0.276128,1.51936 -0.685166,3.4755 -0.90625,4.34375 -0.221084,0.86811 -0.595318,3.51862 -0.8125,5.90625 -0.217192,2.38777 -0.74281,6.04468 -1.1875,8.125 -0.44813,2.0963 -0.72321,4.03401 -0.625,4.34375 0.331543,1.04659 1.49213,2.31738 2.71875,2.9375 0.673063,0.3403 1.385293,0.81083 1.59375,1.0625 0.208457,0.25164 0.993511,0.74105 1.71875,1.0625 0.725239,0.32149 1.556597,0.83783 1.84375,1.15625 0.287152,0.31805 0.926889,0.75594 1.4375,0.96875 0.510611,0.21265 1.231131,0.66178 1.59375,1 0.36262,0.3382 1.128854,0.86153 1.71875,1.15625 0.589897,0.29473 1.239327,0.73066 1.4375,0.96875 0.198161,0.23841 0.847604,0.67013 1.4375,0.96875 0.589896,0.29864 1.407168,0.81813 1.8125,1.15625 0.405343,0.33812 1.233758,0.82019 1.84375,1.09375 0.610003,0.27385 1.398361,0.83742 1.75,1.21875 0.351648,0.38156 0.787572,0.6875 0.96875,0.6875 0.181177,0 0.875286,0.40682 1.53125,0.90625 0.655964,0.49974 1.626012,1.12047 2.1875,1.40625 0.561499,0.28565 1.208078,0.73062 1.40625,0.96875 0.198162,0.2383 0.813502,0.6517 1.375,0.9375 0.561487,0.28563 1.562786,0.93794 2.21875,1.4375 0.655964,0.49944 1.349444,0.90625 1.5625,0.90625 0.213057,0 0.711466,0.30612 1.09375,0.6875 0.382282,0.38127 1.226663,1.02623 1.875,1.40625 0.535741,8.31975 1.751729,16.46143 3.59375,24.375 -0.336881,0.44394 -0.729484,0.93891 -1.21875,1.5 -3.73331,4.2819 -4.167568,4.77198 -5.125,5.84375 -1.499299,1.6785 -4.877624,5.69376 -6.3125,7.5 -0.725239,0.91308 -1.742332,2.1298 -2.25,2.6875 -0.507667,0.55767 -1.388558,1.55276 -1.96875,2.21875 -0.58019,0.66611 -1.437677,1.62853 -1.90625,2.15625 -1.248403,1.40582 -3.18492,3.70482 -4.6875,5.5625 -0.725239,0.89654 -1.690156,2.01649 -2.15625,2.5 -0.466094,0.48351 -0.93515,1.2115 -1.03125,1.59375 -0.240315,0.95523 0.503028,3.81078 1.3125,5.03125 0.367209,0.55363 0.851532,1.58189 1.0625,2.28125 0.210968,0.69947 0.667501,1.73272 1.03125,2.28125 0.363737,0.54828 0.863867,1.64868 1.09375,2.4375 0.229872,0.78895 0.706811,1.83143 1.0625,2.3125 0.355679,0.48106 0.81468,1.45114 1.03125,2.1875 0.216559,0.7362 0.70639,1.76243 1.0625,2.28125 0.356101,0.51884 0.846219,1.64413 1.09375,2.5 0.341627,1.18124 0.741387,1.86375 1.6875,2.8125 l 1.25,1.25 21.15625,0 c 14.083374,0 18.725902,-0.0109 20.625,0.15625 4.716001,6.25153 9.903393,12.1551 15.5,17.625 -0.06533,0.50156 -0.152499,1.09454 -0.28125,1.71875 -0.28105,1.36281 -0.69162,4.5376 -0.90625,7.0625 -0.21464,2.52468 -0.67206,6.03701 -1.03125,7.78125 -0.35919,1.74433 -0.836192,5.30149 -1.0625,7.90625 -0.226306,2.60487 -0.596858,5.54946 -0.8125,6.5625 -0.75789,3.56017 -0.870529,4.36726 -1.15625,7.21875 -0.393981,3.93171 -0.154686,4.78817 1.5625,5.65625 0.698846,0.35326 1.61169,0.93798 2.03125,1.28125 0.41956,0.34328 1.13283,0.75313 1.59375,0.9375 0.46092,0.18437 1.04817,0.58292 1.3125,0.875 0.26431,0.29209 1.13975,0.87868 1.9375,1.28125 0.79777,0.40242 1.66119,0.97604 1.9375,1.28125 0.27632,0.30531 0.65977,0.53125 0.84375,0.53125 0.18398,0 0.87866,0.40927 1.53125,0.90625 0.65259,0.49709 1.57986,1.10067 2.0625,1.34375 0.48264,0.24312 1.16862,0.72494 1.53125,1.0625 0.36262,0.33757 1.08608,0.78829 1.59375,1 0.50767,0.21152 1.36951,0.7683 1.9375,1.21875 0.56801,0.45048 1.3358,0.87945 1.6875,0.96875 0.88946,0.22275 2.54109,-0.32508 3.40625,-1.125 0.39913,-0.36908 1.14707,-0.85043 1.65625,-1.0625 0.50918,-0.21223 1.23114,-0.6594 1.59375,-1 0.36263,-0.34072 1.12699,-0.80124 1.6875,-1.03125 0.5605,-0.23 1.40351,-0.75777 1.875,-1.15625 0.47149,-0.39842 1.45771,-1.06595 2.21875,-1.5 3.04865,-1.73915 3.703,-2.15446 4.28125,-2.6875 0.33153,-0.30571 1.06451,-0.73821 1.625,-0.96875 0.5605,-0.23056 1.42468,-0.76571 1.90625,-1.1875 0.48157,-0.42195 1.13288,-0.86308 1.46875,-0.96875 0.33589,-0.10494 0.95674,-0.46365 1.375,-0.8125 0.41825,-0.34896 1.24666,-0.88909 1.84375,-1.1875 0.59709,-0.29842 1.38738,-0.81814 1.75,-1.15625 0.36263,-0.33818 1.09858,-0.78057 1.625,-1 0.52642,-0.21938 1.31033,-0.72458 1.75,-1.09375 0.43969,-0.36906 1.20018,-0.82806 1.6875,-1.03125 0.48732,-0.2031 1.11909,-0.61918 1.40625,-0.9375 0.28714,-0.31827 1.16369,-0.87648 1.9375,-1.21875 0.72403,-0.32035 1.60702,-0.83961 2.09375,-1.21875 7.24202,2.75386 14.74018,4.97697 22.4375,6.625 0.31165,0.4188 0.59522,0.92515 0.84375,1.59375 0.30043,0.80827 0.83663,1.86487 1.1875,2.375 0.35087,0.51015 0.78951,1.52094 1,2.21875 0.2105,0.69787 0.69876,1.70159 1.0625,2.25 0.36373,0.54839 0.83263,1.64863 1.0625,2.4375 0.22987,0.78886 0.73145,1.82251 1.09375,2.3125 0.3623,0.48998 0.78602,1.38599 0.9375,1.96875 0.1515,0.58254 0.62997,1.54413 1.0625,2.15625 0.43252,0.6122 0.96503,1.72137 1.1875,2.46875 0.22246,0.7474 0.68385,1.78874 1.03125,2.3125 0.3474,0.52374 0.78903,1.5193 1,2.21875 0.21096,0.69947 0.68289,1.7214 1.03125,2.25 0.34836,0.52856 0.82272,1.54268 1.0625,2.25 0.23978,0.70727 0.74022,1.66272 1.09375,2.125 0.35353,0.46257 0.82654,1.50278 1.0625,2.3125 0.23597,0.80997 0.656,1.76803 0.9375,2.125 0.28151,0.35718 0.74362,1.17431 1.03125,1.84375 0.30343,0.7063 0.77677,1.32711 1.125,1.46875 0.34699,0.14075 5.92223,0.2186 13.21875,0.1875 l 12.625,-0.0312 1.15625,-1.3125 c 0.69173,-0.78905 1.2956,-1.86711 1.53125,-2.65625 0.21609,-0.72339 0.7064,-1.73118 1.0625,-2.25 0.35611,-0.51885 0.83047,-1.57868 1.0625,-2.375 0.23202,-0.79635 0.7068,-1.86267 1.0625,-2.34375 0.35568,-0.48098 0.82855,-1.53498 1.0625,-2.34375 0.23395,-0.80852 0.70353,-1.81602 1.03125,-2.25 0.3277,-0.43425 0.75156,-1.26478 0.9375,-1.84375 0.18594,-0.57871 0.73939,-1.70393 1.21875,-2.5 0.47937,-0.7958 0.97369,-1.91725 1.125,-2.5 0.15132,-0.58269 0.57522,-1.47889 0.9375,-1.96875 0.36231,-0.49001 0.86388,-1.52352 1.09375,-2.3125 0.22988,-0.7889 0.71023,-1.87524 1.0625,-2.40625 0.35228,-0.53101 0.8086,-1.56445 1.03125,-2.3125 0.22265,-0.74807 0.72361,-1.71749 1.09375,-2.15625 0.37015,-0.43897 0.79183,-1.26785 0.9375,-1.8125 0.14569,-0.5449 0.71014,-1.76519 1.28125,-2.71875 0.16357,-0.27315 0.27731,-0.45674 0.40625,-0.65625 7.77073,-1.62886 15.34691,-3.83834 22.65625,-6.59375 0.0308,0.0247 0.0628,0.0365 0.0937,0.0625 0.42645,0.35796 1.18437,0.82165 1.6875,1.03125 0.50312,0.20983 1.2711,0.65226 1.6875,1 0.41639,0.34778 1.35942,0.94261 2.09375,1.3125 0.73436,0.36987 1.49059,0.85715 1.6875,1.09375 0.19691,0.2367 0.76204,0.62732 1.28125,0.84375 0.51922,0.21638 1.26239,0.65508 1.625,1 0.36263,0.34484 1.18898,0.87728 1.84375,1.15625 0.65478,0.27892 1.35609,0.68927 1.5625,0.9375 0.2064,0.24797 0.9476,0.75121 1.625,1.09375 0.67743,0.34255 1.54918,0.90011 1.96875,1.25 0.41958,0.35009 1.03912,0.73808 1.375,0.84375 0.33589,0.10491 1.01841,0.51578 1.5,0.9375 0.48156,0.42186 1.2745,0.94495 1.78125,1.15625 0.50672,0.2113 1.2711,0.65327 1.6875,1 0.41639,0.3468 1.17984,0.8672 1.6875,1.125 0.50767,0.25776 1.27111,0.74701 1.6875,1.09375 0.4164,0.34677 1.16108,0.81182 1.6875,1.03125 0.52642,0.21938 1.26238,0.68487 1.625,1.03125 0.36263,0.34655 1.09859,0.81183 1.625,1.03125 0.52642,0.21943 1.30237,0.65427 1.71875,1 1.30338,1.08155 1.92541,1.31383 3.1875,1.125 0.79421,-0.11873 1.47163,-0.4463 2.125,-1.03125 0.53262,-0.47665 1.25787,-0.95683 1.59375,-1.0625 0.33587,-0.10437 0.98717,-0.54681 1.46875,-0.96875 0.48156,-0.42173 1.29161,-0.92104 1.78125,-1.125 0.48962,-0.20431 1.28159,-0.7409 1.75,-1.1875 0.46844,-0.44664 1.01096,-0.8125 1.21875,-0.8125 0.20779,0 0.93697,-0.44477 1.625,-0.96875 0.68803,-0.52399 1.61235,-1.09359 2.0625,-1.28125 0.45014,-0.18763 1.05662,-0.61501 1.34375,-0.9375 0.28715,-0.32239 1.00301,-0.79864 1.59375,-1.0625 0.59072,-0.26387 1.50246,-0.83078 2.03125,-1.25 0.52879,-0.41925 1.3291,-0.88846 1.75,-1.0625 0.94469,-0.39028 1.34375,-1.24255 1.34375,-2.8125 0,-2.5953 -0.84776,-10.31188 -1.46875,-13.34375 -0.35998,-1.75758 -0.82157,-5.22739 -1.03125,-7.6875 -0.37298,-4.37616 -0.51075,-5.1775 -1.3125,-8.90625 -0.36317,-1.68903 -0.92812,-7.53649 -1.09375,-10.65625 5.76496,-5.59706 11.1001,-11.63969 15.9375,-18.0625 L 343,291.0625 c 19.8719,-0.12204 21.52047,-0.16199 22.3125,-0.59375 0.97734,-0.53293 1.43062,-1.19018 1.90625,-2.6875 0.18387,-0.57877 0.65007,-1.4713 1,-2 0.34991,-0.5286 0.78902,-1.55065 1,-2.25 0.21094,-0.69938 0.68082,-1.69051 1.03125,-2.21875 0.35041,-0.52838 0.83261,-1.61726 1.0625,-2.40625 0.22986,-0.78889 0.70682,-1.83155 1.0625,-2.3125 0.3557,-0.48095 0.80545,-1.50619 1.03125,-2.28125 0.22583,-0.775 0.76523,-1.96075 1.1875,-2.625 0.42227,-0.6644 0.8394,-1.57649 0.9375,-2.03125 0.0981,-0.45471 0.37916,-1.17493 0.59375,-1.59375 0.56396,-1.10055 0.48115,-2.34685 -0.21875,-3.34375 -0.53473,-0.76147 -2.08486,-2.58236 -5.8125,-6.8125 -2.96918,-3.36921 -5.88376,-6.80763 -8,-9.4375 -0.72524,-0.90131 -1.79481,-2.17493 -2.375,-2.8125 -0.58019,-0.63758 -1.49687,-1.66648 -2.03125,-2.28125 -0.53436,-0.61462 -1.40201,-1.57738 -1.90625,-2.15625 -1.4173,-1.62686 -3.0841,-3.61818 -4.53125,-5.40625 -0.33588,-0.41501 -0.61006,-0.75019 -0.96875,-1.1875 1.93391,-8.18956 3.1855,-16.62401 3.71875,-25.25 0.42781,-0.243 0.84806,-0.51649 1.03125,-0.71875 0.25812,-0.28511 0.99443,-0.79016 1.65625,-1.125 0.66184,-0.33484 1.36375,-0.82358 1.5625,-1.0625 0.19876,-0.23912 0.84761,-0.67012 1.4375,-0.96875 0.5899,-0.29863 1.40717,-0.81814 1.8125,-1.15625 0.40536,-0.3381 1.23377,-0.8513 1.84375,-1.125 0.61,-0.27378 1.39835,-0.80611 1.75,-1.1875 0.35167,-0.38154 0.78758,-0.6875 0.96875,-0.6875 0.18117,0 0.87529,-0.40666 1.53125,-0.90625 0.65597,-0.49971 1.62601,-1.15155 2.1875,-1.4375 0.5615,-0.28561 1.20809,-0.6994 1.40625,-0.9375 0.19816,-0.23837 0.81349,-0.68284 1.375,-0.96875 0.56149,-0.28566 1.56278,-0.90682 2.21875,-1.40625 0.65596,-0.49958 1.32376,-0.90625 1.5,-0.90625 0.17624,0 0.77426,-0.43106 1.3125,-0.9375 0.53821,-0.50662 1.13761,-0.90625 1.34375,-0.90625 0.20612,0 0.90653,-0.40683 1.5625,-0.90625 0.65597,-0.49966 1.65726,-1.15173 2.21875,-1.4375 0.5615,-0.28577 1.17624,-0.72996 1.375,-0.96875 0.19875,-0.23898 0.94122,-0.71667 1.625,-1.0625 1.33153,-0.67321 2.24651,-1.64864 2.5,-2.65625 0.23245,-0.92402 -0.3601,-6.10928 -1.09375,-9.5 -0.35328,-1.63288 -0.81553,-4.8719 -1.03125,-7.21875 -0.49077,-5.33889 -0.75738,-6.69705 -1.59375,-8.34375 -0.70225,-1.38261 -0.96024,-1.53316 -3.6875,-2 -0.57216,-0.0977 -1.5753,-0.44009 -2.25,-0.78125 -0.67468,-0.34104 -2.27697,-0.82212 -3.5625,-1.0625 -1.28555,-0.24029 -2.90382,-0.71915 -3.5625,-1.0625 -0.65865,-0.34353 -2.18425,-0.80024 -3.40625,-1.03125 -1.22195,-0.23119 -2.79823,-0.70762 -3.5,-1.0625 -0.7018,-0.35473 -2.25368,-0.83845 -3.4375,-1.0625 -1.18386,-0.22403 -2.70042,-0.69014 -3.375,-1.03125 -0.67459,-0.3411 -2.22345,-0.80155 -3.4375,-1.03125 -1.21401,-0.22984 -2.84646,-0.70668 -3.625,-1.0625 -0.77853,-0.3554 -2.36299,-0.84129 -3.53125,-1.0625 -0.71496,-0.13529 -1.43034,-0.32659 -2.09375,-0.5625 -2.96818,-8.05871 -6.60943,-15.78712 -10.84375,-23.15625 0.021,-0.0326 0.0407,-0.0613 0.0625,-0.0937 0.43756,-0.65096 1.00076,-1.79505 1.21875,-2.53125 0.218,-0.73619 0.67556,-1.73768 1.03125,-2.21875 0.35569,-0.48095 0.8367,-1.50622 1.0625,-2.28125 0.22582,-0.77518 0.74122,-1.94064 1.15625,-2.59375 0.41499,-0.65267 0.8393,-1.61756 0.9375,-2.15625 0.0983,-0.53825 0.52889,-1.62197 0.96875,-2.40625 0.43986,-0.78431 0.97102,-2.02277 1.1875,-2.75 0.2165,-0.72738 0.70942,-1.73572 1.0625,-2.25 0.35303,-0.51429 0.81467,-1.54505 1.03125,-2.28125 0.21654,-0.73621 0.67556,-1.73775 1.03125,-2.21875 0.35568,-0.48121 0.83264,-1.523551 1.0625,-2.3125 0.22989,-0.788715 0.72998,-1.857939 1.09375,-2.40625 0.36372,-0.548532 0.82027,-1.581872 1.03125,-2.28125 0.21095,-0.699369 0.65261,-1.695004 1,-2.21875 0.77023,-1.161205 1.46875,-3.422102 1.46875,-4.75 0,-0.802073 -0.24437,-1.260027 -1.375,-2.59375 -3.31959,-3.915894 -5.51978,-6.503883 -6.1875,-7.21875 -0.39506,-0.42299 -1.35093,-1.495578 -2.125,-2.375 -0.77408,-0.879421 -1.84366,-2.091486 -2.375,-2.6875 -0.53135,-0.596005 -1.20989,-1.365668 -1.5,-1.71875 -3.53107,-4.297476 -4.11398,-4.523016 -7.28125,-2.9375 -0.66342,0.332126 -2.24864,0.776838 -3.53125,1 -1.28267,0.223153 -2.95015,0.684963 -3.6875,1.03125 -0.73731,0.346269 -2.32524,0.837015 -3.53125,1.0625 -1.20598,0.225458 -2.97233,0.708513 -3.9375,1.09375 -0.96515,0.38523 -2.68896,0.86137 -3.84375,1.0625 -1.15478,0.201133 -2.76814,0.668409 -3.5625,1.03125 -0.79439,0.362838 -2.28361,0.803145 -3.3125,0.96875 -1.02885,0.165629 -2.70342,0.631534 -3.71875,1.03125 -1.01534,0.399742 -2.79735,0.904604 -3.96875,1.125 -1.17144,0.220386 -2.74417,0.640276 -3.5,0.9375 -0.14112,0.0555 -0.2454,0.07847 -0.375,0.125 C 266.86181,58.585726 234.67817,47 200.03125,47 c -4.06384,0 -8.10321,0.156153 -12.09375,0.46875 -0.88844,-0.79481 -1.97524,-1.982447 -3.34375,-3.59375 -0.58019,-0.68311 -1.54481,-1.751636 -2.125,-2.375 -1.74682,-1.876815 -3.10577,-3.389039 -4.21875,-4.6875 -0.5802,-0.676878 -1.66938,-1.903079 -2.4375,-2.71875 -0.76812,-0.81568 -1.83933,-2.019999 -2.375,-2.6875 -1.13242,-1.41111 -8.379,-9.672159 -9.84375,-11.21875 -0.54821,-0.578857 -1.71779,-1.816437 -2.59375,-2.75 L 159.40625,15.75 z m 40.625,120.21875 c 36.87104,0 65.28125,28.43036 65.28125,64.0625 0,35.63214 -28.41021,64.03125 -65.28125,64.03125 -36.87104,0 -65.3125,-28.39911 -65.3125,-64.03125 0,-35.63214 28.44146,-64.0625 65.3125,-64.0625 z"
                id="path5011"
                style="fill:#020202" />
        </clipPath>
        <radialGradient
            cx="129.23863"
            cy="56.078693"
            r="168.96875"
            fx="129.23863"
            fy="56.078693"
            id="radialGradient3994"
            xlink:href="#linearGradient3988"
            gradientUnits="userSpaceOnUse"
            gradientTransform="matrix(1.7947973,0.35681,-0.2149765,1.0813575,-155.22965,-91.717689)" />
        <linearGradient
            id="linearGradient3988">
            <stop
                id="stop3990"
                style="stop-color:#ffffff;stop-opacity:0"
                offset="0" />
            <stop
                id="stop3998"
                style="stop-color:#ffffff;stop-opacity:0.08035714"
                offset="0.46566358" />
            <stop
                id="stop3996"
                style="stop-color:#ffffff;stop-opacity:0.21428572"
                offset="0.9861111" />
            <stop
                id="stop3992"
                style="stop-color:#ffffff;stop-opacity:0"
                offset="1" />
        </linearGradient>
        <clipPath
            id="clipPath5005">
            <path
                d="m 159.40625,15.75 -1.96875,0.28125 c -1.09991,0.158073 -2.53983,0.567047 -3.25,0.9375 -0.70022,0.365313 -2.32551,0.882429 -3.625,1.125 -1.29949,0.242571 -3.11969,0.77933 -4.0625,1.1875 -0.94281,0.408129 -2.38974,0.80408 -3.1875,0.90625 -0.79777,0.102221 -2.26592,0.525147 -3.28125,0.9375 -1.01533,0.412313 -2.67813,0.927433 -3.6875,1.15625 -2.85445,0.647088 -3.1122,1.059155 -3.5625,5.71875 -0.14893,1.541107 -0.54599,4.033405 -0.90625,5.53125 -0.36026,1.497861 -0.8582,4.674766 -1.09375,7.0625 -0.23556,2.387751 -0.71873,5.487259 -1.0625,6.90625 -0.3438,1.418972 -0.79641,4.552862 -1.03125,6.96875 -0.23484,2.415875 -0.66708,5.289656 -0.9375,6.375 -0.27044,1.085345 -0.61465,2.746866 -0.78125,3.6875 -0.0658,0.371577 -0.13691,0.693092 -0.21875,1 C 119.83434,69.268628 113.23958,73.545207 107,78.25 106.73193,78.16775 106.46879,78.078961 106.15625,77.9375 105.51399,77.646802 103.90377,77.225558 102.59375,77 101.28373,76.774458 99.67272,76.308869 99,75.96875 c -0.672739,-0.340112 -2.23579,-0.785284 -3.46875,-1 C 94.29828,74.754032 92.60607,74.291859 91.75,73.9375 90.2688,73.324385 88.729498,72.911065 86.5625,72.5625 86.023944,72.47585 84.947514,72.111411 84.15625,71.75 c -0.791267,-0.361412 -2.453758,-0.847641 -3.6875,-1.0625 -1.233743,-0.214848 -2.883713,-0.681349 -3.65625,-1.03125 -0.772535,-0.34989 -2.440412,-0.826059 -3.71875,-1.0625 -1.278338,-0.236468 -3.071372,-0.76397 -3.96875,-1.1875 -2.3986,-1.132128 -2.875171,-1.045769 -4.625,0.75 -2.38005,2.442488 -6.129806,6.69636 -10.78125,12.21875 -0.769841,0.91399 -1.83941,2.178052 -2.375,2.8125 -0.535591,0.634449 -1.364286,1.517862 -1.8125,1.96875 -0.448224,0.450892 -0.87708,1.026606 -0.96875,1.28125 -0.269736,0.74909 0.285954,2.986005 1,4.0625 0.363707,0.548326 0.820294,1.581886 1.03125,2.28125 0.210968,0.699363 0.698762,1.701626 1.0625,2.25 0.363737,0.548332 0.832617,1.648499 1.0625,2.4375 0.229871,0.788864 0.706811,1.831563 1.0625,2.3125 0.355688,0.48095 0.832618,1.5235 1.0625,2.3125 0.229872,0.789 0.712074,1.87799 1.0625,2.40625 0.350435,0.52811 0.820292,1.51927 1.03125,2.21875 0.210968,0.69926 0.667513,1.73289 1.03125,2.28125 0.363737,0.54827 0.878619,1.6857 1.125,2.53125 0.246382,0.84541 0.710798,1.96968 1.0625,2.5 0.351701,0.53021 0.800562,1.58932 1,2.34375 0.199449,0.75439 0.691916,1.81044 1.0625,2.34375 0.370584,0.53364 0.838535,1.56014 1.0625,2.3125 0.223964,0.75232 0.783874,2.00143 1.25,2.75 0.478636,0.76904 0.690186,1.20042 0.78125,1.875 -4.008308,7.06668 -7.462534,14.46165 -10.3125,22.15625 -0.683748,0.29596 -1.552685,0.50501 -3,0.78125 -1.118577,0.21352 -2.607378,0.67464 -3.3125,1.03125 -0.705122,0.35629 -2.094565,0.80023 -3.09375,0.96875 -0.999184,0.16893 -2.626001,0.64442 -3.59375,1.0625 -0.967748,0.41801 -2.660539,0.91709 -3.75,1.125 -1.089452,0.20809 -2.603768,0.67277 -3.375,1.03125 -0.771222,0.35849 -2.392093,0.84811 -3.625,1.09375 -1.232906,0.24562 -2.805105,0.72755 -3.46875,1.0625 -0.663643,0.33498 -2.184273,0.79991 -3.40625,1.03125 -1.221978,0.23131 -2.787511,0.70716 -3.46875,1.0625 -0.681229,0.35536 -2.089137,0.79788 -3.125,0.96875 -2.645682,0.43578 -2.810889,0.63016 -3.40625,3.90625 -0.276128,1.51936 -0.685166,3.4755 -0.90625,4.34375 -0.221084,0.86811 -0.595318,3.51862 -0.8125,5.90625 -0.217192,2.38777 -0.74281,6.04468 -1.1875,8.125 -0.44813,2.0963 -0.72321,4.03401 -0.625,4.34375 0.331543,1.04659 1.49213,2.31738 2.71875,2.9375 0.673063,0.3403 1.385293,0.81083 1.59375,1.0625 0.208457,0.25164 0.993511,0.74105 1.71875,1.0625 0.725239,0.32149 1.556597,0.83783 1.84375,1.15625 0.287152,0.31805 0.926889,0.75594 1.4375,0.96875 0.510611,0.21265 1.231131,0.66178 1.59375,1 0.36262,0.3382 1.128854,0.86153 1.71875,1.15625 0.589897,0.29473 1.239327,0.73066 1.4375,0.96875 0.198161,0.23841 0.847604,0.67013 1.4375,0.96875 0.589896,0.29864 1.407168,0.81813 1.8125,1.15625 0.405343,0.33812 1.233758,0.82019 1.84375,1.09375 0.610003,0.27385 1.398361,0.83742 1.75,1.21875 0.351648,0.38156 0.787572,0.6875 0.96875,0.6875 0.181177,0 0.875286,0.40682 1.53125,0.90625 0.655964,0.49974 1.626012,1.12047 2.1875,1.40625 0.561499,0.28565 1.208078,0.73062 1.40625,0.96875 0.198162,0.2383 0.813502,0.6517 1.375,0.9375 0.561487,0.28563 1.562786,0.93794 2.21875,1.4375 0.655964,0.49944 1.349444,0.90625 1.5625,0.90625 0.213057,0 0.711466,0.30612 1.09375,0.6875 0.382282,0.38127 1.226663,1.02623 1.875,1.40625 0.535741,8.31975 1.751729,16.46143 3.59375,24.375 -0.336881,0.44394 -0.729484,0.93891 -1.21875,1.5 -3.73331,4.2819 -4.167568,4.77198 -5.125,5.84375 -1.499299,1.6785 -4.877624,5.69376 -6.3125,7.5 -0.725239,0.91308 -1.742332,2.1298 -2.25,2.6875 -0.507667,0.55767 -1.388558,1.55276 -1.96875,2.21875 -0.58019,0.66611 -1.437677,1.62853 -1.90625,2.15625 -1.248403,1.40582 -3.18492,3.70482 -4.6875,5.5625 -0.725239,0.89654 -1.690156,2.01649 -2.15625,2.5 -0.466094,0.48351 -0.93515,1.2115 -1.03125,1.59375 -0.240315,0.95523 0.503028,3.81078 1.3125,5.03125 0.367209,0.55363 0.851532,1.58189 1.0625,2.28125 0.210968,0.69947 0.667501,1.73272 1.03125,2.28125 0.363737,0.54828 0.863867,1.64868 1.09375,2.4375 0.229872,0.78895 0.706811,1.83143 1.0625,2.3125 0.355679,0.48106 0.81468,1.45114 1.03125,2.1875 0.216559,0.7362 0.70639,1.76243 1.0625,2.28125 0.356101,0.51884 0.846219,1.64413 1.09375,2.5 0.341627,1.18124 0.741387,1.86375 1.6875,2.8125 l 1.25,1.25 21.15625,0 c 14.083374,0 18.725902,-0.0109 20.625,0.15625 4.716001,6.25153 9.903393,12.1551 15.5,17.625 -0.06533,0.50156 -0.152499,1.09454 -0.28125,1.71875 -0.28105,1.36281 -0.69162,4.5376 -0.90625,7.0625 -0.21464,2.52468 -0.67206,6.03701 -1.03125,7.78125 -0.35919,1.74433 -0.836192,5.30149 -1.0625,7.90625 -0.226306,2.60487 -0.596858,5.54946 -0.8125,6.5625 -0.75789,3.56017 -0.870529,4.36726 -1.15625,7.21875 -0.393981,3.93171 -0.154686,4.78817 1.5625,5.65625 0.698846,0.35326 1.61169,0.93798 2.03125,1.28125 0.41956,0.34328 1.13283,0.75313 1.59375,0.9375 0.46092,0.18437 1.04817,0.58292 1.3125,0.875 0.26431,0.29209 1.13975,0.87868 1.9375,1.28125 0.79777,0.40242 1.66119,0.97604 1.9375,1.28125 0.27632,0.30531 0.65977,0.53125 0.84375,0.53125 0.18398,0 0.87866,0.40927 1.53125,0.90625 0.65259,0.49709 1.57986,1.10067 2.0625,1.34375 0.48264,0.24312 1.16862,0.72494 1.53125,1.0625 0.36262,0.33757 1.08608,0.78829 1.59375,1 0.50767,0.21152 1.36951,0.7683 1.9375,1.21875 0.56801,0.45048 1.3358,0.87945 1.6875,0.96875 0.88946,0.22275 2.54109,-0.32508 3.40625,-1.125 0.39913,-0.36908 1.14707,-0.85043 1.65625,-1.0625 0.50918,-0.21223 1.23114,-0.6594 1.59375,-1 0.36263,-0.34072 1.12699,-0.80124 1.6875,-1.03125 0.5605,-0.23 1.40351,-0.75777 1.875,-1.15625 0.47149,-0.39842 1.45771,-1.06595 2.21875,-1.5 3.04865,-1.73915 3.703,-2.15446 4.28125,-2.6875 0.33153,-0.30571 1.06451,-0.73821 1.625,-0.96875 0.5605,-0.23056 1.42468,-0.76571 1.90625,-1.1875 0.48157,-0.42195 1.13288,-0.86308 1.46875,-0.96875 0.33589,-0.10494 0.95674,-0.46365 1.375,-0.8125 0.41825,-0.34896 1.24666,-0.88909 1.84375,-1.1875 0.59709,-0.29842 1.38738,-0.81814 1.75,-1.15625 0.36263,-0.33818 1.09858,-0.78057 1.625,-1 0.52642,-0.21938 1.31033,-0.72458 1.75,-1.09375 0.43969,-0.36906 1.20018,-0.82806 1.6875,-1.03125 0.48732,-0.2031 1.11909,-0.61918 1.40625,-0.9375 0.28714,-0.31827 1.16369,-0.87648 1.9375,-1.21875 0.72403,-0.32035 1.60702,-0.83961 2.09375,-1.21875 7.24202,2.75386 14.74018,4.97697 22.4375,6.625 0.31165,0.4188 0.59522,0.92515 0.84375,1.59375 0.30043,0.80827 0.83663,1.86487 1.1875,2.375 0.35087,0.51015 0.78951,1.52094 1,2.21875 0.2105,0.69787 0.69876,1.70159 1.0625,2.25 0.36373,0.54839 0.83263,1.64863 1.0625,2.4375 0.22987,0.78886 0.73145,1.82251 1.09375,2.3125 0.3623,0.48998 0.78602,1.38599 0.9375,1.96875 0.1515,0.58254 0.62997,1.54413 1.0625,2.15625 0.43252,0.6122 0.96503,1.72137 1.1875,2.46875 0.22246,0.7474 0.68385,1.78874 1.03125,2.3125 0.3474,0.52374 0.78903,1.5193 1,2.21875 0.21096,0.69947 0.68289,1.7214 1.03125,2.25 0.34836,0.52856 0.82272,1.54268 1.0625,2.25 0.23978,0.70727 0.74022,1.66272 1.09375,2.125 0.35353,0.46257 0.82654,1.50278 1.0625,2.3125 0.23597,0.80997 0.656,1.76803 0.9375,2.125 0.28151,0.35718 0.74362,1.17431 1.03125,1.84375 0.30343,0.7063 0.77677,1.32711 1.125,1.46875 0.34699,0.14075 5.92223,0.2186 13.21875,0.1875 l 12.625,-0.0312 1.15625,-1.3125 c 0.69173,-0.78905 1.2956,-1.86711 1.53125,-2.65625 0.21609,-0.72339 0.7064,-1.73118 1.0625,-2.25 0.35611,-0.51885 0.83047,-1.57868 1.0625,-2.375 0.23202,-0.79635 0.7068,-1.86267 1.0625,-2.34375 0.35568,-0.48098 0.82855,-1.53498 1.0625,-2.34375 0.23395,-0.80852 0.70353,-1.81602 1.03125,-2.25 0.3277,-0.43425 0.75156,-1.26478 0.9375,-1.84375 0.18594,-0.57871 0.73939,-1.70393 1.21875,-2.5 0.47937,-0.7958 0.97369,-1.91725 1.125,-2.5 0.15132,-0.58269 0.57522,-1.47889 0.9375,-1.96875 0.36231,-0.49001 0.86388,-1.52352 1.09375,-2.3125 0.22988,-0.7889 0.71023,-1.87524 1.0625,-2.40625 0.35228,-0.53101 0.8086,-1.56445 1.03125,-2.3125 0.22265,-0.74807 0.72361,-1.71749 1.09375,-2.15625 0.37015,-0.43897 0.79183,-1.26785 0.9375,-1.8125 0.14569,-0.5449 0.71014,-1.76519 1.28125,-2.71875 0.16357,-0.27315 0.27731,-0.45674 0.40625,-0.65625 7.77073,-1.62886 15.34691,-3.83834 22.65625,-6.59375 0.0308,0.0247 0.0628,0.0365 0.0937,0.0625 0.42645,0.35796 1.18437,0.82165 1.6875,1.03125 0.50312,0.20983 1.2711,0.65226 1.6875,1 0.41639,0.34778 1.35942,0.94261 2.09375,1.3125 0.73436,0.36987 1.49059,0.85715 1.6875,1.09375 0.19691,0.2367 0.76204,0.62732 1.28125,0.84375 0.51922,0.21638 1.26239,0.65508 1.625,1 0.36263,0.34484 1.18898,0.87728 1.84375,1.15625 0.65478,0.27892 1.35609,0.68927 1.5625,0.9375 0.2064,0.24797 0.9476,0.75121 1.625,1.09375 0.67743,0.34255 1.54918,0.90011 1.96875,1.25 0.41958,0.35009 1.03912,0.73808 1.375,0.84375 0.33589,0.10491 1.01841,0.51578 1.5,0.9375 0.48156,0.42186 1.2745,0.94495 1.78125,1.15625 0.50672,0.2113 1.2711,0.65327 1.6875,1 0.41639,0.3468 1.17984,0.8672 1.6875,1.125 0.50767,0.25776 1.27111,0.74701 1.6875,1.09375 0.4164,0.34677 1.16108,0.81182 1.6875,1.03125 0.52642,0.21938 1.26238,0.68487 1.625,1.03125 0.36263,0.34655 1.09859,0.81183 1.625,1.03125 0.52642,0.21943 1.30237,0.65427 1.71875,1 1.30338,1.08155 1.92541,1.31383 3.1875,1.125 0.79421,-0.11873 1.47163,-0.4463 2.125,-1.03125 0.53262,-0.47665 1.25787,-0.95683 1.59375,-1.0625 0.33587,-0.10437 0.98717,-0.54681 1.46875,-0.96875 0.48156,-0.42173 1.29161,-0.92104 1.78125,-1.125 0.48962,-0.20431 1.28159,-0.7409 1.75,-1.1875 0.46844,-0.44664 1.01096,-0.8125 1.21875,-0.8125 0.20779,0 0.93697,-0.44477 1.625,-0.96875 0.68803,-0.52399 1.61235,-1.09359 2.0625,-1.28125 0.45014,-0.18763 1.05662,-0.61501 1.34375,-0.9375 0.28715,-0.32239 1.00301,-0.79864 1.59375,-1.0625 0.59072,-0.26387 1.50246,-0.83078 2.03125,-1.25 0.52879,-0.41925 1.3291,-0.88846 1.75,-1.0625 0.94469,-0.39028 1.34375,-1.24255 1.34375,-2.8125 0,-2.5953 -0.84776,-10.31188 -1.46875,-13.34375 -0.35998,-1.75758 -0.82157,-5.22739 -1.03125,-7.6875 -0.37298,-4.37616 -0.51075,-5.1775 -1.3125,-8.90625 -0.36317,-1.68903 -0.92812,-7.53649 -1.09375,-10.65625 5.76496,-5.59706 11.1001,-11.63969 15.9375,-18.0625 L 343,291.0625 c 19.8719,-0.12204 21.52047,-0.16199 22.3125,-0.59375 0.97734,-0.53293 1.43062,-1.19018 1.90625,-2.6875 0.18387,-0.57877 0.65007,-1.4713 1,-2 0.34991,-0.5286 0.78902,-1.55065 1,-2.25 0.21094,-0.69938 0.68082,-1.69051 1.03125,-2.21875 0.35041,-0.52838 0.83261,-1.61726 1.0625,-2.40625 0.22986,-0.78889 0.70682,-1.83155 1.0625,-2.3125 0.3557,-0.48095 0.80545,-1.50619 1.03125,-2.28125 0.22583,-0.775 0.76523,-1.96075 1.1875,-2.625 0.42227,-0.6644 0.8394,-1.57649 0.9375,-2.03125 0.0981,-0.45471 0.37916,-1.17493 0.59375,-1.59375 0.56396,-1.10055 0.48115,-2.34685 -0.21875,-3.34375 -0.53473,-0.76147 -2.08486,-2.58236 -5.8125,-6.8125 -2.96918,-3.36921 -5.88376,-6.80763 -8,-9.4375 -0.72524,-0.90131 -1.79481,-2.17493 -2.375,-2.8125 -0.58019,-0.63758 -1.49687,-1.66648 -2.03125,-2.28125 -0.53436,-0.61462 -1.40201,-1.57738 -1.90625,-2.15625 -1.4173,-1.62686 -3.0841,-3.61818 -4.53125,-5.40625 -0.33588,-0.41501 -0.61006,-0.75019 -0.96875,-1.1875 1.93391,-8.18956 3.1855,-16.62401 3.71875,-25.25 0.42781,-0.243 0.84806,-0.51649 1.03125,-0.71875 0.25812,-0.28511 0.99443,-0.79016 1.65625,-1.125 0.66184,-0.33484 1.36375,-0.82358 1.5625,-1.0625 0.19876,-0.23912 0.84761,-0.67012 1.4375,-0.96875 0.5899,-0.29863 1.40717,-0.81814 1.8125,-1.15625 0.40536,-0.3381 1.23377,-0.8513 1.84375,-1.125 0.61,-0.27378 1.39835,-0.80611 1.75,-1.1875 0.35167,-0.38154 0.78758,-0.6875 0.96875,-0.6875 0.18117,0 0.87529,-0.40666 1.53125,-0.90625 0.65597,-0.49971 1.62601,-1.15155 2.1875,-1.4375 0.5615,-0.28561 1.20809,-0.6994 1.40625,-0.9375 0.19816,-0.23837 0.81349,-0.68284 1.375,-0.96875 0.56149,-0.28566 1.56278,-0.90682 2.21875,-1.40625 0.65596,-0.49958 1.32376,-0.90625 1.5,-0.90625 0.17624,0 0.77426,-0.43106 1.3125,-0.9375 0.53821,-0.50662 1.13761,-0.90625 1.34375,-0.90625 0.20612,0 0.90653,-0.40683 1.5625,-0.90625 0.65597,-0.49966 1.65726,-1.15173 2.21875,-1.4375 0.5615,-0.28577 1.17624,-0.72996 1.375,-0.96875 0.19875,-0.23898 0.94122,-0.71667 1.625,-1.0625 1.33153,-0.67321 2.24651,-1.64864 2.5,-2.65625 0.23245,-0.92402 -0.3601,-6.10928 -1.09375,-9.5 -0.35328,-1.63288 -0.81553,-4.8719 -1.03125,-7.21875 -0.49077,-5.33889 -0.75738,-6.69705 -1.59375,-8.34375 -0.70225,-1.38261 -0.96024,-1.53316 -3.6875,-2 -0.57216,-0.0977 -1.5753,-0.44009 -2.25,-0.78125 -0.67468,-0.34104 -2.27697,-0.82212 -3.5625,-1.0625 -1.28555,-0.24029 -2.90382,-0.71915 -3.5625,-1.0625 -0.65865,-0.34353 -2.18425,-0.80024 -3.40625,-1.03125 -1.22195,-0.23119 -2.79823,-0.70762 -3.5,-1.0625 -0.7018,-0.35473 -2.25368,-0.83845 -3.4375,-1.0625 -1.18386,-0.22403 -2.70042,-0.69014 -3.375,-1.03125 -0.67459,-0.3411 -2.22345,-0.80155 -3.4375,-1.03125 -1.21401,-0.22984 -2.84646,-0.70668 -3.625,-1.0625 -0.77853,-0.3554 -2.36299,-0.84129 -3.53125,-1.0625 -0.71496,-0.13529 -1.43034,-0.32659 -2.09375,-0.5625 -2.96818,-8.05871 -6.60943,-15.78712 -10.84375,-23.15625 0.021,-0.0326 0.0407,-0.0613 0.0625,-0.0937 0.43756,-0.65096 1.00076,-1.79505 1.21875,-2.53125 0.218,-0.73619 0.67556,-1.73768 1.03125,-2.21875 0.35569,-0.48095 0.8367,-1.50622 1.0625,-2.28125 0.22582,-0.77518 0.74122,-1.94064 1.15625,-2.59375 0.41499,-0.65267 0.8393,-1.61756 0.9375,-2.15625 0.0983,-0.53825 0.52889,-1.62197 0.96875,-2.40625 0.43986,-0.78431 0.97102,-2.02277 1.1875,-2.75 0.2165,-0.72738 0.70942,-1.73572 1.0625,-2.25 0.35303,-0.51429 0.81467,-1.54505 1.03125,-2.28125 0.21654,-0.73621 0.67556,-1.73775 1.03125,-2.21875 0.35568,-0.48121 0.83264,-1.523551 1.0625,-2.3125 0.22989,-0.788715 0.72998,-1.857939 1.09375,-2.40625 0.36372,-0.548532 0.82027,-1.581872 1.03125,-2.28125 0.21095,-0.699369 0.65261,-1.695004 1,-2.21875 0.77023,-1.161205 1.46875,-3.422102 1.46875,-4.75 0,-0.802073 -0.24437,-1.260027 -1.375,-2.59375 -3.31959,-3.915894 -5.51978,-6.503883 -6.1875,-7.21875 -0.39506,-0.42299 -1.35093,-1.495578 -2.125,-2.375 -0.77408,-0.879421 -1.84366,-2.091486 -2.375,-2.6875 -0.53135,-0.596005 -1.20989,-1.365668 -1.5,-1.71875 -3.53107,-4.297476 -4.11398,-4.523016 -7.28125,-2.9375 -0.66342,0.332126 -2.24864,0.776838 -3.53125,1 -1.28267,0.223153 -2.95015,0.684963 -3.6875,1.03125 -0.73731,0.346269 -2.32524,0.837015 -3.53125,1.0625 -1.20598,0.225458 -2.97233,0.708513 -3.9375,1.09375 -0.96515,0.38523 -2.68896,0.86137 -3.84375,1.0625 -1.15478,0.201133 -2.76814,0.668409 -3.5625,1.03125 -0.79439,0.362838 -2.28361,0.803145 -3.3125,0.96875 -1.02885,0.165629 -2.70342,0.631534 -3.71875,1.03125 -1.01534,0.399742 -2.79735,0.904604 -3.96875,1.125 -1.17144,0.220386 -2.74417,0.640276 -3.5,0.9375 -0.14112,0.0555 -0.2454,0.07847 -0.375,0.125 C 266.86181,58.585726 234.67817,47 200.03125,47 c -4.06384,0 -8.10321,0.156153 -12.09375,0.46875 -0.88844,-0.79481 -1.97524,-1.982447 -3.34375,-3.59375 -0.58019,-0.68311 -1.54481,-1.751636 -2.125,-2.375 -1.74682,-1.876815 -3.10577,-3.389039 -4.21875,-4.6875 -0.5802,-0.676878 -1.66938,-1.903079 -2.4375,-2.71875 -0.76812,-0.81568 -1.83933,-2.019999 -2.375,-2.6875 -1.13242,-1.41111 -8.379,-9.672159 -9.84375,-11.21875 -0.54821,-0.578857 -1.71779,-1.816437 -2.59375,-2.75 L 159.40625,15.75 z m 40.625,120.21875 c 36.87104,0 65.28125,28.43036 65.28125,64.0625 0,35.63214 -28.41021,64.03125 -65.28125,64.03125 -36.87104,0 -65.3125,-28.39911 -65.3125,-64.03125 0,-35.63214 28.44146,-64.0625 65.3125,-64.0625 z"
                id="path5007"
                style="fill:#020202" />
        </clipPath>
        <filter
            color-interpolation-filters="sRGB"
            id="filter5326">
            <feGaussianBlur
                id="feGaussianBlur5328"
                stdDeviation="7.1492869" />
        </filter>
        <linearGradient
            x1="259.80084"
            y1="359.31183"
            x2="139.09666"
            y2="43.995682"
            id="linearGradient5284"
            xlink:href="#linearGradient3974"
            gradientUnits="userSpaceOnUse"
            gradientTransform="matrix(1.0471468,0.1487928,-0.1487928,1.0471468,21.271543,-39.30774)" />
        <linearGradient
            id="linearGradient3070">
            <stop
                id="stop3072"
                style="stop-color:#5d1f0e;stop-opacity:1"
                offset="0" />
            <stop
                id="stop3074"
                style="stop-color:#d09737;stop-opacity:1"
                offset="1" />
        </linearGradient>
        <clipPath
            id="clipPath3076">
            <path
                d="m 159.40625,15.75 -1.96875,0.28125 c -1.09991,0.158073 -2.53983,0.567047 -3.25,0.9375 -0.70022,0.365313 -2.32551,0.882429 -3.625,1.125 -1.29949,0.242571 -3.11969,0.77933 -4.0625,1.1875 -0.94281,0.408129 -2.38974,0.80408 -3.1875,0.90625 -0.79777,0.102221 -2.26592,0.525147 -3.28125,0.9375 -1.01533,0.412313 -2.67813,0.927433 -3.6875,1.15625 -2.85445,0.647088 -3.1122,1.059155 -3.5625,5.71875 -0.14893,1.541107 -0.54599,4.033405 -0.90625,5.53125 -0.36026,1.497861 -0.8582,4.674766 -1.09375,7.0625 -0.23556,2.387751 -0.71873,5.487259 -1.0625,6.90625 -0.3438,1.418972 -0.79641,4.552862 -1.03125,6.96875 -0.23484,2.415875 -0.66708,5.289656 -0.9375,6.375 -0.27044,1.085345 -0.61465,2.746866 -0.78125,3.6875 -0.0658,0.371577 -0.13691,0.693092 -0.21875,1 C 119.83434,69.268628 113.23958,73.545207 107,78.25 106.73193,78.16775 106.46879,78.078961 106.15625,77.9375 105.51399,77.646802 103.90377,77.225558 102.59375,77 101.28373,76.774458 99.67272,76.308869 99,75.96875 c -0.672739,-0.340112 -2.23579,-0.785284 -3.46875,-1 C 94.29828,74.754032 92.60607,74.291859 91.75,73.9375 90.2688,73.324385 88.729498,72.911065 86.5625,72.5625 86.023944,72.47585 84.947514,72.111411 84.15625,71.75 c -0.791267,-0.361412 -2.453758,-0.847641 -3.6875,-1.0625 -1.233743,-0.214848 -2.883713,-0.681349 -3.65625,-1.03125 -0.772535,-0.34989 -2.440412,-0.826059 -3.71875,-1.0625 -1.278338,-0.236468 -3.071372,-0.76397 -3.96875,-1.1875 -2.3986,-1.132128 -2.875171,-1.045769 -4.625,0.75 -2.38005,2.442488 -6.129806,6.69636 -10.78125,12.21875 -0.769841,0.91399 -1.83941,2.178052 -2.375,2.8125 -0.535591,0.634449 -1.364286,1.517862 -1.8125,1.96875 -0.448224,0.450892 -0.87708,1.026606 -0.96875,1.28125 -0.269736,0.74909 0.285954,2.986005 1,4.0625 0.363707,0.548326 0.820294,1.581886 1.03125,2.28125 0.210968,0.699363 0.698762,1.701626 1.0625,2.25 0.363737,0.548332 0.832617,1.648499 1.0625,2.4375 0.229871,0.788864 0.706811,1.831563 1.0625,2.3125 0.355688,0.48095 0.832618,1.5235 1.0625,2.3125 0.229872,0.789 0.712074,1.87799 1.0625,2.40625 0.350435,0.52811 0.820292,1.51927 1.03125,2.21875 0.210968,0.69926 0.667513,1.73289 1.03125,2.28125 0.363737,0.54827 0.878619,1.6857 1.125,2.53125 0.246382,0.84541 0.710798,1.96968 1.0625,2.5 0.351701,0.53021 0.800562,1.58932 1,2.34375 0.199449,0.75439 0.691916,1.81044 1.0625,2.34375 0.370584,0.53364 0.838535,1.56014 1.0625,2.3125 0.223964,0.75232 0.783874,2.00143 1.25,2.75 0.478636,0.76904 0.690186,1.20042 0.78125,1.875 -4.008308,7.06668 -7.462534,14.46165 -10.3125,22.15625 -0.683748,0.29596 -1.552685,0.50501 -3,0.78125 -1.118577,0.21352 -2.607378,0.67464 -3.3125,1.03125 -0.705122,0.35629 -2.094565,0.80023 -3.09375,0.96875 -0.999184,0.16893 -2.626001,0.64442 -3.59375,1.0625 -0.967748,0.41801 -2.660539,0.91709 -3.75,1.125 -1.089452,0.20809 -2.603768,0.67277 -3.375,1.03125 -0.771222,0.35849 -2.392093,0.84811 -3.625,1.09375 -1.232906,0.24562 -2.805105,0.72755 -3.46875,1.0625 -0.663643,0.33498 -2.184273,0.79991 -3.40625,1.03125 -1.221978,0.23131 -2.787511,0.70716 -3.46875,1.0625 -0.681229,0.35536 -2.089137,0.79788 -3.125,0.96875 -2.645682,0.43578 -2.810889,0.63016 -3.40625,3.90625 -0.276128,1.51936 -0.685166,3.4755 -0.90625,4.34375 -0.221084,0.86811 -0.595318,3.51862 -0.8125,5.90625 -0.217192,2.38777 -0.74281,6.04468 -1.1875,8.125 -0.44813,2.0963 -0.72321,4.03401 -0.625,4.34375 0.331543,1.04659 1.49213,2.31738 2.71875,2.9375 0.673063,0.3403 1.385293,0.81083 1.59375,1.0625 0.208457,0.25164 0.993511,0.74105 1.71875,1.0625 0.725239,0.32149 1.556597,0.83783 1.84375,1.15625 0.287152,0.31805 0.926889,0.75594 1.4375,0.96875 0.510611,0.21265 1.231131,0.66178 1.59375,1 0.36262,0.3382 1.128854,0.86153 1.71875,1.15625 0.589897,0.29473 1.239327,0.73066 1.4375,0.96875 0.198161,0.23841 0.847604,0.67013 1.4375,0.96875 0.589896,0.29864 1.407168,0.81813 1.8125,1.15625 0.405343,0.33812 1.233758,0.82019 1.84375,1.09375 0.610003,0.27385 1.398361,0.83742 1.75,1.21875 0.351648,0.38156 0.787572,0.6875 0.96875,0.6875 0.181177,0 0.875286,0.40682 1.53125,0.90625 0.655964,0.49974 1.626012,1.12047 2.1875,1.40625 0.561499,0.28565 1.208078,0.73062 1.40625,0.96875 0.198162,0.2383 0.813502,0.6517 1.375,0.9375 0.561487,0.28563 1.562786,0.93794 2.21875,1.4375 0.655964,0.49944 1.349444,0.90625 1.5625,0.90625 0.213057,0 0.711466,0.30612 1.09375,0.6875 0.382282,0.38127 1.226663,1.02623 1.875,1.40625 0.535741,8.31975 1.751729,16.46143 3.59375,24.375 -0.336881,0.44394 -0.729484,0.93891 -1.21875,1.5 -3.73331,4.2819 -4.167568,4.77198 -5.125,5.84375 -1.499299,1.6785 -4.877624,5.69376 -6.3125,7.5 -0.725239,0.91308 -1.742332,2.1298 -2.25,2.6875 -0.507667,0.55767 -1.388558,1.55276 -1.96875,2.21875 -0.58019,0.66611 -1.437677,1.62853 -1.90625,2.15625 -1.248403,1.40582 -3.18492,3.70482 -4.6875,5.5625 -0.725239,0.89654 -1.690156,2.01649 -2.15625,2.5 -0.466094,0.48351 -0.93515,1.2115 -1.03125,1.59375 -0.240315,0.95523 0.503028,3.81078 1.3125,5.03125 0.367209,0.55363 0.851532,1.58189 1.0625,2.28125 0.210968,0.69947 0.667501,1.73272 1.03125,2.28125 0.363737,0.54828 0.863867,1.64868 1.09375,2.4375 0.229872,0.78895 0.706811,1.83143 1.0625,2.3125 0.355679,0.48106 0.81468,1.45114 1.03125,2.1875 0.216559,0.7362 0.70639,1.76243 1.0625,2.28125 0.356101,0.51884 0.846219,1.64413 1.09375,2.5 0.341627,1.18124 0.741387,1.86375 1.6875,2.8125 l 1.25,1.25 21.15625,0 c 14.083374,0 18.725902,-0.0109 20.625,0.15625 4.716001,6.25153 9.903393,12.1551 15.5,17.625 -0.06533,0.50156 -0.152499,1.09454 -0.28125,1.71875 -0.28105,1.36281 -0.69162,4.5376 -0.90625,7.0625 -0.21464,2.52468 -0.67206,6.03701 -1.03125,7.78125 -0.35919,1.74433 -0.836192,5.30149 -1.0625,7.90625 -0.226306,2.60487 -0.596858,5.54946 -0.8125,6.5625 -0.75789,3.56017 -0.870529,4.36726 -1.15625,7.21875 -0.393981,3.93171 -0.154686,4.78817 1.5625,5.65625 0.698846,0.35326 1.61169,0.93798 2.03125,1.28125 0.41956,0.34328 1.13283,0.75313 1.59375,0.9375 0.46092,0.18437 1.04817,0.58292 1.3125,0.875 0.26431,0.29209 1.13975,0.87868 1.9375,1.28125 0.79777,0.40242 1.66119,0.97604 1.9375,1.28125 0.27632,0.30531 0.65977,0.53125 0.84375,0.53125 0.18398,0 0.87866,0.40927 1.53125,0.90625 0.65259,0.49709 1.57986,1.10067 2.0625,1.34375 0.48264,0.24312 1.16862,0.72494 1.53125,1.0625 0.36262,0.33757 1.08608,0.78829 1.59375,1 0.50767,0.21152 1.36951,0.7683 1.9375,1.21875 0.56801,0.45048 1.3358,0.87945 1.6875,0.96875 0.88946,0.22275 2.54109,-0.32508 3.40625,-1.125 0.39913,-0.36908 1.14707,-0.85043 1.65625,-1.0625 0.50918,-0.21223 1.23114,-0.6594 1.59375,-1 0.36263,-0.34072 1.12699,-0.80124 1.6875,-1.03125 0.5605,-0.23 1.40351,-0.75777 1.875,-1.15625 0.47149,-0.39842 1.45771,-1.06595 2.21875,-1.5 3.04865,-1.73915 3.703,-2.15446 4.28125,-2.6875 0.33153,-0.30571 1.06451,-0.73821 1.625,-0.96875 0.5605,-0.23056 1.42468,-0.76571 1.90625,-1.1875 0.48157,-0.42195 1.13288,-0.86308 1.46875,-0.96875 0.33589,-0.10494 0.95674,-0.46365 1.375,-0.8125 0.41825,-0.34896 1.24666,-0.88909 1.84375,-1.1875 0.59709,-0.29842 1.38738,-0.81814 1.75,-1.15625 0.36263,-0.33818 1.09858,-0.78057 1.625,-1 0.52642,-0.21938 1.31033,-0.72458 1.75,-1.09375 0.43969,-0.36906 1.20018,-0.82806 1.6875,-1.03125 0.48732,-0.2031 1.11909,-0.61918 1.40625,-0.9375 0.28714,-0.31827 1.16369,-0.87648 1.9375,-1.21875 0.72403,-0.32035 1.60702,-0.83961 2.09375,-1.21875 7.24202,2.75386 14.74018,4.97697 22.4375,6.625 0.31165,0.4188 0.59522,0.92515 0.84375,1.59375 0.30043,0.80827 0.83663,1.86487 1.1875,2.375 0.35087,0.51015 0.78951,1.52094 1,2.21875 0.2105,0.69787 0.69876,1.70159 1.0625,2.25 0.36373,0.54839 0.83263,1.64863 1.0625,2.4375 0.22987,0.78886 0.73145,1.82251 1.09375,2.3125 0.3623,0.48998 0.78602,1.38599 0.9375,1.96875 0.1515,0.58254 0.62997,1.54413 1.0625,2.15625 0.43252,0.6122 0.96503,1.72137 1.1875,2.46875 0.22246,0.7474 0.68385,1.78874 1.03125,2.3125 0.3474,0.52374 0.78903,1.5193 1,2.21875 0.21096,0.69947 0.68289,1.7214 1.03125,2.25 0.34836,0.52856 0.82272,1.54268 1.0625,2.25 0.23978,0.70727 0.74022,1.66272 1.09375,2.125 0.35353,0.46257 0.82654,1.50278 1.0625,2.3125 0.23597,0.80997 0.656,1.76803 0.9375,2.125 0.28151,0.35718 0.74362,1.17431 1.03125,1.84375 0.30343,0.7063 0.77677,1.32711 1.125,1.46875 0.34699,0.14075 5.92223,0.2186 13.21875,0.1875 l 12.625,-0.0312 1.15625,-1.3125 c 0.69173,-0.78905 1.2956,-1.86711 1.53125,-2.65625 0.21609,-0.72339 0.7064,-1.73118 1.0625,-2.25 0.35611,-0.51885 0.83047,-1.57868 1.0625,-2.375 0.23202,-0.79635 0.7068,-1.86267 1.0625,-2.34375 0.35568,-0.48098 0.82855,-1.53498 1.0625,-2.34375 0.23395,-0.80852 0.70353,-1.81602 1.03125,-2.25 0.3277,-0.43425 0.75156,-1.26478 0.9375,-1.84375 0.18594,-0.57871 0.73939,-1.70393 1.21875,-2.5 0.47937,-0.7958 0.97369,-1.91725 1.125,-2.5 0.15132,-0.58269 0.57522,-1.47889 0.9375,-1.96875 0.36231,-0.49001 0.86388,-1.52352 1.09375,-2.3125 0.22988,-0.7889 0.71023,-1.87524 1.0625,-2.40625 0.35228,-0.53101 0.8086,-1.56445 1.03125,-2.3125 0.22265,-0.74807 0.72361,-1.71749 1.09375,-2.15625 0.37015,-0.43897 0.79183,-1.26785 0.9375,-1.8125 0.14569,-0.5449 0.71014,-1.76519 1.28125,-2.71875 0.16357,-0.27315 0.27731,-0.45674 0.40625,-0.65625 7.77073,-1.62886 15.34691,-3.83834 22.65625,-6.59375 0.0308,0.0247 0.0628,0.0365 0.0937,0.0625 0.42645,0.35796 1.18437,0.82165 1.6875,1.03125 0.50312,0.20983 1.2711,0.65226 1.6875,1 0.41639,0.34778 1.35942,0.94261 2.09375,1.3125 0.73436,0.36987 1.49059,0.85715 1.6875,1.09375 0.19691,0.2367 0.76204,0.62732 1.28125,0.84375 0.51922,0.21638 1.26239,0.65508 1.625,1 0.36263,0.34484 1.18898,0.87728 1.84375,1.15625 0.65478,0.27892 1.35609,0.68927 1.5625,0.9375 0.2064,0.24797 0.9476,0.75121 1.625,1.09375 0.67743,0.34255 1.54918,0.90011 1.96875,1.25 0.41958,0.35009 1.03912,0.73808 1.375,0.84375 0.33589,0.10491 1.01841,0.51578 1.5,0.9375 0.48156,0.42186 1.2745,0.94495 1.78125,1.15625 0.50672,0.2113 1.2711,0.65327 1.6875,1 0.41639,0.3468 1.17984,0.8672 1.6875,1.125 0.50767,0.25776 1.27111,0.74701 1.6875,1.09375 0.4164,0.34677 1.16108,0.81182 1.6875,1.03125 0.52642,0.21938 1.26238,0.68487 1.625,1.03125 0.36263,0.34655 1.09859,0.81183 1.625,1.03125 0.52642,0.21943 1.30237,0.65427 1.71875,1 1.30338,1.08155 1.92541,1.31383 3.1875,1.125 0.79421,-0.11873 1.47163,-0.4463 2.125,-1.03125 0.53262,-0.47665 1.25787,-0.95683 1.59375,-1.0625 0.33587,-0.10437 0.98717,-0.54681 1.46875,-0.96875 0.48156,-0.42173 1.29161,-0.92104 1.78125,-1.125 0.48962,-0.20431 1.28159,-0.7409 1.75,-1.1875 0.46844,-0.44664 1.01096,-0.8125 1.21875,-0.8125 0.20779,0 0.93697,-0.44477 1.625,-0.96875 0.68803,-0.52399 1.61235,-1.09359 2.0625,-1.28125 0.45014,-0.18763 1.05662,-0.61501 1.34375,-0.9375 0.28715,-0.32239 1.00301,-0.79864 1.59375,-1.0625 0.59072,-0.26387 1.50246,-0.83078 2.03125,-1.25 0.52879,-0.41925 1.3291,-0.88846 1.75,-1.0625 0.94469,-0.39028 1.34375,-1.24255 1.34375,-2.8125 0,-2.5953 -0.84776,-10.31188 -1.46875,-13.34375 -0.35998,-1.75758 -0.82157,-5.22739 -1.03125,-7.6875 -0.37298,-4.37616 -0.51075,-5.1775 -1.3125,-8.90625 -0.36317,-1.68903 -0.92812,-7.53649 -1.09375,-10.65625 5.76496,-5.59706 11.1001,-11.63969 15.9375,-18.0625 L 343,291.0625 c 19.8719,-0.12204 21.52047,-0.16199 22.3125,-0.59375 0.97734,-0.53293 1.43062,-1.19018 1.90625,-2.6875 0.18387,-0.57877 0.65007,-1.4713 1,-2 0.34991,-0.5286 0.78902,-1.55065 1,-2.25 0.21094,-0.69938 0.68082,-1.69051 1.03125,-2.21875 0.35041,-0.52838 0.83261,-1.61726 1.0625,-2.40625 0.22986,-0.78889 0.70682,-1.83155 1.0625,-2.3125 0.3557,-0.48095 0.80545,-1.50619 1.03125,-2.28125 0.22583,-0.775 0.76523,-1.96075 1.1875,-2.625 0.42227,-0.6644 0.8394,-1.57649 0.9375,-2.03125 0.0981,-0.45471 0.37916,-1.17493 0.59375,-1.59375 0.56396,-1.10055 0.48115,-2.34685 -0.21875,-3.34375 -0.53473,-0.76147 -2.08486,-2.58236 -5.8125,-6.8125 -2.96918,-3.36921 -5.88376,-6.80763 -8,-9.4375 -0.72524,-0.90131 -1.79481,-2.17493 -2.375,-2.8125 -0.58019,-0.63758 -1.49687,-1.66648 -2.03125,-2.28125 -0.53436,-0.61462 -1.40201,-1.57738 -1.90625,-2.15625 -1.4173,-1.62686 -3.0841,-3.61818 -4.53125,-5.40625 -0.33588,-0.41501 -0.61006,-0.75019 -0.96875,-1.1875 1.93391,-8.18956 3.1855,-16.62401 3.71875,-25.25 0.42781,-0.243 0.84806,-0.51649 1.03125,-0.71875 0.25812,-0.28511 0.99443,-0.79016 1.65625,-1.125 0.66184,-0.33484 1.36375,-0.82358 1.5625,-1.0625 0.19876,-0.23912 0.84761,-0.67012 1.4375,-0.96875 0.5899,-0.29863 1.40717,-0.81814 1.8125,-1.15625 0.40536,-0.3381 1.23377,-0.8513 1.84375,-1.125 0.61,-0.27378 1.39835,-0.80611 1.75,-1.1875 0.35167,-0.38154 0.78758,-0.6875 0.96875,-0.6875 0.18117,0 0.87529,-0.40666 1.53125,-0.90625 0.65597,-0.49971 1.62601,-1.15155 2.1875,-1.4375 0.5615,-0.28561 1.20809,-0.6994 1.40625,-0.9375 0.19816,-0.23837 0.81349,-0.68284 1.375,-0.96875 0.56149,-0.28566 1.56278,-0.90682 2.21875,-1.40625 0.65596,-0.49958 1.32376,-0.90625 1.5,-0.90625 0.17624,0 0.77426,-0.43106 1.3125,-0.9375 0.53821,-0.50662 1.13761,-0.90625 1.34375,-0.90625 0.20612,0 0.90653,-0.40683 1.5625,-0.90625 0.65597,-0.49966 1.65726,-1.15173 2.21875,-1.4375 0.5615,-0.28577 1.17624,-0.72996 1.375,-0.96875 0.19875,-0.23898 0.94122,-0.71667 1.625,-1.0625 1.33153,-0.67321 2.24651,-1.64864 2.5,-2.65625 0.23245,-0.92402 -0.3601,-6.10928 -1.09375,-9.5 -0.35328,-1.63288 -0.81553,-4.8719 -1.03125,-7.21875 -0.49077,-5.33889 -0.75738,-6.69705 -1.59375,-8.34375 -0.70225,-1.38261 -0.96024,-1.53316 -3.6875,-2 -0.57216,-0.0977 -1.5753,-0.44009 -2.25,-0.78125 -0.67468,-0.34104 -2.27697,-0.82212 -3.5625,-1.0625 -1.28555,-0.24029 -2.90382,-0.71915 -3.5625,-1.0625 -0.65865,-0.34353 -2.18425,-0.80024 -3.40625,-1.03125 -1.22195,-0.23119 -2.79823,-0.70762 -3.5,-1.0625 -0.7018,-0.35473 -2.25368,-0.83845 -3.4375,-1.0625 -1.18386,-0.22403 -2.70042,-0.69014 -3.375,-1.03125 -0.67459,-0.3411 -2.22345,-0.80155 -3.4375,-1.03125 -1.21401,-0.22984 -2.84646,-0.70668 -3.625,-1.0625 -0.77853,-0.3554 -2.36299,-0.84129 -3.53125,-1.0625 -0.71496,-0.13529 -1.43034,-0.32659 -2.09375,-0.5625 -2.96818,-8.05871 -6.60943,-15.78712 -10.84375,-23.15625 0.021,-0.0326 0.0407,-0.0613 0.0625,-0.0937 0.43756,-0.65096 1.00076,-1.79505 1.21875,-2.53125 0.218,-0.73619 0.67556,-1.73768 1.03125,-2.21875 0.35569,-0.48095 0.8367,-1.50622 1.0625,-2.28125 0.22582,-0.77518 0.74122,-1.94064 1.15625,-2.59375 0.41499,-0.65267 0.8393,-1.61756 0.9375,-2.15625 0.0983,-0.53825 0.52889,-1.62197 0.96875,-2.40625 0.43986,-0.78431 0.97102,-2.02277 1.1875,-2.75 0.2165,-0.72738 0.70942,-1.73572 1.0625,-2.25 0.35303,-0.51429 0.81467,-1.54505 1.03125,-2.28125 0.21654,-0.73621 0.67556,-1.73775 1.03125,-2.21875 0.35568,-0.48121 0.83264,-1.523551 1.0625,-2.3125 0.22989,-0.788715 0.72998,-1.857939 1.09375,-2.40625 0.36372,-0.548532 0.82027,-1.581872 1.03125,-2.28125 0.21095,-0.699369 0.65261,-1.695004 1,-2.21875 0.77023,-1.161205 1.46875,-3.422102 1.46875,-4.75 0,-0.802073 -0.24437,-1.260027 -1.375,-2.59375 -3.31959,-3.915894 -5.51978,-6.503883 -6.1875,-7.21875 -0.39506,-0.42299 -1.35093,-1.495578 -2.125,-2.375 -0.77408,-0.879421 -1.84366,-2.091486 -2.375,-2.6875 -0.53135,-0.596005 -1.20989,-1.365668 -1.5,-1.71875 -3.53107,-4.297476 -4.11398,-4.523016 -7.28125,-2.9375 -0.66342,0.332126 -2.24864,0.776838 -3.53125,1 -1.28267,0.223153 -2.95015,0.684963 -3.6875,1.03125 -0.73731,0.346269 -2.32524,0.837015 -3.53125,1.0625 -1.20598,0.225458 -2.97233,0.708513 -3.9375,1.09375 -0.96515,0.38523 -2.68896,0.86137 -3.84375,1.0625 -1.15478,0.201133 -2.76814,0.668409 -3.5625,1.03125 -0.79439,0.362838 -2.28361,0.803145 -3.3125,0.96875 -1.02885,0.165629 -2.70342,0.631534 -3.71875,1.03125 -1.01534,0.399742 -2.79735,0.904604 -3.96875,1.125 -1.17144,0.220386 -2.74417,0.640276 -3.5,0.9375 -0.14112,0.0555 -0.2454,0.07847 -0.375,0.125 C 266.86181,58.585726 234.67817,47 200.03125,47 c -4.06384,0 -8.10321,0.156153 -12.09375,0.46875 -0.88844,-0.79481 -1.97524,-1.982447 -3.34375,-3.59375 -0.58019,-0.68311 -1.54481,-1.751636 -2.125,-2.375 -1.74682,-1.876815 -3.10577,-3.389039 -4.21875,-4.6875 -0.5802,-0.676878 -1.66938,-1.903079 -2.4375,-2.71875 -0.76812,-0.81568 -1.83933,-2.019999 -2.375,-2.6875 -1.13242,-1.41111 -8.379,-9.672159 -9.84375,-11.21875 -0.54821,-0.578857 -1.71779,-1.816437 -2.59375,-2.75 L 159.40625,15.75 z m 40.625,120.21875 c 36.87104,0 65.28125,28.43036 65.28125,64.0625 0,35.63214 -28.41021,64.03125 -65.28125,64.03125 -36.87104,0 -65.3125,-28.39911 -65.3125,-64.03125 0,-35.63214 28.44146,-64.0625 65.3125,-64.0625 z"
                id="path3078"
                style="fill:#020202" />
        </clipPath>
        <radialGradient
            cx="129.23863"
            cy="56.078693"
            r="168.96875"
            fx="129.23863"
            fy="56.078693"
            id="radialGradient5286"
            xlink:href="#linearGradient3988"
            gradientUnits="userSpaceOnUse"
            gradientTransform="matrix(1.7947973,0.35681,-0.2149765,1.0813575,-155.22965,-91.717689)" />
        <linearGradient
            id="linearGradient3081">
            <stop
                id="stop3083"
                style="stop-color:#ffffff;stop-opacity:0"
                offset="0" />
            <stop
                id="stop3085"
                style="stop-color:#ffffff;stop-opacity:0.08035714"
                offset="0.46566358" />
            <stop
                id="stop3087"
                style="stop-color:#ffffff;stop-opacity:0.21428572"
                offset="0.9861111" />
            <stop
                id="stop3089"
                style="stop-color:#ffffff;stop-opacity:0"
                offset="1" />
        </linearGradient>
        <clipPath
            id="clipPath3091">
            <path
                d="m 159.40625,15.75 -1.96875,0.28125 c -1.09991,0.158073 -2.53983,0.567047 -3.25,0.9375 -0.70022,0.365313 -2.32551,0.882429 -3.625,1.125 -1.29949,0.242571 -3.11969,0.77933 -4.0625,1.1875 -0.94281,0.408129 -2.38974,0.80408 -3.1875,0.90625 -0.79777,0.102221 -2.26592,0.525147 -3.28125,0.9375 -1.01533,0.412313 -2.67813,0.927433 -3.6875,1.15625 -2.85445,0.647088 -3.1122,1.059155 -3.5625,5.71875 -0.14893,1.541107 -0.54599,4.033405 -0.90625,5.53125 -0.36026,1.497861 -0.8582,4.674766 -1.09375,7.0625 -0.23556,2.387751 -0.71873,5.487259 -1.0625,6.90625 -0.3438,1.418972 -0.79641,4.552862 -1.03125,6.96875 -0.23484,2.415875 -0.66708,5.289656 -0.9375,6.375 -0.27044,1.085345 -0.61465,2.746866 -0.78125,3.6875 -0.0658,0.371577 -0.13691,0.693092 -0.21875,1 C 119.83434,69.268628 113.23958,73.545207 107,78.25 106.73193,78.16775 106.46879,78.078961 106.15625,77.9375 105.51399,77.646802 103.90377,77.225558 102.59375,77 101.28373,76.774458 99.67272,76.308869 99,75.96875 c -0.672739,-0.340112 -2.23579,-0.785284 -3.46875,-1 C 94.29828,74.754032 92.60607,74.291859 91.75,73.9375 90.2688,73.324385 88.729498,72.911065 86.5625,72.5625 86.023944,72.47585 84.947514,72.111411 84.15625,71.75 c -0.791267,-0.361412 -2.453758,-0.847641 -3.6875,-1.0625 -1.233743,-0.214848 -2.883713,-0.681349 -3.65625,-1.03125 -0.772535,-0.34989 -2.440412,-0.826059 -3.71875,-1.0625 -1.278338,-0.236468 -3.071372,-0.76397 -3.96875,-1.1875 -2.3986,-1.132128 -2.875171,-1.045769 -4.625,0.75 -2.38005,2.442488 -6.129806,6.69636 -10.78125,12.21875 -0.769841,0.91399 -1.83941,2.178052 -2.375,2.8125 -0.535591,0.634449 -1.364286,1.517862 -1.8125,1.96875 -0.448224,0.450892 -0.87708,1.026606 -0.96875,1.28125 -0.269736,0.74909 0.285954,2.986005 1,4.0625 0.363707,0.548326 0.820294,1.581886 1.03125,2.28125 0.210968,0.699363 0.698762,1.701626 1.0625,2.25 0.363737,0.548332 0.832617,1.648499 1.0625,2.4375 0.229871,0.788864 0.706811,1.831563 1.0625,2.3125 0.355688,0.48095 0.832618,1.5235 1.0625,2.3125 0.229872,0.789 0.712074,1.87799 1.0625,2.40625 0.350435,0.52811 0.820292,1.51927 1.03125,2.21875 0.210968,0.69926 0.667513,1.73289 1.03125,2.28125 0.363737,0.54827 0.878619,1.6857 1.125,2.53125 0.246382,0.84541 0.710798,1.96968 1.0625,2.5 0.351701,0.53021 0.800562,1.58932 1,2.34375 0.199449,0.75439 0.691916,1.81044 1.0625,2.34375 0.370584,0.53364 0.838535,1.56014 1.0625,2.3125 0.223964,0.75232 0.783874,2.00143 1.25,2.75 0.478636,0.76904 0.690186,1.20042 0.78125,1.875 -4.008308,7.06668 -7.462534,14.46165 -10.3125,22.15625 -0.683748,0.29596 -1.552685,0.50501 -3,0.78125 -1.118577,0.21352 -2.607378,0.67464 -3.3125,1.03125 -0.705122,0.35629 -2.094565,0.80023 -3.09375,0.96875 -0.999184,0.16893 -2.626001,0.64442 -3.59375,1.0625 -0.967748,0.41801 -2.660539,0.91709 -3.75,1.125 -1.089452,0.20809 -2.603768,0.67277 -3.375,1.03125 -0.771222,0.35849 -2.392093,0.84811 -3.625,1.09375 -1.232906,0.24562 -2.805105,0.72755 -3.46875,1.0625 -0.663643,0.33498 -2.184273,0.79991 -3.40625,1.03125 -1.221978,0.23131 -2.787511,0.70716 -3.46875,1.0625 -0.681229,0.35536 -2.089137,0.79788 -3.125,0.96875 -2.645682,0.43578 -2.810889,0.63016 -3.40625,3.90625 -0.276128,1.51936 -0.685166,3.4755 -0.90625,4.34375 -0.221084,0.86811 -0.595318,3.51862 -0.8125,5.90625 -0.217192,2.38777 -0.74281,6.04468 -1.1875,8.125 -0.44813,2.0963 -0.72321,4.03401 -0.625,4.34375 0.331543,1.04659 1.49213,2.31738 2.71875,2.9375 0.673063,0.3403 1.385293,0.81083 1.59375,1.0625 0.208457,0.25164 0.993511,0.74105 1.71875,1.0625 0.725239,0.32149 1.556597,0.83783 1.84375,1.15625 0.287152,0.31805 0.926889,0.75594 1.4375,0.96875 0.510611,0.21265 1.231131,0.66178 1.59375,1 0.36262,0.3382 1.128854,0.86153 1.71875,1.15625 0.589897,0.29473 1.239327,0.73066 1.4375,0.96875 0.198161,0.23841 0.847604,0.67013 1.4375,0.96875 0.589896,0.29864 1.407168,0.81813 1.8125,1.15625 0.405343,0.33812 1.233758,0.82019 1.84375,1.09375 0.610003,0.27385 1.398361,0.83742 1.75,1.21875 0.351648,0.38156 0.787572,0.6875 0.96875,0.6875 0.181177,0 0.875286,0.40682 1.53125,0.90625 0.655964,0.49974 1.626012,1.12047 2.1875,1.40625 0.561499,0.28565 1.208078,0.73062 1.40625,0.96875 0.198162,0.2383 0.813502,0.6517 1.375,0.9375 0.561487,0.28563 1.562786,0.93794 2.21875,1.4375 0.655964,0.49944 1.349444,0.90625 1.5625,0.90625 0.213057,0 0.711466,0.30612 1.09375,0.6875 0.382282,0.38127 1.226663,1.02623 1.875,1.40625 0.535741,8.31975 1.751729,16.46143 3.59375,24.375 -0.336881,0.44394 -0.729484,0.93891 -1.21875,1.5 -3.73331,4.2819 -4.167568,4.77198 -5.125,5.84375 -1.499299,1.6785 -4.877624,5.69376 -6.3125,7.5 -0.725239,0.91308 -1.742332,2.1298 -2.25,2.6875 -0.507667,0.55767 -1.388558,1.55276 -1.96875,2.21875 -0.58019,0.66611 -1.437677,1.62853 -1.90625,2.15625 -1.248403,1.40582 -3.18492,3.70482 -4.6875,5.5625 -0.725239,0.89654 -1.690156,2.01649 -2.15625,2.5 -0.466094,0.48351 -0.93515,1.2115 -1.03125,1.59375 -0.240315,0.95523 0.503028,3.81078 1.3125,5.03125 0.367209,0.55363 0.851532,1.58189 1.0625,2.28125 0.210968,0.69947 0.667501,1.73272 1.03125,2.28125 0.363737,0.54828 0.863867,1.64868 1.09375,2.4375 0.229872,0.78895 0.706811,1.83143 1.0625,2.3125 0.355679,0.48106 0.81468,1.45114 1.03125,2.1875 0.216559,0.7362 0.70639,1.76243 1.0625,2.28125 0.356101,0.51884 0.846219,1.64413 1.09375,2.5 0.341627,1.18124 0.741387,1.86375 1.6875,2.8125 l 1.25,1.25 21.15625,0 c 14.083374,0 18.725902,-0.0109 20.625,0.15625 4.716001,6.25153 9.903393,12.1551 15.5,17.625 -0.06533,0.50156 -0.152499,1.09454 -0.28125,1.71875 -0.28105,1.36281 -0.69162,4.5376 -0.90625,7.0625 -0.21464,2.52468 -0.67206,6.03701 -1.03125,7.78125 -0.35919,1.74433 -0.836192,5.30149 -1.0625,7.90625 -0.226306,2.60487 -0.596858,5.54946 -0.8125,6.5625 -0.75789,3.56017 -0.870529,4.36726 -1.15625,7.21875 -0.393981,3.93171 -0.154686,4.78817 1.5625,5.65625 0.698846,0.35326 1.61169,0.93798 2.03125,1.28125 0.41956,0.34328 1.13283,0.75313 1.59375,0.9375 0.46092,0.18437 1.04817,0.58292 1.3125,0.875 0.26431,0.29209 1.13975,0.87868 1.9375,1.28125 0.79777,0.40242 1.66119,0.97604 1.9375,1.28125 0.27632,0.30531 0.65977,0.53125 0.84375,0.53125 0.18398,0 0.87866,0.40927 1.53125,0.90625 0.65259,0.49709 1.57986,1.10067 2.0625,1.34375 0.48264,0.24312 1.16862,0.72494 1.53125,1.0625 0.36262,0.33757 1.08608,0.78829 1.59375,1 0.50767,0.21152 1.36951,0.7683 1.9375,1.21875 0.56801,0.45048 1.3358,0.87945 1.6875,0.96875 0.88946,0.22275 2.54109,-0.32508 3.40625,-1.125 0.39913,-0.36908 1.14707,-0.85043 1.65625,-1.0625 0.50918,-0.21223 1.23114,-0.6594 1.59375,-1 0.36263,-0.34072 1.12699,-0.80124 1.6875,-1.03125 0.5605,-0.23 1.40351,-0.75777 1.875,-1.15625 0.47149,-0.39842 1.45771,-1.06595 2.21875,-1.5 3.04865,-1.73915 3.703,-2.15446 4.28125,-2.6875 0.33153,-0.30571 1.06451,-0.73821 1.625,-0.96875 0.5605,-0.23056 1.42468,-0.76571 1.90625,-1.1875 0.48157,-0.42195 1.13288,-0.86308 1.46875,-0.96875 0.33589,-0.10494 0.95674,-0.46365 1.375,-0.8125 0.41825,-0.34896 1.24666,-0.88909 1.84375,-1.1875 0.59709,-0.29842 1.38738,-0.81814 1.75,-1.15625 0.36263,-0.33818 1.09858,-0.78057 1.625,-1 0.52642,-0.21938 1.31033,-0.72458 1.75,-1.09375 0.43969,-0.36906 1.20018,-0.82806 1.6875,-1.03125 0.48732,-0.2031 1.11909,-0.61918 1.40625,-0.9375 0.28714,-0.31827 1.16369,-0.87648 1.9375,-1.21875 0.72403,-0.32035 1.60702,-0.83961 2.09375,-1.21875 7.24202,2.75386 14.74018,4.97697 22.4375,6.625 0.31165,0.4188 0.59522,0.92515 0.84375,1.59375 0.30043,0.80827 0.83663,1.86487 1.1875,2.375 0.35087,0.51015 0.78951,1.52094 1,2.21875 0.2105,0.69787 0.69876,1.70159 1.0625,2.25 0.36373,0.54839 0.83263,1.64863 1.0625,2.4375 0.22987,0.78886 0.73145,1.82251 1.09375,2.3125 0.3623,0.48998 0.78602,1.38599 0.9375,1.96875 0.1515,0.58254 0.62997,1.54413 1.0625,2.15625 0.43252,0.6122 0.96503,1.72137 1.1875,2.46875 0.22246,0.7474 0.68385,1.78874 1.03125,2.3125 0.3474,0.52374 0.78903,1.5193 1,2.21875 0.21096,0.69947 0.68289,1.7214 1.03125,2.25 0.34836,0.52856 0.82272,1.54268 1.0625,2.25 0.23978,0.70727 0.74022,1.66272 1.09375,2.125 0.35353,0.46257 0.82654,1.50278 1.0625,2.3125 0.23597,0.80997 0.656,1.76803 0.9375,2.125 0.28151,0.35718 0.74362,1.17431 1.03125,1.84375 0.30343,0.7063 0.77677,1.32711 1.125,1.46875 0.34699,0.14075 5.92223,0.2186 13.21875,0.1875 l 12.625,-0.0312 1.15625,-1.3125 c 0.69173,-0.78905 1.2956,-1.86711 1.53125,-2.65625 0.21609,-0.72339 0.7064,-1.73118 1.0625,-2.25 0.35611,-0.51885 0.83047,-1.57868 1.0625,-2.375 0.23202,-0.79635 0.7068,-1.86267 1.0625,-2.34375 0.35568,-0.48098 0.82855,-1.53498 1.0625,-2.34375 0.23395,-0.80852 0.70353,-1.81602 1.03125,-2.25 0.3277,-0.43425 0.75156,-1.26478 0.9375,-1.84375 0.18594,-0.57871 0.73939,-1.70393 1.21875,-2.5 0.47937,-0.7958 0.97369,-1.91725 1.125,-2.5 0.15132,-0.58269 0.57522,-1.47889 0.9375,-1.96875 0.36231,-0.49001 0.86388,-1.52352 1.09375,-2.3125 0.22988,-0.7889 0.71023,-1.87524 1.0625,-2.40625 0.35228,-0.53101 0.8086,-1.56445 1.03125,-2.3125 0.22265,-0.74807 0.72361,-1.71749 1.09375,-2.15625 0.37015,-0.43897 0.79183,-1.26785 0.9375,-1.8125 0.14569,-0.5449 0.71014,-1.76519 1.28125,-2.71875 0.16357,-0.27315 0.27731,-0.45674 0.40625,-0.65625 7.77073,-1.62886 15.34691,-3.83834 22.65625,-6.59375 0.0308,0.0247 0.0628,0.0365 0.0937,0.0625 0.42645,0.35796 1.18437,0.82165 1.6875,1.03125 0.50312,0.20983 1.2711,0.65226 1.6875,1 0.41639,0.34778 1.35942,0.94261 2.09375,1.3125 0.73436,0.36987 1.49059,0.85715 1.6875,1.09375 0.19691,0.2367 0.76204,0.62732 1.28125,0.84375 0.51922,0.21638 1.26239,0.65508 1.625,1 0.36263,0.34484 1.18898,0.87728 1.84375,1.15625 0.65478,0.27892 1.35609,0.68927 1.5625,0.9375 0.2064,0.24797 0.9476,0.75121 1.625,1.09375 0.67743,0.34255 1.54918,0.90011 1.96875,1.25 0.41958,0.35009 1.03912,0.73808 1.375,0.84375 0.33589,0.10491 1.01841,0.51578 1.5,0.9375 0.48156,0.42186 1.2745,0.94495 1.78125,1.15625 0.50672,0.2113 1.2711,0.65327 1.6875,1 0.41639,0.3468 1.17984,0.8672 1.6875,1.125 0.50767,0.25776 1.27111,0.74701 1.6875,1.09375 0.4164,0.34677 1.16108,0.81182 1.6875,1.03125 0.52642,0.21938 1.26238,0.68487 1.625,1.03125 0.36263,0.34655 1.09859,0.81183 1.625,1.03125 0.52642,0.21943 1.30237,0.65427 1.71875,1 1.30338,1.08155 1.92541,1.31383 3.1875,1.125 0.79421,-0.11873 1.47163,-0.4463 2.125,-1.03125 0.53262,-0.47665 1.25787,-0.95683 1.59375,-1.0625 0.33587,-0.10437 0.98717,-0.54681 1.46875,-0.96875 0.48156,-0.42173 1.29161,-0.92104 1.78125,-1.125 0.48962,-0.20431 1.28159,-0.7409 1.75,-1.1875 0.46844,-0.44664 1.01096,-0.8125 1.21875,-0.8125 0.20779,0 0.93697,-0.44477 1.625,-0.96875 0.68803,-0.52399 1.61235,-1.09359 2.0625,-1.28125 0.45014,-0.18763 1.05662,-0.61501 1.34375,-0.9375 0.28715,-0.32239 1.00301,-0.79864 1.59375,-1.0625 0.59072,-0.26387 1.50246,-0.83078 2.03125,-1.25 0.52879,-0.41925 1.3291,-0.88846 1.75,-1.0625 0.94469,-0.39028 1.34375,-1.24255 1.34375,-2.8125 0,-2.5953 -0.84776,-10.31188 -1.46875,-13.34375 -0.35998,-1.75758 -0.82157,-5.22739 -1.03125,-7.6875 -0.37298,-4.37616 -0.51075,-5.1775 -1.3125,-8.90625 -0.36317,-1.68903 -0.92812,-7.53649 -1.09375,-10.65625 5.76496,-5.59706 11.1001,-11.63969 15.9375,-18.0625 L 343,291.0625 c 19.8719,-0.12204 21.52047,-0.16199 22.3125,-0.59375 0.97734,-0.53293 1.43062,-1.19018 1.90625,-2.6875 0.18387,-0.57877 0.65007,-1.4713 1,-2 0.34991,-0.5286 0.78902,-1.55065 1,-2.25 0.21094,-0.69938 0.68082,-1.69051 1.03125,-2.21875 0.35041,-0.52838 0.83261,-1.61726 1.0625,-2.40625 0.22986,-0.78889 0.70682,-1.83155 1.0625,-2.3125 0.3557,-0.48095 0.80545,-1.50619 1.03125,-2.28125 0.22583,-0.775 0.76523,-1.96075 1.1875,-2.625 0.42227,-0.6644 0.8394,-1.57649 0.9375,-2.03125 0.0981,-0.45471 0.37916,-1.17493 0.59375,-1.59375 0.56396,-1.10055 0.48115,-2.34685 -0.21875,-3.34375 -0.53473,-0.76147 -2.08486,-2.58236 -5.8125,-6.8125 -2.96918,-3.36921 -5.88376,-6.80763 -8,-9.4375 -0.72524,-0.90131 -1.79481,-2.17493 -2.375,-2.8125 -0.58019,-0.63758 -1.49687,-1.66648 -2.03125,-2.28125 -0.53436,-0.61462 -1.40201,-1.57738 -1.90625,-2.15625 -1.4173,-1.62686 -3.0841,-3.61818 -4.53125,-5.40625 -0.33588,-0.41501 -0.61006,-0.75019 -0.96875,-1.1875 1.93391,-8.18956 3.1855,-16.62401 3.71875,-25.25 0.42781,-0.243 0.84806,-0.51649 1.03125,-0.71875 0.25812,-0.28511 0.99443,-0.79016 1.65625,-1.125 0.66184,-0.33484 1.36375,-0.82358 1.5625,-1.0625 0.19876,-0.23912 0.84761,-0.67012 1.4375,-0.96875 0.5899,-0.29863 1.40717,-0.81814 1.8125,-1.15625 0.40536,-0.3381 1.23377,-0.8513 1.84375,-1.125 0.61,-0.27378 1.39835,-0.80611 1.75,-1.1875 0.35167,-0.38154 0.78758,-0.6875 0.96875,-0.6875 0.18117,0 0.87529,-0.40666 1.53125,-0.90625 0.65597,-0.49971 1.62601,-1.15155 2.1875,-1.4375 0.5615,-0.28561 1.20809,-0.6994 1.40625,-0.9375 0.19816,-0.23837 0.81349,-0.68284 1.375,-0.96875 0.56149,-0.28566 1.56278,-0.90682 2.21875,-1.40625 0.65596,-0.49958 1.32376,-0.90625 1.5,-0.90625 0.17624,0 0.77426,-0.43106 1.3125,-0.9375 0.53821,-0.50662 1.13761,-0.90625 1.34375,-0.90625 0.20612,0 0.90653,-0.40683 1.5625,-0.90625 0.65597,-0.49966 1.65726,-1.15173 2.21875,-1.4375 0.5615,-0.28577 1.17624,-0.72996 1.375,-0.96875 0.19875,-0.23898 0.94122,-0.71667 1.625,-1.0625 1.33153,-0.67321 2.24651,-1.64864 2.5,-2.65625 0.23245,-0.92402 -0.3601,-6.10928 -1.09375,-9.5 -0.35328,-1.63288 -0.81553,-4.8719 -1.03125,-7.21875 -0.49077,-5.33889 -0.75738,-6.69705 -1.59375,-8.34375 -0.70225,-1.38261 -0.96024,-1.53316 -3.6875,-2 -0.57216,-0.0977 -1.5753,-0.44009 -2.25,-0.78125 -0.67468,-0.34104 -2.27697,-0.82212 -3.5625,-1.0625 -1.28555,-0.24029 -2.90382,-0.71915 -3.5625,-1.0625 -0.65865,-0.34353 -2.18425,-0.80024 -3.40625,-1.03125 -1.22195,-0.23119 -2.79823,-0.70762 -3.5,-1.0625 -0.7018,-0.35473 -2.25368,-0.83845 -3.4375,-1.0625 -1.18386,-0.22403 -2.70042,-0.69014 -3.375,-1.03125 -0.67459,-0.3411 -2.22345,-0.80155 -3.4375,-1.03125 -1.21401,-0.22984 -2.84646,-0.70668 -3.625,-1.0625 -0.77853,-0.3554 -2.36299,-0.84129 -3.53125,-1.0625 -0.71496,-0.13529 -1.43034,-0.32659 -2.09375,-0.5625 -2.96818,-8.05871 -6.60943,-15.78712 -10.84375,-23.15625 0.021,-0.0326 0.0407,-0.0613 0.0625,-0.0937 0.43756,-0.65096 1.00076,-1.79505 1.21875,-2.53125 0.218,-0.73619 0.67556,-1.73768 1.03125,-2.21875 0.35569,-0.48095 0.8367,-1.50622 1.0625,-2.28125 0.22582,-0.77518 0.74122,-1.94064 1.15625,-2.59375 0.41499,-0.65267 0.8393,-1.61756 0.9375,-2.15625 0.0983,-0.53825 0.52889,-1.62197 0.96875,-2.40625 0.43986,-0.78431 0.97102,-2.02277 1.1875,-2.75 0.2165,-0.72738 0.70942,-1.73572 1.0625,-2.25 0.35303,-0.51429 0.81467,-1.54505 1.03125,-2.28125 0.21654,-0.73621 0.67556,-1.73775 1.03125,-2.21875 0.35568,-0.48121 0.83264,-1.523551 1.0625,-2.3125 0.22989,-0.788715 0.72998,-1.857939 1.09375,-2.40625 0.36372,-0.548532 0.82027,-1.581872 1.03125,-2.28125 0.21095,-0.699369 0.65261,-1.695004 1,-2.21875 0.77023,-1.161205 1.46875,-3.422102 1.46875,-4.75 0,-0.802073 -0.24437,-1.260027 -1.375,-2.59375 -3.31959,-3.915894 -5.51978,-6.503883 -6.1875,-7.21875 -0.39506,-0.42299 -1.35093,-1.495578 -2.125,-2.375 -0.77408,-0.879421 -1.84366,-2.091486 -2.375,-2.6875 -0.53135,-0.596005 -1.20989,-1.365668 -1.5,-1.71875 -3.53107,-4.297476 -4.11398,-4.523016 -7.28125,-2.9375 -0.66342,0.332126 -2.24864,0.776838 -3.53125,1 -1.28267,0.223153 -2.95015,0.684963 -3.6875,1.03125 -0.73731,0.346269 -2.32524,0.837015 -3.53125,1.0625 -1.20598,0.225458 -2.97233,0.708513 -3.9375,1.09375 -0.96515,0.38523 -2.68896,0.86137 -3.84375,1.0625 -1.15478,0.201133 -2.76814,0.668409 -3.5625,1.03125 -0.79439,0.362838 -2.28361,0.803145 -3.3125,0.96875 -1.02885,0.165629 -2.70342,0.631534 -3.71875,1.03125 -1.01534,0.399742 -2.79735,0.904604 -3.96875,1.125 -1.17144,0.220386 -2.74417,0.640276 -3.5,0.9375 -0.14112,0.0555 -0.2454,0.07847 -0.375,0.125 C 266.86181,58.585726 234.67817,47 200.03125,47 c -4.06384,0 -8.10321,0.156153 -12.09375,0.46875 -0.88844,-0.79481 -1.97524,-1.982447 -3.34375,-3.59375 -0.58019,-0.68311 -1.54481,-1.751636 -2.125,-2.375 -1.74682,-1.876815 -3.10577,-3.389039 -4.21875,-4.6875 -0.5802,-0.676878 -1.66938,-1.903079 -2.4375,-2.71875 -0.76812,-0.81568 -1.83933,-2.019999 -2.375,-2.6875 -1.13242,-1.41111 -8.379,-9.672159 -9.84375,-11.21875 -0.54821,-0.578857 -1.71779,-1.816437 -2.59375,-2.75 L 159.40625,15.75 z m 40.625,120.21875 c 36.87104,0 65.28125,28.43036 65.28125,64.0625 0,35.63214 -28.41021,64.03125 -65.28125,64.03125 -36.87104,0 -65.3125,-28.39911 -65.3125,-64.03125 0,-35.63214 28.44146,-64.0625 65.3125,-64.0625 z"
                id="path3093"
                style="fill:#020202" />
        </clipPath>
        <radialGradient
            cx="129.23863"
            cy="56.078693"
            r="168.96875"
            fx="129.23863"
            fy="56.078693"
            id="radialGradient3105"
            xlink:href="#linearGradient3988"
            gradientUnits="userSpaceOnUse"
            gradientTransform="matrix(1.7947973,0.35681,-0.2149765,1.0813575,-155.22965,-91.717689)" />
        <linearGradient
            x1="259.80084"
            y1="359.31183"
            x2="139.09666"
            y2="43.995682"
            id="linearGradient3214"
            xlink:href="#linearGradient3974"
            gradientUnits="userSpaceOnUse"
            gradientTransform="matrix(1.0471468,0.1487928,-0.1487928,1.0471468,21.271543,-39.30774)" />
        <radialGradient
            cx="129.23863"
            cy="56.078693"
            r="168.96875"
            fx="129.23863"
            fy="56.078693"
            id="radialGradient3216"
            xlink:href="#linearGradient3988"
            gradientUnits="userSpaceOnUse"
            gradientTransform="matrix(1.7947973,0.35681,-0.2149765,1.0813575,-155.22965,-91.717689)" />
        <linearGradient
            x1="259.80084"
            y1="359.31183"
            x2="139.09666"
            y2="43.995682"
            id="linearGradient3218"
            xlink:href="#linearGradient3974"
            gradientUnits="userSpaceOnUse"
            gradientTransform="matrix(1.0471468,0.1487928,-0.1487928,1.0471468,21.271543,-39.30774)" />
        <radialGradient
            cx="129.23863"
            cy="56.078693"
            r="168.96875"
            fx="129.23863"
            fy="56.078693"
            id="radialGradient3220"
            xlink:href="#linearGradient3988"
            gradientUnits="userSpaceOnUse"
            gradientTransform="matrix(1.7947973,0.35681,-0.2149765,1.0813575,-155.22965,-91.717689)" />
    </defs>
    <metadata
        id="metadata3112">
        <rdf:RDF>
            <cc:Work
                rdf:about="">
                <dc:format>image/svg+xml</dc:format>
                <dc:type
                    rdf:resource="http://purl.org/dc/dcmitype/StillImage" />
                <dc:title></dc:title>
            </cc:Work>
        </rdf:RDF>
    </metadata>
    <g
        transform="translate(0,-540.36218)"
        id="layer1">
        <g
            transform="matrix(1.3068529,0,0,1.3068529,-6.6020968,535.14819)"
            id="g5138"
            style="opacity:0.75;stroke:none;filter:url(#filter5326)">
            <path
                d="M 226.08368,22.94508 C 141.70316,10.955159 62.649053,60.089102 33.757336,136.66433 l 128.308204,18.23176 c 12.55447,-10.83964 29.54287,-16.4001 47.24176,-13.88521 l 16.77638,-118.0658 z m 38.07451,9.750064 -18.23176,128.308216 c 10.83964,12.55446 16.4001,29.54285 13.88521,47.24174 l 118.0658,16.77638 C 389.86736,140.64097 340.73341,61.586861 264.15819,32.695144 z M 24.007271,174.73884 c -11.98992,84.38052 37.144022,163.43463 113.719249,192.32634 l 18.23176,-128.3082 C 145.11864,226.20251 139.55817,209.21412 142.07307,191.51522 L 24.007271,174.73884 z m 215.811899,70.1254 c -12.55447,10.83965 -29.54286,16.40011 -47.24175,13.88521 l -16.77638,118.0658 C 260.18155,388.80517 339.23565,339.67123 368.12738,263.096 L 239.81917,244.86424 z"
                clip-path="url(#clipPath5009)"
                id="path5140"
                style="fill:url(#linearGradient3214);fill-opacity:1;fill-rule:nonzero;stroke:none" />
            <path
                d="M 226.08367,22.94508 C 141.70315,10.95516 62.649057,60.089106 33.757336,136.66433 l 128.308194,18.23176 c 12.55447,-10.83964 29.54287,-16.4001 47.24176,-13.88521 l 16.77638,-118.0658 z m 38.07452,9.750067 -18.23176,128.308213 c 10.83964,12.55446 16.4001,29.54285 13.88521,47.24174 l 118.0658,16.77638 C 389.86736,140.64097 340.73341,61.586863 264.15819,32.695147 z M 24.007271,174.73884 c -11.98992,84.38052 37.144018,163.43463 113.719239,192.32634 l 18.23176,-128.3082 C 145.11863,226.20251 139.55816,209.21412 142.07306,191.51522 L 24.007271,174.73884 z m 215.811899,70.1254 c -12.55447,10.83965 -29.54286,16.40011 -47.24176,13.8852 L 175.80103,376.81525 C 260.18155,388.80517 339.23565,339.67123 368.12738,263.096 L 239.81917,244.86424 z"
                clip-path="url(#clipPath5005)"
                id="path5142"
                style="fill:url(#radialGradient3216);fill-opacity:1;fill-rule:nonzero;stroke:none" />
        </g>
        <g
            transform="matrix(1.2484791,0,0,1.2484791,5.1276765,546.81597)"
            id="layer1-6"
            style="stroke:none">
            <path
                d="M 226.08368,22.94508 C 141.70316,10.955159 62.649053,60.089102 33.757336,136.66433 l 128.308204,18.23176 c 12.55447,-10.83964 29.54287,-16.4001 47.24176,-13.88521 l 16.77638,-118.0658 z m 38.07451,9.750064 -18.23176,128.308216 c 10.83964,12.55446 16.4001,29.54285 13.88521,47.24174 l 118.0658,16.77638 C 389.86736,140.64097 340.73341,61.586861 264.15819,32.695144 z M 24.007271,174.73884 c -11.98992,84.38052 37.144022,163.43463 113.719249,192.32634 l 18.23176,-128.3082 C 145.11864,226.20251 139.55817,209.21412 142.07307,191.51522 L 24.007271,174.73884 z m 215.811899,70.1254 c -12.55447,10.83965 -29.54286,16.40011 -47.24175,13.88521 l -16.77638,118.0658 C 260.18155,388.80517 339.23565,339.67123 368.12738,263.096 L 239.81917,244.86424 z"
                clip-path="url(#clipPath5009)"
                id="path3438"
                style="fill:url(#linearGradient3218);fill-opacity:1;fill-rule:nonzero;stroke:none" />
            <path
                d="M 226.08367,22.94508 C 141.70315,10.95516 62.649057,60.089106 33.757336,136.66433 l 128.308194,18.23176 c 12.55447,-10.83964 29.54287,-16.4001 47.24176,-13.88521 l 16.77638,-118.0658 z m 38.07452,9.750067 -18.23176,128.308213 c 10.83964,12.55446 16.4001,29.54285 13.88521,47.24174 l 118.0658,16.77638 C 389.86736,140.64097 340.73341,61.586863 264.15819,32.695147 z M 24.007271,174.73884 c -11.98992,84.38052 37.144018,163.43463 113.719239,192.32634 l 18.23176,-128.3082 C 145.11863,226.20251 139.55816,209.21412 142.07306,191.51522 L 24.007271,174.73884 z m 215.811899,70.1254 c -12.55447,10.83965 -29.54286,16.40011 -47.24176,13.8852 L 175.80103,376.81525 C 260.18155,388.80517 339.23565,339.67123 368.12738,263.096 L 239.81917,244.86424 z"
                clip-path="url(#clipPath5005)"
                id="path3982"
                style="fill:url(#radialGradient3220);fill-opacity:1;fill-rule:nonzero;stroke:none" />
        </g>
        <g
            id="text5441"
            style="font-size:80.00004578px;font-style:normal;font-variant:normal;font-weight:bold;font-stretch:normal;text-align:center;line-height:100%;letter-spacing:0px;word-spacing:0px;writing-mode:lr-tb;text-anchor:middle;fill:#ffffff;fill-opacity:1;stroke:#000000;stroke-width:2.49695969;stroke-linecap:round;stroke-linejoin:round;stroke-miterlimit:4;stroke-opacity:1;font-family:TF2 Build;-inkscape-font-specification:TF2 Build Bold">
            <path
                d="m 223.91035,688.47085 1.67969,54.57035 -12.96876,0.58594 -0.46875,-15.78126 -26.64064,0.54687 0,15.93751 -16.71876,0 -0.0781,-54.64847 16.71876,0 0,29.60939 26.32814,-0.70312 -1.05469,-29.60939 13.20313,-0.50782"
                id="path3097"
                style="line-height:100%;font-family:TF2 Build;-inkscape-font-specification:TF2 Build Bold" />
            <path
                d="m 229.65254,688.3146 17.26564,0 c -2e-5,5.91152 -0.0391,11.18495 -0.11719,15.82033 -0.0521,4.63545 -0.013,8.72399 0.11719,12.26563 0.13019,3.51565 0.41664,6.49742 0.85937,8.94532 0.44269,2.44793 1.15884,4.44012 2.14844,5.97656 1.0156,1.51043 2.35675,2.59116 4.02344,3.24219 1.69268,0.62501 3.85414,0.87241 6.48438,0.74219 2.63017,-0.1302 4.76559,-0.71614 6.40625,-1.75781 1.64059,-1.04166 2.90361,-2.48697 3.78907,-4.33594 0.91141,-1.87499 1.52339,-4.12759 1.83594,-6.75782 0.31245,-2.65623 0.48172,-5.65102 0.50781,-8.98438 0.026,-3.3333 -0.0261,-6.97913 -0.15625,-10.93751 -0.13025,-3.98433 -0.19536,-8.24214 -0.19531,-12.77344 -5e-5,5e-5 0.31245,5e-5 0.9375,0 0.65099,5e-5 1.44526,0.0131 2.38281,0.0391 0.93745,5e-5 1.95308,5e-5 3.04688,0 1.0937,5e-5 2.10932,5e-5 3.04687,0 0.93745,5e-5 1.7187,5e-5 2.34375,0 0.62495,-0.026 0.93745,-0.039 0.9375,-0.0391 -5e-5,4.14068 -0.0131,7.78651 -0.0391,10.9375 -5e-5,3.12505 -0.0261,5.87244 -0.0781,8.2422 -0.0261,2.36982 -0.0652,4.44013 -0.11719,6.21094 -0.0521,1.74482 -0.13026,3.33336 -0.23438,4.76562 -0.10422,1.40628 -0.23443,2.70836 -0.39062,3.90626 -0.15631,1.17189 -0.3386,2.38283 -0.54688,3.63281 -0.41672,2.42189 -1.31515,4.68752 -2.69531,6.79688 -1.35422,2.08334 -3.09901,3.90626 -5.23438,5.46875 -2.10942,1.56251 -4.54431,2.78647 -7.30469,3.67188 -2.76045,0.88542 -5.74222,1.32813 -8.94532,1.32813 -3.12503,0 -5.93752,-0.2474 -8.4375,-0.74219 -2.47398,-0.52083 -4.68752,-1.19792 -6.64063,-2.03125 -1.9271,-0.83333 -3.60679,-1.79687 -5.03907,-2.89063 -1.4323,-1.09374 -2.65626,-2.21353 -3.67187,-3.35938 -1.01563,-1.17186 -1.86199,-2.33072 -2.53907,-3.47656 -0.65104,-1.17186 -1.15885,-2.25259 -1.52344,-3.24219 -0.26041,-0.75519 -0.49479,-1.61457 -0.70312,-2.57813 -0.20834,-0.98956 -0.39063,-2.18748 -0.54688,-3.59375 -0.15625,-1.43227 -0.29948,-3.138 -0.42968,-5.11719 -0.13021,-1.97914 -0.23438,-4.34893 -0.3125,-7.10938 -0.0781,-2.76038 -0.14323,-5.9635 -0.19532,-9.60938 -0.026,-3.67183 -0.0391,-7.89058 -0.0391,-12.65626"
                id="path3099"
                style="line-height:100%;font-family:TF2 Build;-inkscape-font-specification:TF2 Build Bold" />
            <path
                d="m 342.93386,710.18962 c 0.65098,3.43753 0.74213,6.65367 0.27343,9.64844 -0.4688,2.96877 -1.36724,5.67711 -2.69531,8.125 -1.32818,2.44794 -3.04693,4.63544 -5.15625,6.56251 -2.10942,1.90105 -4.49224,3.52865 -7.14845,4.88281 -2.65628,1.32813 -5.53389,2.3698 -8.63281,3.12501 -3.09899,0.75521 -6.30211,1.19791 -9.60938,1.32812 -3.85419,0.20833 -7.04429,0.32552 -9.57032,0.35156 -2.52605,0.026 -4.5573,0.013 -6.09375,-0.0391 -1.79688,-0.0521 -3.19011,-0.15625 -4.17969,-0.3125 l -0.78126,-54.72659 c 1.58855,-0.18224 3.25521,-0.33849 5.00001,-0.46875 1.77083,-0.1562 3.48957,-0.27338 5.15625,-0.35157 1.66666,-0.10411 3.21614,-0.18223 4.64844,-0.23437 1.43228,-0.052 2.63019,-0.0781 3.59375,-0.0781 1.66665,6e-5 3.59373,0.0782 5.78126,0.23438 2.21351,0.13026 4.5182,0.44276 6.91406,0.9375 2.3958,0.49485 4.79164,1.22401 7.18751,2.1875 2.39579,0.9636 4.62235,2.26568 6.67969,3.90625 2.05724,1.64068 3.8411,3.68495 5.35156,6.13282 1.53641,2.42192 2.63016,5.3516 3.28126,8.78907 m -39.84378,23.08595 c 3.98436,0.26043 7.55207,0.1172 10.70313,-0.42969 3.17706,-0.57291 5.84633,-1.53645 8.00782,-2.89063 2.16143,-1.35415 3.77601,-3.08592 4.84375,-5.19531 1.06767,-2.1354 1.51038,-4.62238 1.32813,-7.46094 -0.10421,-1.82289 -0.46879,-3.42445 -1.09375,-4.80469 -0.62504,-1.38018 -1.43233,-2.56508 -2.42188,-3.55469 -0.96357,-1.01559 -2.08337,-1.84893 -3.35937,-2.50001 -1.25004,-0.651 -2.56514,-1.15881 -3.94532,-1.52343 -1.35419,-0.39059 -2.74742,-0.66403 -4.17969,-0.82032 -1.43231,-0.15621 -2.7995,-0.22131 -4.10156,-0.19531 -1.30211,4e-5 -2.51304,0.0652 -3.63282,0.19531 -1.11981,0.13025 -2.07033,0.2865 -2.85156,0.46875 l 0.70312,28.71096"
                id="path3101"
                style="line-height:100%;font-family:TF2 Build;-inkscape-font-specification:TF2 Build Bold" />
            <path
                d="m 128.18764,861.7522 0.23437,18.43751 17.10939,0 0,7.50001 -16.79689,0 0.15625,6.09375 25.35158,-0.82031 0.3125,10.66407 -40.07815,0.70312 -0.70312,-55.93753 45.35159,0 0,13.35938 -30.93752,0"
                id="path3103"
                style="line-height:100%;font-family:TF2 Build;-inkscape-font-specification:TF2 Build Bold" />
            <path
                d="m 217.05488,870.18971 c 0.65098,3.43753 0.74213,6.65368 0.27343,9.64844 -0.4688,2.96877 -1.36724,5.67711 -2.69531,8.12501 -1.32818,2.44793 -3.04693,4.63543 -5.15625,6.5625 -2.10942,1.90105 -4.49224,3.52865 -7.14845,4.88281 -2.65628,1.32813 -5.53389,2.3698 -8.63281,3.12501 -3.09899,0.75521 -6.30211,1.19791 -9.60938,1.32812 -3.85419,0.20834 -7.04429,0.32552 -9.57032,0.35157 -2.52605,0.026 -4.5573,0.013 -6.09375,-0.0391 -1.79688,-0.0521 -3.19011,-0.15625 -4.17969,-0.3125 l -0.78125,-54.72659 c 1.58854,-0.18224 3.2552,-0.33849 5,-0.46875 1.77083,-0.1562 3.48957,-0.27338 5.15625,-0.35156 1.66666,-0.10411 3.21614,-0.18224 4.64844,-0.23438 1.43228,-0.052 2.63019,-0.0781 3.59375,-0.0781 1.66665,5e-5 3.59373,0.0782 5.78126,0.23437 2.21351,0.13027 4.5182,0.44276 6.91406,0.9375 2.3958,0.49485 4.79164,1.22401 7.18751,2.1875 2.39579,0.9636 4.62235,2.26568 6.67969,3.90625 2.05724,1.64068 3.8411,3.68495 5.35156,6.13282 1.53641,2.42192 2.63016,5.3516 3.28126,8.78907 m -39.84378,23.08595 c 3.98436,0.26043 7.55207,0.1172 10.70313,-0.42969 3.17706,-0.5729 5.84633,-1.53644 8.00782,-2.89063 2.16143,-1.35415 3.77601,-3.08592 4.84375,-5.19531 1.06767,-2.1354 1.51038,-4.62238 1.32813,-7.46094 -0.10421,-1.82289 -0.46879,-3.42445 -1.09375,-4.80469 -0.62504,-1.38018 -1.43233,-2.56507 -2.42188,-3.55469 -0.96357,-1.01559 -2.08336,-1.84892 -3.35937,-2.5 -1.25004,-0.65101 -2.56514,-1.15882 -3.94532,-1.52344 -1.35419,-0.39059 -2.74742,-0.66403 -4.17969,-0.82032 -1.43231,-0.1562 -2.7995,-0.22131 -4.10156,-0.19531 -1.30211,4e-5 -2.51304,0.0652 -3.63282,0.19531 -1.11981,0.13025 -2.07033,0.2865 -2.85156,0.46876 l 0.70312,28.71095"
                id="path3105"
                style="line-height:100%;font-family:TF2 Build;-inkscape-font-specification:TF2 Build Bold" />
            <path
                d="m 237.05489,904.64285 -15.35157,-0.78125 2.30469,-56.01565 15.35157,0.82031 -2.30469,55.97659 0,0"
                id="path3107"
                style="line-height:100%;font-family:TF2 Build;-inkscape-font-specification:TF2 Build Bold" />
            <path
                d="m 276.66429,860.34595 0.70312,43.43753 -14.41407,0.54687 -0.78125,-43.51565 -16.25001,0.78125 -0.39062,-11.83594 49.21878,-1.52344 0.39062,11.36719 -18.47657,0.74219"
                id="path3109"
                style="line-height:100%;font-family:TF2 Build;-inkscape-font-specification:TF2 Build Bold" />
            <path
                d="m 322.40649,847.29907 c 2.83851,6e-5 5.54684,0.35162 8.125,1.05469 2.57809,0.67714 4.9609,1.64068 7.14845,2.89062 2.21349,1.25006 4.2187,2.76047 6.01562,4.53126 1.79683,1.77088 3.32026,3.724 4.57032,5.85938 1.27599,2.13545 2.25255,4.44014 2.92969,6.91406 0.70307,2.474 1.05463,5.0391 1.05469,7.69532 -6e-5,2.63023 -0.35162,5.1693 -1.05469,7.61719 -0.67714,2.4219 -1.6537,4.68752 -2.92969,6.79688 -1.25006,2.10939 -2.77349,4.03647 -4.57032,5.78125 -1.79692,1.71876 -3.80213,3.19011 -6.01562,4.41407 -2.18755,1.22396 -4.57036,2.17448 -7.14845,2.85156 -2.57816,0.67709 -5.28649,1.01563 -8.125,1.01563 -2.68232,0 -5.27347,-0.33854 -7.77344,-1.01563 -2.47398,-0.67708 -4.79169,-1.6276 -6.95313,-2.85156 -2.13543,-1.22396 -4.08856,-2.69531 -5.85938,-4.41407 -1.7448,-1.74478 -3.24219,-3.67186 -4.49219,-5.78125 -1.25,-2.10936 -2.22657,-4.37498 -2.92969,-6.79688 -0.67708,-2.42185 -1.01562,-4.96091 -1.01562,-7.61719 0,-2.65622 0.33854,-5.22132 1.01562,-7.69532 0.70312,-2.47392 1.67969,-4.77861 2.92969,-6.91406 1.25,-2.13538 2.74739,-4.0885 4.49219,-5.85938 1.77082,-1.77079 3.72395,-3.2812 5.85938,-4.53126 2.16144,-1.24994 4.47915,-2.21348 6.95313,-2.89062 2.49997,-0.70307 5.09112,-1.05463 7.77344,-1.05469 m 0,46.25003 c 2.42184,1e-5 4.66143,-0.42968 6.71875,-1.28907 2.05726,-0.85936 3.82809,-2.00519 5.31251,-3.4375 1.51037,-1.45832 2.68225,-3.12498 3.51562,-5 0.85933,-1.90102 1.28902,-3.89321 1.28907,-5.97657 -5e-5,-2.29164 -0.42974,-4.38799 -1.28907,-6.28906 -0.83337,-1.92705 -2.00525,-3.56768 -3.51562,-4.92188 -1.48442,-1.38017 -3.25525,-2.44788 -5.31251,-3.20313 -2.05732,-0.78121 -4.29691,-1.17183 -6.71875,-1.17187 -2.21357,4e-5 -4.2969,0.39066 -6.25,1.17187 -1.92711,0.75525 -3.61982,1.82296 -5.07813,3.20313 -1.43231,1.3542 -2.56512,2.99483 -3.39844,4.92188 -0.83335,1.90107 -1.25002,3.99742 -1.25,6.28906 -2e-5,2.08336 0.41665,4.07555 1.25,5.97657 0.83332,1.87502 1.96613,3.54168 3.39844,5 1.45831,1.43231 3.15102,2.57814 5.07813,3.4375 1.9531,0.85939 4.03643,1.28908 6.25,1.28907"
                id="path3111"
                style="line-height:100%;font-family:TF2 Build;-inkscape-font-specification:TF2 Build Bold" />
            <path
                d="m 394.04717,876.16627 c -0.83338,0.85941 -1.79692,1.61461 -2.89063,2.26563 -1.06775,0.62503 -2.18754,1.1719 -3.35938,1.64063 -1.17191,0.44273 -2.36982,0.80731 -3.59375,1.09375 -1.19795,0.26044 -2.34378,0.45575 -3.4375,0.58593 l 14.80469,14.96095 -7.61719,6.83594 -17.9297,-20.35157 0.42969,20.35157 -14.49219,0.78125 -1.52344,-55.58597 15.27344,-0.82031 c 1.87499,6e-5 4.14061,0.0652 6.79688,0.19531 2.68227,0.13027 5.75519,0.57298 9.21876,1.32813 1.53643,0.3386 3.0208,0.9636 4.45313,1.875 1.43225,0.91151 2.70829,2.01828 3.82812,3.32031 1.1458,1.2761 2.0833,2.72141 2.81251,4.33594 0.72912,1.58859 1.15881,3.24224 1.28906,4.96094 0.0781,1.14588 0.0911,2.22661 0.0391,3.24219 -0.0261,1.01567 -0.18233,2.01827 -0.46875,3.00782 -0.26046,0.98962 -0.67713,1.9792 -1.25,2.96875 -0.57296,0.96357 -1.36723,1.96618 -2.38281,3.00781 m -9.14063,-8.47656 c -0.18233,-1.51038 -0.65108,-2.74736 -1.40625,-3.71094 -0.7292,-0.98955 -1.74482,-1.74475 -3.04688,-2.26563 -1.27607,-0.54683 -2.81253,-0.87235 -4.60938,-0.97656 -1.7969,-0.13017 -3.84116,-0.10413 -6.13282,0.0781 l 0,14.57032 c 0.36457,3e-5 1.01561,0.0391 1.95313,0.11719 0.93748,0.0782 1.99217,0.11722 3.16407,0.11719 1.17185,-0.026 2.38279,-0.1432 3.63281,-0.35156 1.24998,-0.20831 2.36977,-0.59893 3.35938,-1.17188 1.01559,-0.57289 1.80986,-1.36716 2.38281,-2.38281 0.59893,-1.0156 0.8333,-2.35674 0.70313,-4.02344"
                id="path3113"
                style="line-height:100%;font-family:TF2 Build;-inkscape-font-specification:TF2 Build Bold" />
        </g>
    </g>
</svg>
