<?xml version="1.0" encoding="UTF-8" standalone="no"?>
<!-- Created with Inkscape (http://www.inkscape.org/) -->

<svg
   xmlns:dc="http://purl.org/dc/elements/1.1/"
   xmlns:cc="http://creativecommons.org/ns#"
   xmlns:rdf="http://www.w3.org/1999/02/22-rdf-syntax-ns#"
   xmlns:svg="http://www.w3.org/2000/svg"
   xmlns="http://www.w3.org/2000/svg"
   xmlns:xlink="http://www.w3.org/1999/xlink"
   xmlns:sodipodi="http://sodipodi.sourceforge.net/DTD/sodipodi-0.dtd"
   xmlns:inkscape="http://www.inkscape.org/namespaces/inkscape"
   version="1.0"
   width="400"
   height="400"
   id="svg3428"
   inkscape:version="0.48.3.1 r9886"
   sodipodi:docname="Logo.svg">
  <metadata
     id="metadata3326">
    <rdf:RDF>
      <cc:Work
         rdf:about="">
        <dc:format>image/svg+xml</dc:format>
        <dc:type
           rdf:resource="http://purl.org/dc/dcmitype/StillImage" />
        <dc:title></dc:title>
      </cc:Work>
    </rdf:RDF>
  </metadata>
  <sodipodi:namedview
     pagecolor="#ffffff"
     bordercolor="#666666"
     borderopacity="1"
     objecttolerance="10"
     gridtolerance="10"
     guidetolerance="10"
     inkscape:pageopacity="0"
     inkscape:pageshadow="2"
     inkscape:window-width="1920"
     inkscape:window-height="1032"
     id="namedview3324"
     showgrid="false"
     inkscape:zoom="1.74875"
     inkscape:cx="155.61492"
     inkscape:cy="180.97227"
     inkscape:window-x="0"
     inkscape:window-y="0"
     inkscape:window-maximized="1"
     inkscape:current-layer="svg3428" />
  <defs
     id="defs3430">
    <linearGradient
       id="linearGradient4066">
      <stop
         id="stop4068"
         style="stop-color:#ffffff;stop-opacity:0.4375"
         offset="0" />
      <stop
         id="stop4070"
         style="stop-color:#ffffff;stop-opacity:0.71428573"
         offset="1" />
    </linearGradient>
    <linearGradient
       id="linearGradient4004">
      <stop
         id="stop4006"
         style="stop-color:#000000;stop-opacity:1"
         offset="0" />
      <stop
         id="stop4012"
         style="stop-color:#000000;stop-opacity:0.9910714"
         offset="1" />
    </linearGradient>
    <linearGradient
       id="linearGradient3988">
      <stop
         id="stop3990"
         style="stop-color:#ffffff;stop-opacity:0"
         offset="0" />
      <stop
         id="stop3998"
         style="stop-color:#ffffff;stop-opacity:0.08035714"
         offset="0.46566358" />
      <stop
         id="stop3996"
         style="stop-color:#ffffff;stop-opacity:0.21428572"
         offset="0.9861111" />
      <stop
         id="stop3992"
         style="stop-color:#ffffff;stop-opacity:0"
         offset="1" />
    </linearGradient>
    <linearGradient
       id="linearGradient3974">
      <stop
         id="stop3976"
         style="stop-color:#5d1f0e;stop-opacity:1"
         offset="0" />
      <stop
         id="stop3978"
         style="stop-color:#d09737;stop-opacity:1"
         offset="1" />
    </linearGradient>
    <linearGradient
       x1="259.80084"
       y1="359.31183"
       x2="139.09666"
       y2="43.995682"
       id="linearGradient3980"
       xlink:href="#linearGradient3974"
       gradientUnits="userSpaceOnUse"
       gradientTransform="matrix(1.0471468,0.1487928,-0.1487928,1.0471468,21.271543,-39.30774)" />
    <radialGradient
       cx="129.23863"
       cy="56.078693"
       r="168.96875"
       fx="129.23863"
       fy="56.078693"
       id="radialGradient3994"
       xlink:href="#linearGradient3988"
       gradientUnits="userSpaceOnUse"
       gradientTransform="matrix(1.7947973,0.35681,-0.2149765,1.0813575,-155.22965,-91.717689)" />
    <filter
       id="filter4042">
      <feGaussianBlur
         id="feGaussianBlur4044"
         stdDeviation="4.7316491"
         inkscape:collect="always" />
    </filter>
    <radialGradient
       cx="200.94237"
       cy="199.88017"
       r="178.73216"
       fx="200.94237"
       fy="199.88017"
       id="radialGradient4072"
       xlink:href="#linearGradient3988"
       gradientUnits="userSpaceOnUse" />
    <clipPath
       clipPathUnits="userSpaceOnUse"
       id="clipPath5005">
      <path
         style="fill:#020202"
         d="m 159.40625,15.75 -1.96875,0.28125 c -1.09991,0.158073 -2.53983,0.567047 -3.25,0.9375 -0.70022,0.365313 -2.32551,0.882429 -3.625,1.125 -1.29949,0.242571 -3.11969,0.77933 -4.0625,1.1875 -0.94281,0.408129 -2.38974,0.80408 -3.1875,0.90625 -0.79777,0.102221 -2.26592,0.525147 -3.28125,0.9375 -1.01533,0.412313 -2.67813,0.927433 -3.6875,1.15625 -2.85445,0.647088 -3.1122,1.059155 -3.5625,5.71875 -0.14893,1.541107 -0.54599,4.033405 -0.90625,5.53125 -0.36026,1.497861 -0.8582,4.674766 -1.09375,7.0625 -0.23556,2.387751 -0.71873,5.487259 -1.0625,6.90625 -0.3438,1.418972 -0.79641,4.552862 -1.03125,6.96875 -0.23484,2.415875 -0.66708,5.289656 -0.9375,6.375 -0.27044,1.085345 -0.61465,2.746866 -0.78125,3.6875 -0.0658,0.371577 -0.13691,0.693092 -0.21875,1 -6.91566,3.737378 -13.51042,8.013957 -19.75,12.71875 -0.26807,-0.08225 -0.53121,-0.171039 -0.84375,-0.3125 C 105.51399,77.646802 103.90377,77.225558 102.59375,77 101.28373,76.774458 99.67272,76.308869 99,75.96875 c -0.672739,-0.340112 -2.23579,-0.785284 -3.46875,-1 -1.23297,-0.214718 -2.92518,-0.676891 -3.78125,-1.03125 -1.4812,-0.613115 -3.020502,-1.026435 -5.1875,-1.375 -0.538556,-0.08665 -1.614986,-0.451089 -2.40625,-0.8125 -0.791267,-0.361412 -2.453758,-0.847641 -3.6875,-1.0625 -1.233743,-0.214848 -2.883713,-0.681349 -3.65625,-1.03125 -0.772535,-0.34989 -2.440412,-0.826059 -3.71875,-1.0625 -1.278338,-0.236468 -3.071372,-0.76397 -3.96875,-1.1875 -2.3986,-1.132128 -2.875171,-1.045769 -4.625,0.75 -2.38005,2.442488 -6.129806,6.69636 -10.78125,12.21875 -0.769841,0.91399 -1.83941,2.178052 -2.375,2.8125 -0.535591,0.634449 -1.364286,1.517862 -1.8125,1.96875 -0.448224,0.450892 -0.87708,1.026606 -0.96875,1.28125 -0.269736,0.74909 0.285954,2.986005 1,4.0625 0.363707,0.548326 0.820294,1.581886 1.03125,2.28125 0.210968,0.699363 0.698762,1.701626 1.0625,2.25 0.363737,0.548332 0.832617,1.648499 1.0625,2.4375 0.229871,0.788864 0.706811,1.831563 1.0625,2.3125 0.355688,0.48095 0.832618,1.5235 1.0625,2.3125 0.229872,0.789 0.712074,1.87799 1.0625,2.40625 0.350435,0.52811 0.820292,1.51927 1.03125,2.21875 0.210968,0.69926 0.667513,1.73289 1.03125,2.28125 0.363737,0.54827 0.878619,1.6857 1.125,2.53125 0.246382,0.84541 0.710798,1.96968 1.0625,2.5 0.351701,0.53021 0.800562,1.58932 1,2.34375 0.199449,0.75439 0.691916,1.81044 1.0625,2.34375 0.370584,0.53364 0.838535,1.56014 1.0625,2.3125 0.223964,0.75232 0.783874,2.00143 1.25,2.75 0.478636,0.76904 0.690186,1.20042 0.78125,1.875 -4.008308,7.06668 -7.462534,14.46165 -10.3125,22.15625 -0.683748,0.29596 -1.552685,0.50501 -3,0.78125 -1.118577,0.21352 -2.607378,0.67464 -3.3125,1.03125 -0.705122,0.35629 -2.094565,0.80023 -3.09375,0.96875 -0.999184,0.16893 -2.626001,0.64442 -3.59375,1.0625 -0.967748,0.41801 -2.660539,0.91709 -3.75,1.125 -1.089452,0.20809 -2.603768,0.67277 -3.375,1.03125 -0.771222,0.35849 -2.392093,0.84811 -3.625,1.09375 -1.232906,0.24562 -2.805105,0.72755 -3.46875,1.0625 -0.663643,0.33498 -2.184273,0.79991 -3.40625,1.03125 -1.221978,0.23131 -2.787511,0.70716 -3.46875,1.0625 -0.681229,0.35536 -2.089137,0.79788 -3.125,0.96875 -2.645682,0.43578 -2.810889,0.63016 -3.40625,3.90625 -0.276128,1.51936 -0.685166,3.4755 -0.90625,4.34375 -0.221084,0.86811 -0.595318,3.51862 -0.8125,5.90625 -0.217192,2.38777 -0.74281,6.04468 -1.1875,8.125 -0.44813,2.0963 -0.72321,4.03401 -0.625,4.34375 0.331543,1.04659 1.49213,2.31738 2.71875,2.9375 0.673063,0.3403 1.385293,0.81083 1.59375,1.0625 0.208457,0.25164 0.993511,0.74105 1.71875,1.0625 0.725239,0.32149 1.556597,0.83783 1.84375,1.15625 0.287152,0.31805 0.926889,0.75594 1.4375,0.96875 0.510611,0.21265 1.231131,0.66178 1.59375,1 0.36262,0.3382 1.128854,0.86153 1.71875,1.15625 0.589897,0.29473 1.239327,0.73066 1.4375,0.96875 0.198161,0.23841 0.847604,0.67013 1.4375,0.96875 0.589896,0.29864 1.407168,0.81813 1.8125,1.15625 0.405343,0.33812 1.233758,0.82019 1.84375,1.09375 0.610003,0.27385 1.398361,0.83742 1.75,1.21875 0.351648,0.38156 0.787572,0.6875 0.96875,0.6875 0.181177,0 0.875286,0.40682 1.53125,0.90625 0.655964,0.49974 1.626012,1.12047 2.1875,1.40625 0.561499,0.28565 1.208078,0.73062 1.40625,0.96875 0.198162,0.2383 0.813502,0.6517 1.375,0.9375 0.561487,0.28563 1.562786,0.93794 2.21875,1.4375 0.655964,0.49944 1.349444,0.90625 1.5625,0.90625 0.213057,0 0.711466,0.30612 1.09375,0.6875 0.382282,0.38127 1.226663,1.02623 1.875,1.40625 0.535741,8.31975 1.751729,16.46143 3.59375,24.375 -0.336881,0.44394 -0.729484,0.93891 -1.21875,1.5 -3.73331,4.2819 -4.167568,4.77198 -5.125,5.84375 -1.499299,1.6785 -4.877624,5.69376 -6.3125,7.5 -0.725239,0.91308 -1.742332,2.1298 -2.25,2.6875 -0.507667,0.55767 -1.388558,1.55276 -1.96875,2.21875 -0.58019,0.66611 -1.437677,1.62853 -1.90625,2.15625 -1.248403,1.40582 -3.18492,3.70482 -4.6875,5.5625 -0.725239,0.89654 -1.690156,2.01649 -2.15625,2.5 -0.466094,0.48351 -0.93515,1.2115 -1.03125,1.59375 -0.240315,0.95523 0.503028,3.81078 1.3125,5.03125 0.367209,0.55363 0.851532,1.58189 1.0625,2.28125 0.210968,0.69947 0.667501,1.73272 1.03125,2.28125 0.363737,0.54828 0.863867,1.64868 1.09375,2.4375 0.229872,0.78895 0.706811,1.83143 1.0625,2.3125 0.355679,0.48106 0.81468,1.45114 1.03125,2.1875 0.216559,0.7362 0.70639,1.76243 1.0625,2.28125 0.356101,0.51884 0.846219,1.64413 1.09375,2.5 0.341627,1.18124 0.741387,1.86375 1.6875,2.8125 l 1.25,1.25 21.15625,0 c 14.083374,0 18.725902,-0.0109 20.625,0.15625 4.716001,6.25153 9.903393,12.1551 15.5,17.625 -0.06533,0.50156 -0.152499,1.09454 -0.28125,1.71875 -0.28105,1.36281 -0.69162,4.5376 -0.90625,7.0625 -0.21464,2.52468 -0.67206,6.03701 -1.03125,7.78125 -0.35919,1.74433 -0.836192,5.30149 -1.0625,7.90625 -0.226306,2.60487 -0.596858,5.54946 -0.8125,6.5625 -0.75789,3.56017 -0.870529,4.36726 -1.15625,7.21875 -0.393981,3.93171 -0.154686,4.78817 1.5625,5.65625 0.698846,0.35326 1.61169,0.93798 2.03125,1.28125 0.41956,0.34328 1.13283,0.75313 1.59375,0.9375 0.46092,0.18437 1.04817,0.58292 1.3125,0.875 0.26431,0.29209 1.13975,0.87868 1.9375,1.28125 0.79777,0.40242 1.66119,0.97604 1.9375,1.28125 0.27632,0.30531 0.65977,0.53125 0.84375,0.53125 0.18398,0 0.87866,0.40927 1.53125,0.90625 0.65259,0.49709 1.57986,1.10067 2.0625,1.34375 0.48264,0.24312 1.16862,0.72494 1.53125,1.0625 0.36262,0.33757 1.08608,0.78829 1.59375,1 0.50767,0.21152 1.36951,0.7683 1.9375,1.21875 0.56801,0.45048 1.3358,0.87945 1.6875,0.96875 0.88946,0.22275 2.54109,-0.32508 3.40625,-1.125 0.39913,-0.36908 1.14707,-0.85043 1.65625,-1.0625 0.50918,-0.21223 1.23114,-0.6594 1.59375,-1 0.36263,-0.34072 1.12699,-0.80124 1.6875,-1.03125 0.5605,-0.23 1.40351,-0.75777 1.875,-1.15625 0.47149,-0.39842 1.45771,-1.06595 2.21875,-1.5 3.04865,-1.73915 3.703,-2.15446 4.28125,-2.6875 0.33153,-0.30571 1.06451,-0.73821 1.625,-0.96875 0.5605,-0.23056 1.42468,-0.76571 1.90625,-1.1875 0.48157,-0.42195 1.13288,-0.86308 1.46875,-0.96875 0.33589,-0.10494 0.95674,-0.46365 1.375,-0.8125 0.41825,-0.34896 1.24666,-0.88909 1.84375,-1.1875 0.59709,-0.29842 1.38738,-0.81814 1.75,-1.15625 0.36263,-0.33818 1.09858,-0.78057 1.625,-1 0.52642,-0.21938 1.31033,-0.72458 1.75,-1.09375 0.43969,-0.36906 1.20018,-0.82806 1.6875,-1.03125 0.48732,-0.2031 1.11909,-0.61918 1.40625,-0.9375 0.28714,-0.31827 1.16369,-0.87648 1.9375,-1.21875 0.72403,-0.32035 1.60702,-0.83961 2.09375,-1.21875 7.24202,2.75386 14.74018,4.97697 22.4375,6.625 0.31165,0.4188 0.59522,0.92515 0.84375,1.59375 0.30043,0.80827 0.83663,1.86487 1.1875,2.375 0.35087,0.51015 0.78951,1.52094 1,2.21875 0.2105,0.69787 0.69876,1.70159 1.0625,2.25 0.36373,0.54839 0.83263,1.64863 1.0625,2.4375 0.22987,0.78886 0.73145,1.82251 1.09375,2.3125 0.3623,0.48998 0.78602,1.38599 0.9375,1.96875 0.1515,0.58254 0.62997,1.54413 1.0625,2.15625 0.43252,0.6122 0.96503,1.72137 1.1875,2.46875 0.22246,0.7474 0.68385,1.78874 1.03125,2.3125 0.3474,0.52374 0.78903,1.5193 1,2.21875 0.21096,0.69947 0.68289,1.7214 1.03125,2.25 0.34836,0.52856 0.82272,1.54268 1.0625,2.25 0.23978,0.70727 0.74022,1.66272 1.09375,2.125 0.35353,0.46257 0.82654,1.50278 1.0625,2.3125 0.23597,0.80997 0.656,1.76803 0.9375,2.125 0.28151,0.35718 0.74362,1.17431 1.03125,1.84375 0.30343,0.7063 0.77677,1.32711 1.125,1.46875 0.34699,0.14075 5.92223,0.2186 13.21875,0.1875 l 12.625,-0.0312 1.15625,-1.3125 c 0.69173,-0.78905 1.2956,-1.86711 1.53125,-2.65625 0.21609,-0.72339 0.7064,-1.73118 1.0625,-2.25 0.35611,-0.51885 0.83047,-1.57868 1.0625,-2.375 0.23202,-0.79635 0.7068,-1.86267 1.0625,-2.34375 0.35568,-0.48098 0.82855,-1.53498 1.0625,-2.34375 0.23395,-0.80852 0.70353,-1.81602 1.03125,-2.25 0.3277,-0.43425 0.75156,-1.26478 0.9375,-1.84375 0.18594,-0.57871 0.73939,-1.70393 1.21875,-2.5 0.47937,-0.7958 0.97369,-1.91725 1.125,-2.5 0.15132,-0.58269 0.57522,-1.47889 0.9375,-1.96875 0.36231,-0.49001 0.86388,-1.52352 1.09375,-2.3125 0.22988,-0.7889 0.71023,-1.87524 1.0625,-2.40625 0.35228,-0.53101 0.8086,-1.56445 1.03125,-2.3125 0.22265,-0.74807 0.72361,-1.71749 1.09375,-2.15625 0.37015,-0.43897 0.79183,-1.26785 0.9375,-1.8125 0.14569,-0.5449 0.71014,-1.76519 1.28125,-2.71875 0.16357,-0.27315 0.27731,-0.45674 0.40625,-0.65625 7.77073,-1.62886 15.34691,-3.83834 22.65625,-6.59375 0.0308,0.0247 0.0628,0.0365 0.0937,0.0625 0.42645,0.35796 1.18437,0.82165 1.6875,1.03125 0.50312,0.20983 1.2711,0.65226 1.6875,1 0.41639,0.34778 1.35942,0.94261 2.09375,1.3125 0.73436,0.36987 1.49059,0.85715 1.6875,1.09375 0.19691,0.2367 0.76204,0.62732 1.28125,0.84375 0.51922,0.21638 1.26239,0.65508 1.625,1 0.36263,0.34484 1.18898,0.87728 1.84375,1.15625 0.65478,0.27892 1.35609,0.68927 1.5625,0.9375 0.2064,0.24797 0.9476,0.75121 1.625,1.09375 0.67743,0.34255 1.54918,0.90011 1.96875,1.25 0.41958,0.35009 1.03912,0.73808 1.375,0.84375 0.33589,0.10491 1.01841,0.51578 1.5,0.9375 0.48156,0.42186 1.2745,0.94495 1.78125,1.15625 0.50672,0.2113 1.2711,0.65327 1.6875,1 0.41639,0.3468 1.17984,0.8672 1.6875,1.125 0.50767,0.25776 1.27111,0.74701 1.6875,1.09375 0.4164,0.34677 1.16108,0.81182 1.6875,1.03125 0.52642,0.21938 1.26238,0.68487 1.625,1.03125 0.36263,0.34655 1.09859,0.81183 1.625,1.03125 0.52642,0.21943 1.30237,0.65427 1.71875,1 1.30338,1.08155 1.92541,1.31383 3.1875,1.125 0.79421,-0.11873 1.47163,-0.4463 2.125,-1.03125 0.53262,-0.47665 1.25787,-0.95683 1.59375,-1.0625 0.33587,-0.10437 0.98717,-0.54681 1.46875,-0.96875 0.48156,-0.42173 1.29161,-0.92104 1.78125,-1.125 0.48962,-0.20431 1.28159,-0.7409 1.75,-1.1875 0.46844,-0.44664 1.01096,-0.8125 1.21875,-0.8125 0.20779,0 0.93697,-0.44477 1.625,-0.96875 0.68803,-0.52399 1.61235,-1.09359 2.0625,-1.28125 0.45014,-0.18763 1.05662,-0.61501 1.34375,-0.9375 0.28715,-0.32239 1.00301,-0.79864 1.59375,-1.0625 0.59072,-0.26387 1.50246,-0.83078 2.03125,-1.25 0.52879,-0.41925 1.3291,-0.88846 1.75,-1.0625 0.94469,-0.39028 1.34375,-1.24255 1.34375,-2.8125 0,-2.5953 -0.84776,-10.31188 -1.46875,-13.34375 -0.35998,-1.75758 -0.82157,-5.22739 -1.03125,-7.6875 -0.37298,-4.37616 -0.51075,-5.1775 -1.3125,-8.90625 -0.36317,-1.68903 -0.92812,-7.53649 -1.09375,-10.65625 5.76496,-5.59706 11.1001,-11.63969 15.9375,-18.0625 L 343,291.0625 c 19.8719,-0.12204 21.52047,-0.16199 22.3125,-0.59375 0.97734,-0.53293 1.43062,-1.19018 1.90625,-2.6875 0.18387,-0.57877 0.65007,-1.4713 1,-2 0.34991,-0.5286 0.78902,-1.55065 1,-2.25 0.21094,-0.69938 0.68082,-1.69051 1.03125,-2.21875 0.35041,-0.52838 0.83261,-1.61726 1.0625,-2.40625 0.22986,-0.78889 0.70682,-1.83155 1.0625,-2.3125 0.3557,-0.48095 0.80545,-1.50619 1.03125,-2.28125 0.22583,-0.775 0.76523,-1.96075 1.1875,-2.625 0.42227,-0.6644 0.8394,-1.57649 0.9375,-2.03125 0.0981,-0.45471 0.37916,-1.17493 0.59375,-1.59375 0.56396,-1.10055 0.48115,-2.34685 -0.21875,-3.34375 -0.53473,-0.76147 -2.08486,-2.58236 -5.8125,-6.8125 -2.96918,-3.36921 -5.88376,-6.80763 -8,-9.4375 -0.72524,-0.90131 -1.79481,-2.17493 -2.375,-2.8125 -0.58019,-0.63758 -1.49687,-1.66648 -2.03125,-2.28125 -0.53436,-0.61462 -1.40201,-1.57738 -1.90625,-2.15625 -1.4173,-1.62686 -3.0841,-3.61818 -4.53125,-5.40625 -0.33588,-0.41501 -0.61006,-0.75019 -0.96875,-1.1875 1.93391,-8.18956 3.1855,-16.62401 3.71875,-25.25 0.42781,-0.243 0.84806,-0.51649 1.03125,-0.71875 0.25812,-0.28511 0.99443,-0.79016 1.65625,-1.125 0.66184,-0.33484 1.36375,-0.82358 1.5625,-1.0625 0.19876,-0.23912 0.84761,-0.67012 1.4375,-0.96875 0.5899,-0.29863 1.40717,-0.81814 1.8125,-1.15625 0.40536,-0.3381 1.23377,-0.8513 1.84375,-1.125 0.61,-0.27378 1.39835,-0.80611 1.75,-1.1875 0.35167,-0.38154 0.78758,-0.6875 0.96875,-0.6875 0.18117,0 0.87529,-0.40666 1.53125,-0.90625 0.65597,-0.49971 1.62601,-1.15155 2.1875,-1.4375 0.5615,-0.28561 1.20809,-0.6994 1.40625,-0.9375 0.19816,-0.23837 0.81349,-0.68284 1.375,-0.96875 0.56149,-0.28566 1.56278,-0.90682 2.21875,-1.40625 0.65596,-0.49958 1.32376,-0.90625 1.5,-0.90625 0.17624,0 0.77426,-0.43106 1.3125,-0.9375 0.53821,-0.50662 1.13761,-0.90625 1.34375,-0.90625 0.20612,0 0.90653,-0.40683 1.5625,-0.90625 0.65597,-0.49966 1.65726,-1.15173 2.21875,-1.4375 0.5615,-0.28577 1.17624,-0.72996 1.375,-0.96875 0.19875,-0.23898 0.94122,-0.71667 1.625,-1.0625 1.33153,-0.67321 2.24651,-1.64864 2.5,-2.65625 0.23245,-0.92402 -0.3601,-6.10928 -1.09375,-9.5 -0.35328,-1.63288 -0.81553,-4.8719 -1.03125,-7.21875 -0.49077,-5.33889 -0.75738,-6.69705 -1.59375,-8.34375 -0.70225,-1.38261 -0.96024,-1.53316 -3.6875,-2 -0.57216,-0.0977 -1.5753,-0.44009 -2.25,-0.78125 -0.67468,-0.34104 -2.27697,-0.82212 -3.5625,-1.0625 -1.28555,-0.24029 -2.90382,-0.71915 -3.5625,-1.0625 -0.65865,-0.34353 -2.18425,-0.80024 -3.40625,-1.03125 -1.22195,-0.23119 -2.79823,-0.70762 -3.5,-1.0625 -0.7018,-0.35473 -2.25368,-0.83845 -3.4375,-1.0625 -1.18386,-0.22403 -2.70042,-0.69014 -3.375,-1.03125 -0.67459,-0.3411 -2.22345,-0.80155 -3.4375,-1.03125 -1.21401,-0.22984 -2.84646,-0.70668 -3.625,-1.0625 -0.77853,-0.3554 -2.36299,-0.84129 -3.53125,-1.0625 -0.71496,-0.13529 -1.43034,-0.32659 -2.09375,-0.5625 -2.96818,-8.05871 -6.60943,-15.78712 -10.84375,-23.15625 0.021,-0.0326 0.0407,-0.0613 0.0625,-0.0937 0.43756,-0.65096 1.00076,-1.79505 1.21875,-2.53125 0.218,-0.73619 0.67556,-1.73768 1.03125,-2.21875 0.35569,-0.48095 0.8367,-1.50622 1.0625,-2.28125 0.22582,-0.77518 0.74122,-1.94064 1.15625,-2.59375 0.41499,-0.65267 0.8393,-1.61756 0.9375,-2.15625 0.0983,-0.53825 0.52889,-1.62197 0.96875,-2.40625 0.43986,-0.78431 0.97102,-2.02277 1.1875,-2.75 0.2165,-0.72738 0.70942,-1.73572 1.0625,-2.25 0.35303,-0.51429 0.81467,-1.54505 1.03125,-2.28125 0.21654,-0.73621 0.67556,-1.73775 1.03125,-2.21875 0.35568,-0.48121 0.83264,-1.523551 1.0625,-2.3125 0.22989,-0.788715 0.72998,-1.857939 1.09375,-2.40625 0.36372,-0.548532 0.82027,-1.581872 1.03125,-2.28125 0.21095,-0.699369 0.65261,-1.695004 1,-2.21875 0.77023,-1.161205 1.46875,-3.422102 1.46875,-4.75 0,-0.802073 -0.24437,-1.260027 -1.375,-2.59375 -3.31959,-3.915894 -5.51978,-6.503883 -6.1875,-7.21875 -0.39506,-0.42299 -1.35093,-1.495578 -2.125,-2.375 -0.77408,-0.879421 -1.84366,-2.091486 -2.375,-2.6875 -0.53135,-0.596005 -1.20989,-1.365668 -1.5,-1.71875 -3.53107,-4.297476 -4.11398,-4.523016 -7.28125,-2.9375 -0.66342,0.332126 -2.24864,0.776838 -3.53125,1 -1.28267,0.223153 -2.95015,0.684963 -3.6875,1.03125 -0.73731,0.346269 -2.32524,0.837015 -3.53125,1.0625 -1.20598,0.225458 -2.97233,0.708513 -3.9375,1.09375 -0.96515,0.38523 -2.68896,0.86137 -3.84375,1.0625 -1.15478,0.201133 -2.76814,0.668409 -3.5625,1.03125 -0.79439,0.362838 -2.28361,0.803145 -3.3125,0.96875 -1.02885,0.165629 -2.70342,0.631534 -3.71875,1.03125 -1.01534,0.399742 -2.79735,0.904604 -3.96875,1.125 -1.17144,0.220386 -2.74417,0.640276 -3.5,0.9375 -0.14112,0.0555 -0.2454,0.07847 -0.375,0.125 C 266.86181,58.585726 234.67817,47 200.03125,47 c -4.06384,0 -8.10321,0.156153 -12.09375,0.46875 -0.88844,-0.79481 -1.97524,-1.982447 -3.34375,-3.59375 -0.58019,-0.68311 -1.54481,-1.751636 -2.125,-2.375 -1.74682,-1.876815 -3.10577,-3.389039 -4.21875,-4.6875 -0.5802,-0.676878 -1.66938,-1.903079 -2.4375,-2.71875 -0.76812,-0.81568 -1.83933,-2.019999 -2.375,-2.6875 -1.13242,-1.41111 -8.379,-9.672159 -9.84375,-11.21875 -0.54821,-0.578857 -1.71779,-1.816437 -2.59375,-2.75 L 159.40625,15.75 z m 40.625,120.21875 c 36.87104,0 65.28125,28.43036 65.28125,64.0625 0,35.63214 -28.41021,64.03125 -65.28125,64.03125 -36.87104,0 -65.3125,-28.39911 -65.3125,-64.03125 0,-35.63214 28.44146,-64.0625 65.3125,-64.0625 z"
         id="path5007"
         inkscape:connector-curvature="0" />
    </clipPath>
    <clipPath
       clipPathUnits="userSpaceOnUse"
       id="clipPath5009">
      <path
         style="fill:#020202"
         d="m 159.40625,15.75 -1.96875,0.28125 c -1.09991,0.158073 -2.53983,0.567047 -3.25,0.9375 -0.70022,0.365313 -2.32551,0.882429 -3.625,1.125 -1.29949,0.242571 -3.11969,0.77933 -4.0625,1.1875 -0.94281,0.408129 -2.38974,0.80408 -3.1875,0.90625 -0.79777,0.102221 -2.26592,0.525147 -3.28125,0.9375 -1.01533,0.412313 -2.67813,0.927433 -3.6875,1.15625 -2.85445,0.647088 -3.1122,1.059155 -3.5625,5.71875 -0.14893,1.541107 -0.54599,4.033405 -0.90625,5.53125 -0.36026,1.497861 -0.8582,4.674766 -1.09375,7.0625 -0.23556,2.387751 -0.71873,5.487259 -1.0625,6.90625 -0.3438,1.418972 -0.79641,4.552862 -1.03125,6.96875 -0.23484,2.415875 -0.66708,5.289656 -0.9375,6.375 -0.27044,1.085345 -0.61465,2.746866 -0.78125,3.6875 -0.0658,0.371577 -0.13691,0.693092 -0.21875,1 -6.91566,3.737378 -13.51042,8.013957 -19.75,12.71875 -0.26807,-0.08225 -0.53121,-0.171039 -0.84375,-0.3125 C 105.51399,77.646802 103.90377,77.225558 102.59375,77 101.28373,76.774458 99.67272,76.308869 99,75.96875 c -0.672739,-0.340112 -2.23579,-0.785284 -3.46875,-1 -1.23297,-0.214718 -2.92518,-0.676891 -3.78125,-1.03125 -1.4812,-0.613115 -3.020502,-1.026435 -5.1875,-1.375 -0.538556,-0.08665 -1.614986,-0.451089 -2.40625,-0.8125 -0.791267,-0.361412 -2.453758,-0.847641 -3.6875,-1.0625 -1.233743,-0.214848 -2.883713,-0.681349 -3.65625,-1.03125 -0.772535,-0.34989 -2.440412,-0.826059 -3.71875,-1.0625 -1.278338,-0.236468 -3.071372,-0.76397 -3.96875,-1.1875 -2.3986,-1.132128 -2.875171,-1.045769 -4.625,0.75 -2.38005,2.442488 -6.129806,6.69636 -10.78125,12.21875 -0.769841,0.91399 -1.83941,2.178052 -2.375,2.8125 -0.535591,0.634449 -1.364286,1.517862 -1.8125,1.96875 -0.448224,0.450892 -0.87708,1.026606 -0.96875,1.28125 -0.269736,0.74909 0.285954,2.986005 1,4.0625 0.363707,0.548326 0.820294,1.581886 1.03125,2.28125 0.210968,0.699363 0.698762,1.701626 1.0625,2.25 0.363737,0.548332 0.832617,1.648499 1.0625,2.4375 0.229871,0.788864 0.706811,1.831563 1.0625,2.3125 0.355688,0.48095 0.832618,1.5235 1.0625,2.3125 0.229872,0.789 0.712074,1.87799 1.0625,2.40625 0.350435,0.52811 0.820292,1.51927 1.03125,2.21875 0.210968,0.69926 0.667513,1.73289 1.03125,2.28125 0.363737,0.54827 0.878619,1.6857 1.125,2.53125 0.246382,0.84541 0.710798,1.96968 1.0625,2.5 0.351701,0.53021 0.800562,1.58932 1,2.34375 0.199449,0.75439 0.691916,1.81044 1.0625,2.34375 0.370584,0.53364 0.838535,1.56014 1.0625,2.3125 0.223964,0.75232 0.783874,2.00143 1.25,2.75 0.478636,0.76904 0.690186,1.20042 0.78125,1.875 -4.008308,7.06668 -7.462534,14.46165 -10.3125,22.15625 -0.683748,0.29596 -1.552685,0.50501 -3,0.78125 -1.118577,0.21352 -2.607378,0.67464 -3.3125,1.03125 -0.705122,0.35629 -2.094565,0.80023 -3.09375,0.96875 -0.999184,0.16893 -2.626001,0.64442 -3.59375,1.0625 -0.967748,0.41801 -2.660539,0.91709 -3.75,1.125 -1.089452,0.20809 -2.603768,0.67277 -3.375,1.03125 -0.771222,0.35849 -2.392093,0.84811 -3.625,1.09375 -1.232906,0.24562 -2.805105,0.72755 -3.46875,1.0625 -0.663643,0.33498 -2.184273,0.79991 -3.40625,1.03125 -1.221978,0.23131 -2.787511,0.70716 -3.46875,1.0625 -0.681229,0.35536 -2.089137,0.79788 -3.125,0.96875 -2.645682,0.43578 -2.810889,0.63016 -3.40625,3.90625 -0.276128,1.51936 -0.685166,3.4755 -0.90625,4.34375 -0.221084,0.86811 -0.595318,3.51862 -0.8125,5.90625 -0.217192,2.38777 -0.74281,6.04468 -1.1875,8.125 -0.44813,2.0963 -0.72321,4.03401 -0.625,4.34375 0.331543,1.04659 1.49213,2.31738 2.71875,2.9375 0.673063,0.3403 1.385293,0.81083 1.59375,1.0625 0.208457,0.25164 0.993511,0.74105 1.71875,1.0625 0.725239,0.32149 1.556597,0.83783 1.84375,1.15625 0.287152,0.31805 0.926889,0.75594 1.4375,0.96875 0.510611,0.21265 1.231131,0.66178 1.59375,1 0.36262,0.3382 1.128854,0.86153 1.71875,1.15625 0.589897,0.29473 1.239327,0.73066 1.4375,0.96875 0.198161,0.23841 0.847604,0.67013 1.4375,0.96875 0.589896,0.29864 1.407168,0.81813 1.8125,1.15625 0.405343,0.33812 1.233758,0.82019 1.84375,1.09375 0.610003,0.27385 1.398361,0.83742 1.75,1.21875 0.351648,0.38156 0.787572,0.6875 0.96875,0.6875 0.181177,0 0.875286,0.40682 1.53125,0.90625 0.655964,0.49974 1.626012,1.12047 2.1875,1.40625 0.561499,0.28565 1.208078,0.73062 1.40625,0.96875 0.198162,0.2383 0.813502,0.6517 1.375,0.9375 0.561487,0.28563 1.562786,0.93794 2.21875,1.4375 0.655964,0.49944 1.349444,0.90625 1.5625,0.90625 0.213057,0 0.711466,0.30612 1.09375,0.6875 0.382282,0.38127 1.226663,1.02623 1.875,1.40625 0.535741,8.31975 1.751729,16.46143 3.59375,24.375 -0.336881,0.44394 -0.729484,0.93891 -1.21875,1.5 -3.73331,4.2819 -4.167568,4.77198 -5.125,5.84375 -1.499299,1.6785 -4.877624,5.69376 -6.3125,7.5 -0.725239,0.91308 -1.742332,2.1298 -2.25,2.6875 -0.507667,0.55767 -1.388558,1.55276 -1.96875,2.21875 -0.58019,0.66611 -1.437677,1.62853 -1.90625,2.15625 -1.248403,1.40582 -3.18492,3.70482 -4.6875,5.5625 -0.725239,0.89654 -1.690156,2.01649 -2.15625,2.5 -0.466094,0.48351 -0.93515,1.2115 -1.03125,1.59375 -0.240315,0.95523 0.503028,3.81078 1.3125,5.03125 0.367209,0.55363 0.851532,1.58189 1.0625,2.28125 0.210968,0.69947 0.667501,1.73272 1.03125,2.28125 0.363737,0.54828 0.863867,1.64868 1.09375,2.4375 0.229872,0.78895 0.706811,1.83143 1.0625,2.3125 0.355679,0.48106 0.81468,1.45114 1.03125,2.1875 0.216559,0.7362 0.70639,1.76243 1.0625,2.28125 0.356101,0.51884 0.846219,1.64413 1.09375,2.5 0.341627,1.18124 0.741387,1.86375 1.6875,2.8125 l 1.25,1.25 21.15625,0 c 14.083374,0 18.725902,-0.0109 20.625,0.15625 4.716001,6.25153 9.903393,12.1551 15.5,17.625 -0.06533,0.50156 -0.152499,1.09454 -0.28125,1.71875 -0.28105,1.36281 -0.69162,4.5376 -0.90625,7.0625 -0.21464,2.52468 -0.67206,6.03701 -1.03125,7.78125 -0.35919,1.74433 -0.836192,5.30149 -1.0625,7.90625 -0.226306,2.60487 -0.596858,5.54946 -0.8125,6.5625 -0.75789,3.56017 -0.870529,4.36726 -1.15625,7.21875 -0.393981,3.93171 -0.154686,4.78817 1.5625,5.65625 0.698846,0.35326 1.61169,0.93798 2.03125,1.28125 0.41956,0.34328 1.13283,0.75313 1.59375,0.9375 0.46092,0.18437 1.04817,0.58292 1.3125,0.875 0.26431,0.29209 1.13975,0.87868 1.9375,1.28125 0.79777,0.40242 1.66119,0.97604 1.9375,1.28125 0.27632,0.30531 0.65977,0.53125 0.84375,0.53125 0.18398,0 0.87866,0.40927 1.53125,0.90625 0.65259,0.49709 1.57986,1.10067 2.0625,1.34375 0.48264,0.24312 1.16862,0.72494 1.53125,1.0625 0.36262,0.33757 1.08608,0.78829 1.59375,1 0.50767,0.21152 1.36951,0.7683 1.9375,1.21875 0.56801,0.45048 1.3358,0.87945 1.6875,0.96875 0.88946,0.22275 2.54109,-0.32508 3.40625,-1.125 0.39913,-0.36908 1.14707,-0.85043 1.65625,-1.0625 0.50918,-0.21223 1.23114,-0.6594 1.59375,-1 0.36263,-0.34072 1.12699,-0.80124 1.6875,-1.03125 0.5605,-0.23 1.40351,-0.75777 1.875,-1.15625 0.47149,-0.39842 1.45771,-1.06595 2.21875,-1.5 3.04865,-1.73915 3.703,-2.15446 4.28125,-2.6875 0.33153,-0.30571 1.06451,-0.73821 1.625,-0.96875 0.5605,-0.23056 1.42468,-0.76571 1.90625,-1.1875 0.48157,-0.42195 1.13288,-0.86308 1.46875,-0.96875 0.33589,-0.10494 0.95674,-0.46365 1.375,-0.8125 0.41825,-0.34896 1.24666,-0.88909 1.84375,-1.1875 0.59709,-0.29842 1.38738,-0.81814 1.75,-1.15625 0.36263,-0.33818 1.09858,-0.78057 1.625,-1 0.52642,-0.21938 1.31033,-0.72458 1.75,-1.09375 0.43969,-0.36906 1.20018,-0.82806 1.6875,-1.03125 0.48732,-0.2031 1.11909,-0.61918 1.40625,-0.9375 0.28714,-0.31827 1.16369,-0.87648 1.9375,-1.21875 0.72403,-0.32035 1.60702,-0.83961 2.09375,-1.21875 7.24202,2.75386 14.74018,4.97697 22.4375,6.625 0.31165,0.4188 0.59522,0.92515 0.84375,1.59375 0.30043,0.80827 0.83663,1.86487 1.1875,2.375 0.35087,0.51015 0.78951,1.52094 1,2.21875 0.2105,0.69787 0.69876,1.70159 1.0625,2.25 0.36373,0.54839 0.83263,1.64863 1.0625,2.4375 0.22987,0.78886 0.73145,1.82251 1.09375,2.3125 0.3623,0.48998 0.78602,1.38599 0.9375,1.96875 0.1515,0.58254 0.62997,1.54413 1.0625,2.15625 0.43252,0.6122 0.96503,1.72137 1.1875,2.46875 0.22246,0.7474 0.68385,1.78874 1.03125,2.3125 0.3474,0.52374 0.78903,1.5193 1,2.21875 0.21096,0.69947 0.68289,1.7214 1.03125,2.25 0.34836,0.52856 0.82272,1.54268 1.0625,2.25 0.23978,0.70727 0.74022,1.66272 1.09375,2.125 0.35353,0.46257 0.82654,1.50278 1.0625,2.3125 0.23597,0.80997 0.656,1.76803 0.9375,2.125 0.28151,0.35718 0.74362,1.17431 1.03125,1.84375 0.30343,0.7063 0.77677,1.32711 1.125,1.46875 0.34699,0.14075 5.92223,0.2186 13.21875,0.1875 l 12.625,-0.0312 1.15625,-1.3125 c 0.69173,-0.78905 1.2956,-1.86711 1.53125,-2.65625 0.21609,-0.72339 0.7064,-1.73118 1.0625,-2.25 0.35611,-0.51885 0.83047,-1.57868 1.0625,-2.375 0.23202,-0.79635 0.7068,-1.86267 1.0625,-2.34375 0.35568,-0.48098 0.82855,-1.53498 1.0625,-2.34375 0.23395,-0.80852 0.70353,-1.81602 1.03125,-2.25 0.3277,-0.43425 0.75156,-1.26478 0.9375,-1.84375 0.18594,-0.57871 0.73939,-1.70393 1.21875,-2.5 0.47937,-0.7958 0.97369,-1.91725 1.125,-2.5 0.15132,-0.58269 0.57522,-1.47889 0.9375,-1.96875 0.36231,-0.49001 0.86388,-1.52352 1.09375,-2.3125 0.22988,-0.7889 0.71023,-1.87524 1.0625,-2.40625 0.35228,-0.53101 0.8086,-1.56445 1.03125,-2.3125 0.22265,-0.74807 0.72361,-1.71749 1.09375,-2.15625 0.37015,-0.43897 0.79183,-1.26785 0.9375,-1.8125 0.14569,-0.5449 0.71014,-1.76519 1.28125,-2.71875 0.16357,-0.27315 0.27731,-0.45674 0.40625,-0.65625 7.77073,-1.62886 15.34691,-3.83834 22.65625,-6.59375 0.0308,0.0247 0.0628,0.0365 0.0937,0.0625 0.42645,0.35796 1.18437,0.82165 1.6875,1.03125 0.50312,0.20983 1.2711,0.65226 1.6875,1 0.41639,0.34778 1.35942,0.94261 2.09375,1.3125 0.73436,0.36987 1.49059,0.85715 1.6875,1.09375 0.19691,0.2367 0.76204,0.62732 1.28125,0.84375 0.51922,0.21638 1.26239,0.65508 1.625,1 0.36263,0.34484 1.18898,0.87728 1.84375,1.15625 0.65478,0.27892 1.35609,0.68927 1.5625,0.9375 0.2064,0.24797 0.9476,0.75121 1.625,1.09375 0.67743,0.34255 1.54918,0.90011 1.96875,1.25 0.41958,0.35009 1.03912,0.73808 1.375,0.84375 0.33589,0.10491 1.01841,0.51578 1.5,0.9375 0.48156,0.42186 1.2745,0.94495 1.78125,1.15625 0.50672,0.2113 1.2711,0.65327 1.6875,1 0.41639,0.3468 1.17984,0.8672 1.6875,1.125 0.50767,0.25776 1.27111,0.74701 1.6875,1.09375 0.4164,0.34677 1.16108,0.81182 1.6875,1.03125 0.52642,0.21938 1.26238,0.68487 1.625,1.03125 0.36263,0.34655 1.09859,0.81183 1.625,1.03125 0.52642,0.21943 1.30237,0.65427 1.71875,1 1.30338,1.08155 1.92541,1.31383 3.1875,1.125 0.79421,-0.11873 1.47163,-0.4463 2.125,-1.03125 0.53262,-0.47665 1.25787,-0.95683 1.59375,-1.0625 0.33587,-0.10437 0.98717,-0.54681 1.46875,-0.96875 0.48156,-0.42173 1.29161,-0.92104 1.78125,-1.125 0.48962,-0.20431 1.28159,-0.7409 1.75,-1.1875 0.46844,-0.44664 1.01096,-0.8125 1.21875,-0.8125 0.20779,0 0.93697,-0.44477 1.625,-0.96875 0.68803,-0.52399 1.61235,-1.09359 2.0625,-1.28125 0.45014,-0.18763 1.05662,-0.61501 1.34375,-0.9375 0.28715,-0.32239 1.00301,-0.79864 1.59375,-1.0625 0.59072,-0.26387 1.50246,-0.83078 2.03125,-1.25 0.52879,-0.41925 1.3291,-0.88846 1.75,-1.0625 0.94469,-0.39028 1.34375,-1.24255 1.34375,-2.8125 0,-2.5953 -0.84776,-10.31188 -1.46875,-13.34375 -0.35998,-1.75758 -0.82157,-5.22739 -1.03125,-7.6875 -0.37298,-4.37616 -0.51075,-5.1775 -1.3125,-8.90625 -0.36317,-1.68903 -0.92812,-7.53649 -1.09375,-10.65625 5.76496,-5.59706 11.1001,-11.63969 15.9375,-18.0625 L 343,291.0625 c 19.8719,-0.12204 21.52047,-0.16199 22.3125,-0.59375 0.97734,-0.53293 1.43062,-1.19018 1.90625,-2.6875 0.18387,-0.57877 0.65007,-1.4713 1,-2 0.34991,-0.5286 0.78902,-1.55065 1,-2.25 0.21094,-0.69938 0.68082,-1.69051 1.03125,-2.21875 0.35041,-0.52838 0.83261,-1.61726 1.0625,-2.40625 0.22986,-0.78889 0.70682,-1.83155 1.0625,-2.3125 0.3557,-0.48095 0.80545,-1.50619 1.03125,-2.28125 0.22583,-0.775 0.76523,-1.96075 1.1875,-2.625 0.42227,-0.6644 0.8394,-1.57649 0.9375,-2.03125 0.0981,-0.45471 0.37916,-1.17493 0.59375,-1.59375 0.56396,-1.10055 0.48115,-2.34685 -0.21875,-3.34375 -0.53473,-0.76147 -2.08486,-2.58236 -5.8125,-6.8125 -2.96918,-3.36921 -5.88376,-6.80763 -8,-9.4375 -0.72524,-0.90131 -1.79481,-2.17493 -2.375,-2.8125 -0.58019,-0.63758 -1.49687,-1.66648 -2.03125,-2.28125 -0.53436,-0.61462 -1.40201,-1.57738 -1.90625,-2.15625 -1.4173,-1.62686 -3.0841,-3.61818 -4.53125,-5.40625 -0.33588,-0.41501 -0.61006,-0.75019 -0.96875,-1.1875 1.93391,-8.18956 3.1855,-16.62401 3.71875,-25.25 0.42781,-0.243 0.84806,-0.51649 1.03125,-0.71875 0.25812,-0.28511 0.99443,-0.79016 1.65625,-1.125 0.66184,-0.33484 1.36375,-0.82358 1.5625,-1.0625 0.19876,-0.23912 0.84761,-0.67012 1.4375,-0.96875 0.5899,-0.29863 1.40717,-0.81814 1.8125,-1.15625 0.40536,-0.3381 1.23377,-0.8513 1.84375,-1.125 0.61,-0.27378 1.39835,-0.80611 1.75,-1.1875 0.35167,-0.38154 0.78758,-0.6875 0.96875,-0.6875 0.18117,0 0.87529,-0.40666 1.53125,-0.90625 0.65597,-0.49971 1.62601,-1.15155 2.1875,-1.4375 0.5615,-0.28561 1.20809,-0.6994 1.40625,-0.9375 0.19816,-0.23837 0.81349,-0.68284 1.375,-0.96875 0.56149,-0.28566 1.56278,-0.90682 2.21875,-1.40625 0.65596,-0.49958 1.32376,-0.90625 1.5,-0.90625 0.17624,0 0.77426,-0.43106 1.3125,-0.9375 0.53821,-0.50662 1.13761,-0.90625 1.34375,-0.90625 0.20612,0 0.90653,-0.40683 1.5625,-0.90625 0.65597,-0.49966 1.65726,-1.15173 2.21875,-1.4375 0.5615,-0.28577 1.17624,-0.72996 1.375,-0.96875 0.19875,-0.23898 0.94122,-0.71667 1.625,-1.0625 1.33153,-0.67321 2.24651,-1.64864 2.5,-2.65625 0.23245,-0.92402 -0.3601,-6.10928 -1.09375,-9.5 -0.35328,-1.63288 -0.81553,-4.8719 -1.03125,-7.21875 -0.49077,-5.33889 -0.75738,-6.69705 -1.59375,-8.34375 -0.70225,-1.38261 -0.96024,-1.53316 -3.6875,-2 -0.57216,-0.0977 -1.5753,-0.44009 -2.25,-0.78125 -0.67468,-0.34104 -2.27697,-0.82212 -3.5625,-1.0625 -1.28555,-0.24029 -2.90382,-0.71915 -3.5625,-1.0625 -0.65865,-0.34353 -2.18425,-0.80024 -3.40625,-1.03125 -1.22195,-0.23119 -2.79823,-0.70762 -3.5,-1.0625 -0.7018,-0.35473 -2.25368,-0.83845 -3.4375,-1.0625 -1.18386,-0.22403 -2.70042,-0.69014 -3.375,-1.03125 -0.67459,-0.3411 -2.22345,-0.80155 -3.4375,-1.03125 -1.21401,-0.22984 -2.84646,-0.70668 -3.625,-1.0625 -0.77853,-0.3554 -2.36299,-0.84129 -3.53125,-1.0625 -0.71496,-0.13529 -1.43034,-0.32659 -2.09375,-0.5625 -2.96818,-8.05871 -6.60943,-15.78712 -10.84375,-23.15625 0.021,-0.0326 0.0407,-0.0613 0.0625,-0.0937 0.43756,-0.65096 1.00076,-1.79505 1.21875,-2.53125 0.218,-0.73619 0.67556,-1.73768 1.03125,-2.21875 0.35569,-0.48095 0.8367,-1.50622 1.0625,-2.28125 0.22582,-0.77518 0.74122,-1.94064 1.15625,-2.59375 0.41499,-0.65267 0.8393,-1.61756 0.9375,-2.15625 0.0983,-0.53825 0.52889,-1.62197 0.96875,-2.40625 0.43986,-0.78431 0.97102,-2.02277 1.1875,-2.75 0.2165,-0.72738 0.70942,-1.73572 1.0625,-2.25 0.35303,-0.51429 0.81467,-1.54505 1.03125,-2.28125 0.21654,-0.73621 0.67556,-1.73775 1.03125,-2.21875 0.35568,-0.48121 0.83264,-1.523551 1.0625,-2.3125 0.22989,-0.788715 0.72998,-1.857939 1.09375,-2.40625 0.36372,-0.548532 0.82027,-1.581872 1.03125,-2.28125 0.21095,-0.699369 0.65261,-1.695004 1,-2.21875 0.77023,-1.161205 1.46875,-3.422102 1.46875,-4.75 0,-0.802073 -0.24437,-1.260027 -1.375,-2.59375 -3.31959,-3.915894 -5.51978,-6.503883 -6.1875,-7.21875 -0.39506,-0.42299 -1.35093,-1.495578 -2.125,-2.375 -0.77408,-0.879421 -1.84366,-2.091486 -2.375,-2.6875 -0.53135,-0.596005 -1.20989,-1.365668 -1.5,-1.71875 -3.53107,-4.297476 -4.11398,-4.523016 -7.28125,-2.9375 -0.66342,0.332126 -2.24864,0.776838 -3.53125,1 -1.28267,0.223153 -2.95015,0.684963 -3.6875,1.03125 -0.73731,0.346269 -2.32524,0.837015 -3.53125,1.0625 -1.20598,0.225458 -2.97233,0.708513 -3.9375,1.09375 -0.96515,0.38523 -2.68896,0.86137 -3.84375,1.0625 -1.15478,0.201133 -2.76814,0.668409 -3.5625,1.03125 -0.79439,0.362838 -2.28361,0.803145 -3.3125,0.96875 -1.02885,0.165629 -2.70342,0.631534 -3.71875,1.03125 -1.01534,0.399742 -2.79735,0.904604 -3.96875,1.125 -1.17144,0.220386 -2.74417,0.640276 -3.5,0.9375 -0.14112,0.0555 -0.2454,0.07847 -0.375,0.125 C 266.86181,58.585726 234.67817,47 200.03125,47 c -4.06384,0 -8.10321,0.156153 -12.09375,0.46875 -0.88844,-0.79481 -1.97524,-1.982447 -3.34375,-3.59375 -0.58019,-0.68311 -1.54481,-1.751636 -2.125,-2.375 -1.74682,-1.876815 -3.10577,-3.389039 -4.21875,-4.6875 -0.5802,-0.676878 -1.66938,-1.903079 -2.4375,-2.71875 -0.76812,-0.81568 -1.83933,-2.019999 -2.375,-2.6875 -1.13242,-1.41111 -8.379,-9.672159 -9.84375,-11.21875 -0.54821,-0.578857 -1.71779,-1.816437 -2.59375,-2.75 L 159.40625,15.75 z m 40.625,120.21875 c 36.87104,0 65.28125,28.43036 65.28125,64.0625 0,35.63214 -28.41021,64.03125 -65.28125,64.03125 -36.87104,0 -65.3125,-28.39911 -65.3125,-64.03125 0,-35.63214 28.44146,-64.0625 65.3125,-64.0625 z"
         id="path5011"
         inkscape:connector-curvature="0" />
    </clipPath>
    <clipPath
       clipPathUnits="userSpaceOnUse"
       id="clipPath5013">
      <path
         style="fill:#020202"
         d="m 135.21045,37.406465 -1.80549,0.525135 c -1.00858,0.294268 -2.30205,0.868623 -2.91755,1.309855 -0.60687,0.435097 -2.05948,1.135338 -3.24364,1.535248 -1.18416,0.399911 -2.81661,1.144463 -3.64486,1.651945 -0.82826,0.507443 -2.13003,1.07054 -2.8632,1.27229 -0.73318,0.201798 -2.05122,0.792968 -2.9468,1.314011 -0.89559,0.521006 -2.38358,1.224367 -3.29799,1.572814 -2.58591,0.985395 -2.77238,1.405404 -2.57412,5.827034 0.0656,1.462402 0.0254,3.848196 -0.1126,5.298211 -0.138,1.45003 -0.18155,4.490086 -0.0844,6.756517 0.0971,2.266448 0.0571,5.23209 -0.076,6.606099 -0.13308,1.373994 -0.13992,4.367755 -0.0384,6.660446 0.10151,2.292679 0.0791,5.040249 -0.0296,6.092182 -0.10879,1.051937 -0.21,2.65303 -0.24084,3.555695 -0.0122,0.356578 -0.036,0.666997 -0.0717,0.965172 -5.97648,4.418324 -11.580843,9.298699 -16.795778,14.532671 -0.261874,-0.0413 -0.520003,-0.0894 -0.83138,-0.1803 -0.63987,-0.18668 -2.203188,-0.36682 -3.459468,-0.40372 -1.256278,-0.0369 -2.826234,-0.25842 -3.50119,-0.48732 -0.674974,-0.22889 -2.197321,-0.4377 -3.380024,-0.4747 -1.182714,-0.037 -2.828225,-0.24454 -3.676705,-0.46238 -1.468066,-0.37691 -2.963946,-0.55906 -5.038783,-0.59711 -0.515655,-0.009 -1.57175,-0.20745 -2.360504,-0.440508 -0.788758,-0.233063 -2.409649,-0.467081 -3.593104,-0.504105 -1.183454,-0.03701 -2.790001,-0.254231 -3.559695,-0.47901 -0.76969,-0.224768 -2.394286,-0.448654 -3.622356,-0.499948 -1.228074,-0.05132 -2.976654,-0.30661 -3.873002,-0.583706 -2.395856,-0.740719 -2.830477,-0.596491 -4.229594,1.31723 -1.903031,2.602927 -4.847279,7.083627 -8.466849,12.871697 -0.599059,0.95796 -1.432124,2.28348 -1.849089,2.94861 -0.416965,0.66514 -1.075184,1.6023 -1.434774,2.08398 -0.359598,0.48169 -0.684464,1.07765 -0.736404,1.32821 -0.152856,0.73708 0.664845,2.75709 1.476431,3.66979 0.41339,0.4649 0.978265,1.37166 1.268758,1.99826 0.290505,0.6266 0.880429,1.49991 1.293854,1.96485 0.41342,0.4649 0.998661,1.43237 1.318794,2.14036 0.320104,0.70786 0.905246,1.62047 1.302167,2.02335 0.396922,0.4029 0.982035,1.31537 1.302167,2.02335 0.320123,0.70799 0.916348,1.66323 1.314637,2.11111 0.398278,0.44774 0.969935,1.31305 1.260445,1.93976 0.290491,0.6265 0.855336,1.53333 1.268759,1.99825 0.413411,0.46484 1.046669,1.46108 1.389768,2.21981 0.34308,0.7586 0.927349,1.74923 1.327106,2.19886 0.399743,0.44954 0.960783,1.38125 1.247819,2.06092 0.287042,0.67964 0.888494,1.60268 1.306324,2.05261 0.417875,0.45023 0.992448,1.34887 1.302168,2.02335 0.309713,0.67444 0.999976,1.76923 1.535873,2.40795 0.55033,0.65621 0.805735,1.03188 0.980704,1.65122 -2.812139,7.1481 -5.06195,14.5298 -6.706273,22.11161 -0.600675,0.36798 -1.38626,0.67925 -2.704314,1.13034 -1.018673,0.34865 -2.35097,0.97832 -2.963585,1.40592 -0.612658,0.42731 -1.854233,1.02768 -2.767131,1.31833 -0.912843,0.29103 -2.372422,0.95251 -3.2227,1.47258 -0.850286,0.52001 -2.368484,1.21235 -3.360649,1.55188 -0.992131,0.3397 -2.347839,0.97609 -3.022089,1.41424 -0.67424,0.43815 -2.126374,1.11207 -3.247796,1.50599 -1.121423,0.39391 -2.52902,1.05415 -3.10569,1.45596 -0.576664,0.40184 -1.938249,1.03931 -3.051342,1.4184 -1.113098,0.37906 -2.515263,1.03272 -3.10569,1.45596 -0.590416,0.42325 -1.849465,1.02475 -2.796384,1.32248 -2.418596,0.75983 -2.547388,0.96376 -2.668937,4.10961 -0.05639,1.45897 -0.17909,3.34447 -0.270555,4.18662 -0.09148,0.84203 -0.08925,3.37288 0.02503,5.63677 0.11429,2.26403 0.108679,5.75709 -0.03088,7.76357 -0.140654,2.0219 -0.140414,3.87234 -0.0073,4.14921 0.449557,0.93559 1.704983,1.97078 2.935675,2.38811 0.675302,0.22902 1.404588,0.57474 1.633195,0.78259 0.228602,0.20783 1.028569,0.56153 1.750204,0.76597 0.72164,0.20447 1.568533,0.57723 1.879683,0.8371 0.3111,0.25952 0.968187,0.58433 1.474463,0.71562 0.506256,0.13114 1.240456,0.45572 1.624882,0.72409 0.384424,0.26835 1.171285,0.65631 1.762674,0.85373 0.59139,0.19743 1.257289,0.51911 1.474463,0.71562 0.217205,0.19681 0.882556,0.51455 1.474463,0.71562 0.59191,0.20109 1.426036,0.57866 1.850431,0.84126 0.424405,0.26259 1.263985,0.60366 1.87137,0.77859 0.607434,0.17521 1.420358,0.5979 1.80024,0.90808 0.37992,0.31039 0.828672,0.53879 0.998268,0.5147 0.169595,-0.0241 0.873445,0.26439 1.553907,0.64464 0.680503,0.38055 1.671105,0.83257 2.234712,1.0254 0.5636,0.1927 1.228033,0.52323 1.445211,0.71978 0.217191,0.19671 0.848182,0.50183 1.411802,0.69468 0.563586,0.19269 1.587642,0.67012 2.268121,1.05049 0.680463,0.38027 1.383722,0.66883 1.583159,0.64049 0.199438,-0.0283 0.706703,0.19192 1.115278,0.49807 0.408558,0.30605 1.284749,0.79747 1.942188,1.06697 1.608107,7.71666 3.829292,15.17615 6.606151,22.33884 -0.256298,0.46037 -0.557968,0.97592 -0.941327,1.56622 -2.925125,4.50476 -3.266438,5.02127 -4.02011,6.15188 -1.1802,1.77062 -3.808498,5.97856 -4.911403,7.86019 -0.557429,0.95118 -1.347669,2.22541 -1.748705,2.81498 -0.401039,0.58955 -1.093263,1.6382 -1.547783,2.33879 -0.454503,0.7007 -1.129164,1.71565 -1.497592,2.27196 -0.981611,1.482 -2.488548,3.89162 -3.647986,5.83041 -0.55963,0.93569 -1.3139,2.1124 -1.685888,2.62699 -0.371988,0.5146 -0.714229,1.25844 -0.753343,1.62904 -0.0979,0.92613 0.977746,3.50027 1.897808,4.53506 0.417374,0.46939 1.007506,1.3675 1.298011,1.9941 0.290519,0.62669 0.855301,1.53317 1.268758,1.99825 0.413412,0.46485 1.027937,1.42839 1.348046,2.13621 0.320116,0.70794 0.905228,1.62034 1.302167,2.02335 0.396929,0.403 0.955619,1.25002 1.256289,1.9105 0.300638,0.66034 0.895656,1.55581 1.29801,1.9941 0.402349,0.43831 1.010812,1.42648 1.356359,2.19471 0.476906,1.06029 0.941893,1.646 1.95372,2.40826 l 1.336358,1.00383 19.803859,-2.814 c 13.183109,-1.87323 17.527417,-2.50095 19.327351,-2.59708 5.246053,5.22463 10.887086,10.06085 16.853486,14.43668 0.006,0.47819 0.003,1.04486 -0.0347,1.64629 -0.0818,1.31308 -0.0439,4.33953 0.0911,6.73158 0.13489,2.39184 0.17388,5.74049 0.0697,7.42101 -0.10422,1.6806 -0.0776,5.07382 0.057,7.54217 0.13463,2.46846 0.17943,5.27411 0.11232,6.25107 -0.23591,3.4334 -0.23399,4.20388 -0.12217,6.9111 0.15416,3.73278 0.49208,4.50266 2.21496,5.08685 0.70116,0.23772 1.63342,0.66365 2.07182,0.92917 0.4384,0.26553 1.16059,0.55431 1.61657,0.66558 0.45598,0.11128 1.0587,0.40624 1.34498,0.64449 0.28627,0.23827 1.18377,0.67092 1.98407,0.94164 0.8003,0.27059 1.68482,0.6927 1.98407,0.94164 0.29926,0.24904 0.68825,0.40954 0.86047,0.38507 0.17222,-0.0245 0.87693,0.26623 1.55391,0.64464 0.67699,0.37852 1.62527,0.82018 2.10939,0.98352 0.48412,0.16338 1.19034,0.52316 1.57469,0.79091 0.38434,0.26776 1.1215,0.59344 1.62488,0.72409 0.50335,0.13047 1.38416,0.53703 1.97575,0.88314 0.59162,0.34613 1.36739,0.64555 1.70848,0.68236 0.86224,0.0902 2.33542,-0.64229 3.03888,-1.50615 0.32452,-0.39857 0.96063,-0.94864 1.40905,-1.21488 0.4484,-0.26639 1.06473,-0.781 1.35886,-1.14806 0.29413,-0.36717 0.94838,-0.89992 1.44246,-1.18978 0.49408,-0.28985 1.213,-0.89601 1.60135,-1.33173 0.38836,-0.43567 1.22275,-1.1917 1.8774,-1.69923 2.62245,-2.03348 3.17973,-2.50928 3.65011,-3.08516 0.26968,-0.33026 0.89828,-0.83261 1.39227,-1.12296 0.49401,-0.29038 1.23177,-0.90626 1.62645,-1.36515 0.39466,-0.45903 0.94566,-0.95859 1.24601,-1.10218 0.30046,-0.14291 0.83391,-0.56127 1.17903,-0.94345 0.3451,-0.38228 1.04871,-0.99807 1.56794,-1.35683 0.51923,-0.35876 1.18987,-0.95037 1.48434,-1.3151 0.29447,-0.3648 0.92453,-0.8768 1.38811,-1.15222 0.46359,-0.27538 1.1302,-0.85255 1.49266,-1.2566 0.36249,-0.40395 1.01332,-0.93477 1.44246,-1.18979 0.42915,-0.25493 0.96519,-0.72845 1.19166,-1.06461 0.22645,-0.33612 0.97272,-0.97524 1.65154,-1.39855 0.63514,-0.39618 1.39262,-0.99969 1.7978,-1.41934 7.14538,1.61456 14.45992,2.69823 21.8844,3.21709 0.34743,0.35057 0.68023,0.78684 1.0018,1.37964 0.38873,0.71664 1.0312,1.63438 1.42749,2.06523 0.3963,0.43087 0.94134,1.3187 1.23119,1.94391 0.28987,0.62526 0.88043,1.49987 1.29386,1.96485 0.41342,0.46495 0.99869,1.43249 1.31879,2.14036 0.3201,0.70786 0.92711,1.60872 1.33142,2.01919 0.40431,0.41047 0.92013,1.19285 1.13944,1.71821 0.2193,0.52515 0.79508,1.36163 1.28138,1.87709 0.4863,0.51553 1.1323,1.48297 1.43996,2.15299 0.30765,0.67003 0.87806,1.58343 1.27292,2.0275 0.39485,0.44406 0.94067,1.31724 1.23119,1.94391 0.29051,0.6267 0.8682,1.52053 1.2646,1.96901 0.39639,0.44843 0.97532,1.33463 1.29385,1.96484 0.31853,0.63017 0.91406,1.45798 1.30648,1.84369 0.39246,0.38597 0.97359,1.29677 1.30217,2.02335 0.32862,0.72681 0.84923,1.56775 1.16022,1.86446 0.31102,0.29691 0.85228,1.00034 1.21057,1.58873 0.37797,0.62079 0.90363,1.13895 1.24844,1.22522 0.34353,0.0856 5.57273,-0.58309 12.39869,-1.58272 l 11.81381,-1.7085 0.90776,-1.3824 c 0.54256,-0.83061 0.96443,-1.92008 1.08006,-2.69012 0.10606,-0.70589 0.43098,-1.71448 0.6953,-2.2475 0.26434,-0.53304 0.56741,-1.58822 0.67869,-2.3645 0.11126,-0.7763 0.41386,-1.83761 0.68283,-2.33525 0.26897,-0.49754 0.57142,-1.54706 0.68284,-2.33525 0.11145,-0.78796 0.41701,-1.79351 0.66606,-2.24334 0.24899,-0.45008 0.53528,-1.2839 0.63233,-1.85059 0.0971,-0.56645 0.46548,-1.69335 0.80832,-2.50229 0.34287,-0.8087 0.65643,-1.92421 0.72056,-2.48983 0.0641,-0.56557 0.34174,-1.46087 0.6157,-1.9676 0.27398,-0.50688 0.60602,-1.54103 0.71625,-2.31015 0.11025,-0.76905 0.4154,-1.84984 0.67452,-2.39376 0.25914,-0.54392 0.54883,-1.572 0.65775,-2.30184 0.10891,-0.72987 0.44891,-1.70395 0.73703,-2.1639 0.2881,-0.46014 0.57257,-1.29212 0.63649,-1.82133 0.0639,-0.52945 0.42995,-1.74681 0.83772,-2.71538 0.11678,-0.27744 0.19883,-0.46443 0.29299,-0.66833 7.05734,-2.55833 13.85534,-5.63428 20.33094,-9.18577 0.0321,0.0191 0.0637,0.0258 0.0961,0.046 0.4468,0.27836 1.21795,0.6116 1.7168,0.74088 0.49886,0.12949 1.2766,0.44149 1.71263,0.71162 0.43604,0.27016 1.3979,0.70154 2.13449,0.95011 0.73661,0.24855 1.50931,0.60409 1.72511,0.79938 0.2158,0.19537 0.79677,0.48586 1.31157,0.61939 0.51481,0.13349 1.26883,0.44529 1.65414,0.71993 0.38531,0.27457 1.22966,0.66306 1.87968,0.8371 0.65002,0.174 1.36108,0.46484 1.58732,0.66975 0.22618,0.20466 0.98694,0.57715 1.6666,0.80769 0.67969,0.23055 1.56987,0.63651 2.00916,0.90823 0.43933,0.2719 1.07087,0.55268 1.39933,0.60692 0.32838,0.0535 1.02192,0.34735 1.52882,0.67806 0.50688,0.33084 1.31871,0.71502 1.82117,0.84541 0.50244,0.1304 1.27674,0.44244 1.71264,0.71162 0.4359,0.26925 1.21977,0.65484 1.72927,0.82863 0.5095,0.17376 1.28921,0.53019 1.72511,0.79938 0.4359,0.26922 1.19484,0.60549 1.71679,0.74088 0.52195,0.13533 1.27278,0.47318 1.65829,0.74918 0.38555,0.27617 1.13635,0.61381 1.65829,0.74919 0.52196,0.13538 1.30614,0.43922 1.74189,0.70746 1.36392,0.83905 1.97709,0.97375 3.13338,0.62912 0.72765,-0.21678 1.3182,-0.61351 1.852,-1.24798 0.43517,-0.51702 1.05019,-1.06297 1.35054,-1.20656 0.30052,-0.14237 0.85134,-0.64316 1.24601,-1.10219 0.39468,-0.45882 1.08654,-1.03396 1.51775,-1.29001 0.43115,-0.25637 1.10112,-0.864 1.48018,-1.34435 0.37909,-0.4804 0.83827,-0.89503 1.03278,-0.92267 0.1945,-0.0276 0.81791,-0.54097 1.39227,-1.12297 0.57435,-0.58201 1.36382,-1.23814 1.76023,-1.47368 0.39641,-0.23551 0.90728,-0.71624 1.13316,-1.0563 0.22591,-0.33998 0.83266,-0.881 1.35055,-1.20657 0.51786,-0.32557 1.29591,-0.97751 1.73514,-1.44027 0.43922,-0.46279 1.12596,-1.00845 1.49681,-1.22735 0.83239,-0.49099 1.09258,-1.34185 0.88376,-2.81145 -0.3452,-2.42939 -2.16516,-9.53994 -3.14972,-12.2954 -0.57075,-1.59735 -1.46435,-4.78396 -1.98785,-7.05892 -0.93121,-4.04681 -1.16676,-4.7786 -2.41322,-8.16235 -0.56461,-1.53276 -1.87122,-6.93128 -2.44122,-9.82958 4.65197,-6.00607 8.84233,-12.37206 12.51621,-19.02773 l 18.09059,-2.68993 c 18.58538,-2.7574 20.12325,-3.01408 20.80722,-3.52358 0.84398,-0.62886 1.18087,-1.30439 1.42693,-2.76926 0.0951,-0.56623 0.41282,-1.46371 0.67006,-2.00516 0.25723,-0.54135 0.53233,-1.55648 0.6368,-2.23918 0.10443,-0.68273 0.41244,-1.673 0.67021,-2.21409 0.25773,-0.54121 0.56428,-1.62462 0.67453,-2.39376 0.11023,-0.76903 0.41802,-1.80848 0.68699,-2.30599 0.26899,-0.49752 0.55362,-1.51705 0.6619,-2.27259 0.10831,-0.7555 0.45551,-1.9372 0.76244,-2.61515 0.3069,-0.6781 0.57605,-1.58737 0.60739,-2.02611 0.0313,-0.43869 0.19865,-1.15025 0.34381,-1.57084 0.38153,-1.10521 0.13824,-2.26083 -0.64952,-3.10091 -0.60183,-0.64167 -2.29507,-2.13998 -6.34707,-5.6039 -3.22752,-2.7589 -6.41314,-5.58985 -8.7439,-7.77013 -0.79876,-0.74723 -1.96936,-1.79717 -2.59727,-2.31681 -0.62791,-0.51966 -1.62284,-1.36086 -2.20483,-1.86525 -0.58196,-0.50426 -1.5222,-1.29007 -2.0712,-1.76486 -1.54309,-1.33435 -3.36821,-2.97668 -4.96068,-4.45796 -0.36961,-0.34381 -0.67085,-0.62109 -1.06478,-0.98274 0.72099,-7.92328 0.77071,-15.98504 0.12252,-24.13055 0.36815,-0.28437 0.72515,-0.59627 0.86973,-0.80997 0.2037,-0.30122 0.82576,-0.87192 1.40074,-1.27338 0.575,-0.40147 1.16703,-0.95233 1.3213,-1.20241 0.15424,-0.25028 0.70429,-0.74003 1.21675,-1.09803 0.51247,-0.358 1.2084,-0.95301 1.54285,-1.32342 0.33447,-0.3704 1.04167,-0.96099 1.57625,-1.29832 0.53459,-0.33742 1.20174,-0.94058 1.48018,-1.34436 0.27844,-0.40393 0.64579,-0.74831 0.81538,-0.77241 0.16959,-0.0241 0.76525,-0.49708 1.31283,-1.05199 0.54757,-0.55502 1.3689,-1.29421 1.85646,-1.63657 0.48762,-0.34204 1.03784,-0.81538 1.19166,-1.06462 0.15379,-0.24948 0.67066,-0.74739 1.15825,-1.08971 0.4876,-0.34208 1.34227,-1.05672 1.88987,-1.61147 0.54758,-0.5549 1.1186,-1.02439 1.28358,-1.04784 0.16497,-0.0234 0.66743,-0.50649 1.1039,-1.05214 0.43642,-0.54583 0.94435,-0.99964 1.13731,-1.02705 0.19295,-0.0274 0.79447,-0.50141 1.34208,-1.05615 0.54758,-0.55497 1.39813,-1.29854 1.88572,-1.64073 0.48759,-0.34219 1.00395,-0.83975 1.15825,-1.08971 0.15426,-0.25014 0.78573,-0.79605 1.3798,-1.21072 1.15687,-0.80729 1.88362,-1.84207 1.98688,-2.81898 0.0947,-0.89587 -1.14968,-5.67086 -2.28743,-8.74724 -0.54789,-1.48151 -1.41141,-4.452 -1.9255,-6.62014 -1.16953,-4.93233 -1.59974,-6.1682 -2.60168,-7.5984 -0.84126,-1.20082 -1.10278,-1.30743 -3.7178,-1.38167 -0.54858,-0.0154 -1.53313,-0.20243 -2.21008,-0.43204 -0.67692,-0.2295 -2.24077,-0.4667 -3.4761,-0.52073 -1.23533,-0.0539 -2.81385,-0.28694 -3.47609,-0.52073 -0.66224,-0.23396 -2.15107,-0.45856 -3.32568,-0.51226 -1.17459,-0.0539 -2.71347,-0.29019 -3.41759,-0.52905 -0.70412,-0.2387 -2.22114,-0.48509 -3.35908,-0.53735 -1.13798,-0.0522 -2.6196,-0.28684 -3.29643,-0.51642 -0.67683,-0.22957 -2.18793,-0.45457 -3.35492,-0.50811 -1.16698,-0.0537 -2.7585,-0.2829 -3.5346,-0.51242 -0.77604,-0.22913 -2.32384,-0.47321 -3.44684,-0.52488 -0.68726,-0.0316 -1.38235,-0.11547 -2.03473,-0.24806 -3.85034,-7.14876 -8.28678,-13.89882 -13.2306,-20.23368 0.0153,-0.0333 0.0299,-0.0627 0.046,-0.0961 0.323,-0.66754 0.69802,-1.81341 0.80416,-2.53155 0.10614,-0.71812 0.40124,-1.71645 0.67021,-2.21408 0.26898,-0.49752 0.58287,-1.52123 0.69115,-2.27675 0.10828,-0.75566 0.43571,-1.91517 0.73734,-2.58174 0.30165,-0.66614 0.5705,-1.62579 0.59077,-2.14311 0.0204,-0.51692 0.27934,-1.58863 0.58677,-2.38129 0.30742,-0.79268 0.6399,-2.02262 0.74581,-2.732155 0.10591,-0.709679 0.4332,-1.719126 0.69531,-2.247494 0.26205,-0.528372 0.55708,-1.554644 0.6619,-2.272591 0.10477,-0.71795 0.40123,-1.716522 0.67021,-2.214085 0.26893,-0.497759 0.57676,-1.53691 0.68699,-2.306 0.11029,-0.768875 0.43619,-1.836267 0.70378,-2.397913 0.26751,-0.561846 0.55743,-1.589857 0.6619,-2.27259 0.10444,-0.682721 0.38544,-1.673457 0.64096,-2.209929 0.56654,-1.189425 0.91968,-3.398707 0.74306,-4.64172 -0.10669,-0.750801 -0.39635,-1.146977 -1.6321,-2.245058 -3.62824,-3.224035 -6.03202,-5.353941 -6.75214,-5.934297 -0.42607,-0.343404 -1.4635,-1.220287 -2.30506,-1.940534 -0.84157,-0.720244 -2.004,-1.712564 -2.58065,-2.199805 -0.57666,-0.487231 -1.31419,-1.117441 -1.63272,-1.409365 -3.87696,-3.553095 -4.45261,-3.686685 -7.20652,-1.781241 -0.57684,0.399137 -2.00158,1.026271 -3.17251,1.405768 -1.171,0.379497 -2.67046,1.033578 -3.31462,1.455805 -0.64412,0.422204 -2.06527,1.09279 -3.16419,1.464273 -1.0989,0.371454 -2.68809,1.058573 -3.54032,1.547562 -0.85221,0.488979 -2.4025,1.163967 -3.45672,1.505839 -1.05421,0.341873 -2.50228,0.993873 -3.1976,1.439178 -0.69535,0.445306 -2.03081,1.055548 -2.9719,1.34742 -0.94105,0.291889 -2.44661,0.950747 -3.34387,1.459961 -0.89726,0.50924 -2.49821,1.218855 -3.56541,1.58097 -1.06725,0.362112 -2.48359,0.96435 -3.15157,1.343108 -0.12472,0.07072 -0.21928,0.106098 -0.3344,0.166888 -26.85318,-14.784187 -58.52054,-21.34855 -90.95269,-16.74015 -3.80406,0.540532 -7.56445,1.223982 -11.25832,2.047379 -0.93737,-0.625831 -2.11266,-1.592993 -3.60801,-2.91927 -0.63396,-0.562271 -1.67905,-1.434188 -2.30506,-1.940533 -1.88479,-1.524496 -3.35802,-2.759299 -4.57256,-3.826719 -0.63314,-0.556437 -1.81579,-1.559382 -2.64331,-2.220744 -0.82751,-0.661371 -1.99043,-1.646223 -2.58064,-2.199805 -1.24772,-1.170282 -9.12988,-7.939382 -10.70671,-9.192282 -0.59016,-0.468936 -1.84959,-1.471839 -2.79373,-2.229213 l -1.71632,-1.367643 z m 54.01843,107.130345 c 34.51409,-4.90423 64.88974,17.92989 69.62919,51.28429 4.73944,33.35439 -18.0773,63.71697 -52.5914,68.6212 -34.51409,4.90423 -64.91484,-17.89649 -69.65428,-51.25088 -4.73945,-33.35439 18.10239,-63.75038 52.61649,-68.65461 z"
         id="path5015"
         inkscape:connector-curvature="0" />
    </clipPath>
    <linearGradient
       inkscape:collect="always"
       xlink:href="#linearGradient3974"
       id="linearGradient5284"
       gradientUnits="userSpaceOnUse"
       gradientTransform="matrix(1.0471468,0.1487928,-0.1487928,1.0471468,21.271543,-39.30774)"
       x1="259.80084"
       y1="359.31183"
       x2="139.09666"
       y2="43.995682" />
    <radialGradient
       inkscape:collect="always"
       xlink:href="#linearGradient3988"
       id="radialGradient5286"
       gradientUnits="userSpaceOnUse"
       gradientTransform="matrix(1.7947973,0.35681,-0.2149765,1.0813575,-155.22965,-91.717689)"
       cx="129.23863"
       cy="56.078693"
       fx="129.23863"
       fy="56.078693"
       r="168.96875" />
    <filter
       inkscape:collect="always"
       id="filter5326">
      <feGaussianBlur
         inkscape:collect="always"
         stdDeviation="7.1492869"
         id="feGaussianBlur5328" />
    </filter>
  </defs>
  <g
     id="g5138"
     transform="matrix(1.0467559,0,0,1.0467559,-9.3952495,-9.3455858)"
     style="filter:url(#filter5326);stroke-width:0;stroke-miterlimit:4;stroke-dasharray:none;stroke:none;stroke-opacity:1;opacity:0.75"
     inkscape:export-filename="/home/andrew/Desktop/Logo.png"
     inkscape:export-xdpi="112.36312"
     inkscape:export-ydpi="112.36312">
    <path
       clip-path="url(#clipPath5009)"
       style="fill:url(#linearGradient5284);fill-opacity:1;fill-rule:nonzero;stroke:none;stroke-width:0;stroke-linecap:butt;stroke-linejoin:round;stroke-miterlimit:4;stroke-opacity:1;stroke-dasharray:none"
       id="path5140"
       d="M 226.08368,22.94508 C 141.70316,10.955159 62.649053,60.089102 33.757336,136.66433 l 128.308204,18.23176 c 12.55447,-10.83964 29.54287,-16.4001 47.24176,-13.88521 l 16.77638,-118.0658 z m 38.07451,9.750064 -18.23176,128.308216 c 10.83964,12.55446 16.4001,29.54285 13.88521,47.24174 l 118.0658,16.77638 C 389.86736,140.64097 340.73341,61.586861 264.15819,32.695144 z M 24.007271,174.73884 c -11.98992,84.38052 37.144022,163.43463 113.719249,192.32634 l 18.23176,-128.3082 C 145.11864,226.20251 139.55817,209.21412 142.07307,191.51522 L 24.007271,174.73884 z m 215.811899,70.1254 c -12.55447,10.83965 -29.54286,16.40011 -47.24175,13.88521 l -16.77638,118.0658 C 260.18155,388.80517 339.23565,339.67123 368.12738,263.096 L 239.81917,244.86424 z"
       inkscape:connector-curvature="0" />
    <path
       clip-path="url(#clipPath5005)"
       style="fill:url(#radialGradient5286);fill-opacity:1;fill-rule:nonzero;stroke:none;stroke-width:0;stroke-linecap:butt;stroke-linejoin:round;stroke-miterlimit:4;stroke-opacity:1;stroke-dasharray:none"
       id="path5142"
       d="M 226.08367,22.94508 C 141.70315,10.95516 62.649057,60.089106 33.757336,136.66433 l 128.308194,18.23176 c 12.55447,-10.83964 29.54287,-16.4001 47.24176,-13.88521 l 16.77638,-118.0658 z m 38.07452,9.750067 -18.23176,128.308213 c 10.83964,12.55446 16.4001,29.54285 13.88521,47.24174 l 118.0658,16.77638 C 389.86736,140.64097 340.73341,61.586863 264.15819,32.695147 z M 24.007271,174.73884 c -11.98992,84.38052 37.144018,163.43463 113.719239,192.32634 l 18.23176,-128.3082 C 145.11863,226.20251 139.55816,209.21412 142.07306,191.51522 L 24.007271,174.73884 z m 215.811899,70.1254 c -12.55447,10.83965 -29.54286,16.40011 -47.24176,13.8852 L 175.80103,376.81525 C 260.18155,388.80517 339.23565,339.67123 368.12738,263.096 L 239.81917,244.86424 z"
       inkscape:connector-curvature="0" />
  </g>
  <g
     id="layer1"
     style="stroke:none;stroke-opacity:1;stroke-width:0;stroke-miterlimit:4;stroke-dasharray:none">
    <path
       d="M 226.08368,22.94508 C 141.70316,10.955159 62.649053,60.089102 33.757336,136.66433 L 162.06554,154.89609 C 174.62001,144.05645 191.60841,138.49599 209.3073,141.01088 L 226.08368,22.94508 z M 264.15819,32.695144 L 245.92643,161.00336 C 256.76607,173.55782 262.32653,190.54621 259.81164,208.2451 L 377.87744,225.02148 C 389.86736,140.64097 340.73341,61.586861 264.15819,32.695144 z M 24.007271,174.73884 C 12.017351,259.11936 61.151293,338.17347 137.72652,367.06518 L 155.95828,238.75698 C 145.11864,226.20251 139.55817,209.21412 142.07307,191.51522 L 24.007271,174.73884 z M 239.81917,244.86424 C 227.2647,255.70389 210.27631,261.26435 192.57742,258.74945 L 175.80104,376.81525 C 260.18155,388.80517 339.23565,339.67123 368.12738,263.096 L 239.81917,244.86424 z"
       id="path3438"
       style="opacity:1;fill:url(#linearGradient3980);fill-opacity:1;fill-rule:nonzero;stroke:none;stroke-width:0;stroke-linecap:butt;stroke-linejoin:round;stroke-miterlimit:4;stroke-dasharray:none;stroke-opacity:1"
       clip-path="url(#clipPath5009)" />
    <path
       d="M 226.08367,22.94508 C 141.70315,10.95516 62.649057,60.089106 33.757336,136.66433 L 162.06553,154.89609 C 174.62,144.05645 191.6084,138.49599 209.30729,141.01088 L 226.08367,22.94508 z M 264.15819,32.695147 L 245.92643,161.00336 C 256.76607,173.55782 262.32653,190.54621 259.81164,208.2451 L 377.87744,225.02148 C 389.86736,140.64097 340.73341,61.586863 264.15819,32.695147 z M 24.007271,174.73884 C 12.017351,259.11936 61.151289,338.17347 137.72651,367.06518 L 155.95827,238.75698 C 145.11863,226.20251 139.55816,209.21412 142.07306,191.51522 L 24.007271,174.73884 z M 239.81917,244.86424 C 227.2647,255.70389 210.27631,261.26435 192.57741,258.74944 L 175.80103,376.81525 C 260.18155,388.80517 339.23565,339.67123 368.12738,263.096 L 239.81917,244.86424 z"
       id="path3982"
       style="opacity:1;fill:url(#radialGradient3994);fill-opacity:1;fill-rule:nonzero;stroke:none;stroke-width:0;stroke-linecap:butt;stroke-linejoin:round;stroke-miterlimit:4;stroke-dasharray:none;stroke-opacity:1"
       clip-path="url(#clipPath5005)" />
  </g>
  <flowRoot
     xml:space="preserve"
     id="flowRoot5433"
     style="fill:black;stroke:none;stroke-opacity:1;stroke-width:1px;stroke-linejoin:miter;stroke-linecap:butt;fill-opacity:1;font-family:Sans;font-style:normal;font-weight:normal;font-size:40px;line-height:125%;letter-spacing:0px;word-spacing:0px;-inkscape-font-specification:Newspaper;font-stretch:normal;font-variant:normal"><flowRegion
       id="flowRegion5435"><rect
         id="rect5437"
         width="167.48769"
         height="110.83744"
         x="-71.921181"
         y="47.783253" /></flowRegion><flowPara
       id="flowPara5439" /></flowRoot>  <text
     xml:space="preserve"
     style="font-size:64px;font-style:normal;font-variant:normal;font-weight:bold;font-stretch:normal;text-align:center;line-height:100%;letter-spacing:0px;word-spacing:0px;writing-mode:lr-tb;text-anchor:middle;fill:#ffffff;fill-opacity:1;stroke:#000000;stroke-width:2;stroke-linecap:round;stroke-linejoin:round;stroke-miterlimit:4;stroke-opacity:1;stroke-dasharray:none;font-family:TF2 Build;-inkscape-font-specification:TF2 Build Bold"
     x="205.07654"
     y="153.77936"
     id="text5441"
     sodipodi:linespacing="100%"><tspan
       sodipodi:role="line"
       x="205.07654"
       y="153.77936"
       id="tspan3799">HUD</tspan><tspan
       sodipodi:role="line"
       x="205.07654"
       y="217.77936"
       id="tspan3801" /><tspan
       sodipodi:role="line"
       x="205.07654"
       y="281.77936"
       id="tspan3793">Editor</tspan></text>
</svg>
